<svg width="30" height="30" viewBox="0 0 30 30" fill="none" xmlns="http://www.w3.org/2000/svg">
<path fill-rule="evenodd" clip-rule="evenodd" d="M21.3461 22.5001C21.6647 22.8187 22.1813 22.8187 22.4999 22.5001C22.8186 22.1814 22.8186 21.6648 22.4999 21.3462L16.1537 15L22.4999 8.65379C22.8186 8.33516 22.8186 7.81857 22.4999 7.49994C22.1813 7.18132 21.6647 7.18132 21.3461 7.49994L14.9999 13.8462L8.65379 7.50006C8.33516 7.18143 7.81857 7.18143 7.49994 7.50006C7.18131 7.81869 7.18131 8.33528 7.49994 8.65391L13.846 15L7.49994 21.3461C7.18132 21.6647 7.18132 22.1813 7.49994 22.4999C7.81857 22.8186 8.33516 22.8186 8.65379 22.4999L14.9999 16.1538L21.3461 22.5001Z" fill="#D83603"/>
</svg>
