<svg width="76" height="74" viewBox="0 0 76 74" fill="none" xmlns="http://www.w3.org/2000/svg">
<g clip-path="url(#clip0)">
<path d="M24.8528 56.902C15.4661 51.6151 12.2358 39.8543 17.6553 30.6972C23.0747 21.54 35.1302 18.3887 44.5169 23.6756C53.9036 28.9625 57.1339 40.7233 51.7145 49.8804C46.2951 59.0376 34.2395 62.1889 24.8528 56.902Z" fill="white"/>
<path d="M46.8706 47.2004C51.5617 39.2738 49.7681 29.4322 43.1476 23.4834C34.5564 20.8645 24.9228 24.2699 20.2317 32.1965C15.5406 40.123 17.3343 49.9647 23.9547 55.9135C32.5673 58.4962 42.2009 55.0908 46.8706 47.2004Z" fill="#D83603"/>
<path d="M44.4957 23.7118C43.865 23.3566 43.2128 23.0375 42.5764 22.7756C50.5742 28.4867 53.0384 39.2851 47.9831 47.827C42.9278 56.3688 32.1097 59.6862 23.0408 55.7848C23.5916 56.1915 24.2009 56.583 24.8316 56.9382C34.2183 62.2251 46.2739 59.0738 51.6933 49.9166C57.1127 40.7595 53.8824 28.9987 44.4957 23.7118Z" fill="#BA1904"/>
<path d="M42.5768 22.7753C41.9032 22.4925 41.2082 22.2458 40.5503 22.02C47.1708 27.9688 48.9645 37.8105 44.2733 45.737C39.5822 53.6636 29.97 57.0328 21.3789 54.4139C21.8868 54.8931 22.4533 55.3569 23.0626 55.7483C32.1315 59.6497 42.9497 56.3324 48.0049 47.7905C53.0602 39.2486 50.5746 28.4864 42.5768 22.7753Z" fill="#F0440D"/>
<path d="M50.4492 18.6676C49.7423 19.862 46.5951 20.1645 46.5951 20.1645C46.5951 20.1645 45.2687 17.3905 45.997 16.1599C46.7253 14.9293 48.284 14.5525 49.5083 15.2421C50.7327 15.9317 51.1561 17.4731 50.4492 18.6676Z" fill="white"/>
<path d="M46.1668 20.8886C46.0184 20.805 45.8915 20.6853 45.8444 20.514C45.6077 19.9946 44.3554 17.2624 45.2551 15.7422C46.1976 14.1497 48.3044 13.599 49.9369 14.5184C51.5693 15.4379 52.1339 17.4932 51.1913 19.0857C50.2917 20.6059 47.2772 20.9349 46.6606 20.9737C46.4851 21.0196 46.3153 20.9722 46.1668 20.8886ZM49.08 15.9662C48.2638 15.5065 47.2104 15.7818 46.7392 16.5781C46.4821 17.0124 46.7372 18.1695 47.1308 19.2599C48.2741 19.0834 49.4502 18.6842 49.7073 18.2498C50.1785 17.4536 49.8963 16.4259 49.08 15.9662Z" fill="#333333"/>
<path d="M52.3046 19.7125C51.5978 20.9069 48.4506 21.2094 48.4506 21.2094C48.4506 21.2094 47.1242 18.4355 47.8525 17.2049C48.5808 15.9743 50.1394 15.5974 51.3638 16.287C52.5881 16.9766 53.0115 18.5181 52.3046 19.7125Z" fill="#FFC839"/>
<path d="M46.9971 26.4231C46.96 26.4022 46.9228 26.3813 46.8486 26.3395C45.0965 24.87 43.1301 23.7625 40.9495 23.0169C40.7055 22.9277 40.5257 22.7299 40.4416 22.5378C40.3417 22.2885 40.3746 22.0657 40.5032 21.8486L42.0454 19.2426C42.6881 18.1567 44.0926 17.7896 45.2056 18.4165L48.8416 20.4644C49.9546 21.0913 50.331 22.4615 49.6884 23.5473L48.1461 26.1533C48.0176 26.3705 47.7777 26.5249 47.5651 26.5499C47.3524 26.5749 47.1826 26.5275 46.9971 26.4231ZM44.9244 22.9875C45.7035 23.4263 46.4612 23.9014 47.1761 24.4488L48.2043 22.7114C48.3757 22.4219 48.2816 22.0793 47.9848 21.9122L44.3488 19.8643C44.052 19.6971 43.7009 19.7889 43.5295 20.0784L42.5013 21.8158C43.3447 22.146 44.1453 22.5487 44.9244 22.9875Z" fill="#333333"/>
<path d="M20.9993 26.8863C20.9251 26.8445 20.8509 26.8027 20.7982 26.7247C20.4543 26.3863 20.5258 25.8475 20.8513 25.5482C21.7051 24.7743 22.6116 24.0784 23.5866 23.5176C23.9863 23.2602 24.5172 23.3661 24.7811 23.7561C25.0451 24.146 24.9364 24.6639 24.5367 24.9214C23.6573 25.4878 22.7936 26.1113 22.0413 26.7975C21.7215 27.0035 21.2962 27.0535 20.9993 26.8863Z" fill="black"/>
<path d="M24.4245 57.6261C14.6297 52.1093 11.2583 39.8348 16.9134 30.2795C17.4489 29.3746 18.0586 28.5115 18.7211 27.7265C19.0309 27.3701 19.5519 27.3257 19.9386 27.5918C20.3039 27.894 20.3494 28.4023 20.0766 28.7795C19.4941 29.5131 18.9272 30.3038 18.4345 31.1362C13.2507 39.8952 16.3399 51.1422 25.3185 56.1992C34.297 61.2562 45.8259 58.2426 51.0097 49.4836C56.1935 40.7246 53.1043 29.4776 44.1258 24.4206C38.6875 21.4059 32.1579 21.1546 26.5451 23.7844C26.1297 23.9848 25.6046 23.7855 25.3992 23.3802C25.1938 22.975 25.3981 22.4627 25.8135 22.2623C31.9587 19.4016 39.0834 19.6503 44.9455 22.9519C54.7403 28.4687 58.1117 40.7433 52.4567 50.2986C46.8016 59.8539 34.2194 63.1429 24.4245 57.6261Z" fill="black"/>
<path d="M46.1668 20.8886C46.0184 20.805 45.8915 20.6853 45.8444 20.514C45.6077 19.9946 44.3554 17.2624 45.2551 15.7422C46.1976 14.1497 48.3044 13.599 49.9369 14.5184C51.5693 15.4379 52.1339 17.4932 51.1913 19.0857C50.2917 20.6059 47.2772 20.9349 46.6606 20.9737C46.4851 21.0196 46.3153 20.9722 46.1668 20.8886ZM49.08 15.9662C48.2638 15.5065 47.2104 15.7818 46.7392 16.5781C46.4821 17.0124 46.7372 18.1695 47.1308 19.2599C48.2741 19.0834 49.4502 18.6842 49.7073 18.2498C50.1785 17.4536 49.8963 16.4259 49.08 15.9662Z" fill="#333333"/>
<path d="M27.9491 16.5644C28.7688 17.0261 29.8168 16.7521 30.29 15.9525C30.7632 15.1529 30.4824 14.1305 29.6628 13.6689C28.8431 13.2072 27.7951 13.4812 27.3219 14.2808C26.8487 15.0804 27.1295 16.1028 27.9491 16.5644Z" fill="#D83603"/>
<path d="M62.4054 25.5477L64.0458 28.2089L60.8845 28.1175L58.1936 29.7387L58.2503 26.6338L56.6255 24.0296L59.7712 24.064L62.4777 22.4998L62.4054 25.5477Z" fill="#F0440D"/>
<path d="M59.7108 43.1396C60.5305 43.6013 61.5785 43.3273 62.0517 42.5277C62.5249 41.7281 62.2441 40.7057 61.4245 40.2441C60.6049 39.7824 59.5568 40.0564 59.0836 40.856C58.6104 41.6556 58.8912 42.678 59.7108 43.1396Z" fill="#FFC839"/>
<path d="M7.51553 46.0752C8.33516 46.5368 9.38321 46.2628 9.85642 45.4633C10.3296 44.6637 10.0488 43.6413 9.22918 43.1796C8.40955 42.718 7.3615 42.9919 6.88829 43.7915C6.41508 44.5911 6.69591 45.6135 7.51553 46.0752Z" fill="#D83603"/>
<path d="M37.1641 42.1195C37.1056 42.1348 37.0627 42.2071 36.9828 42.2586L35.3606 44.9161L33.1976 42.6362C33.1234 42.5944 33.0863 42.5735 33.0121 42.5317L29.9066 41.8443L31.4547 39.145C31.4975 39.0726 31.4818 39.0155 31.4876 38.9222L31.1988 35.8158L34.31 36.4099C34.4057 36.4155 34.4642 36.4003 34.5227 36.385L37.419 35.1689L37.7877 38.2239C37.8033 38.281 37.819 38.3381 37.8718 38.416L39.9548 40.7475L37.1641 42.1195Z" fill="white"/>
<path d="M35.4316 45.6314L32.9091 42.9559L29.2728 42.1625L31.0993 38.9927L30.765 35.3781L34.4071 36.0782L37.8359 34.6312L38.2657 38.2515L40.7083 40.9784L37.3323 42.5034L35.4316 45.6314ZM31.7381 36.4087L31.9656 38.9498C31.9755 39.1002 31.927 39.2659 31.8627 39.3745L30.5932 41.6032L33.1306 42.1637C33.3004 42.2111 33.4117 42.2738 33.5387 42.3936L35.305 44.2571L36.6488 42.0702C36.7345 41.9254 36.8359 41.8377 36.9743 41.7709L39.3439 40.6926L37.6575 38.7776C37.5305 38.6578 37.4621 38.5227 37.4521 38.3723L37.1661 35.8465L34.7437 36.8469C34.6053 36.9137 34.4511 36.9234 34.2813 36.876L31.7381 36.4087Z" fill="white"/>
<path d="M43.7429 49.0576C43.6844 49.0729 43.6416 49.1453 43.6202 49.1815L42.8919 50.4121L41.8817 49.3606C41.8446 49.3397 41.8075 49.3188 41.8075 49.3188L41.7333 49.277L40.2947 48.9493L41.023 47.7187C41.0659 47.6463 41.0502 47.5892 41.0716 47.553L40.9294 46.1217L42.3523 46.3922C42.4108 46.3769 42.485 46.4187 42.5649 46.3672L43.8853 45.8079L44.049 47.2031C44.0647 47.2602 44.0803 47.3173 44.1331 47.3953L45.0847 48.4621L43.7429 49.0576Z" fill="white"/>
<path d="M42.8887 51.0862L41.5191 49.6391L39.5496 49.2055L40.5193 47.4835L40.3686 45.5648L42.3224 45.9413L44.1752 45.1511L44.4001 47.1115L45.7112 48.5739L43.8955 49.3851L42.8887 51.0862ZM41.9846 48.9362C42.0588 48.9779 42.133 49.0197 42.1487 49.0768L42.7622 49.7119L43.212 48.9519C43.2977 48.8071 43.3991 48.7194 43.5375 48.6526L44.3469 48.2881L43.7548 47.6168C43.6649 47.5179 43.5964 47.3828 43.5494 47.2115L43.4683 46.3455L42.659 46.71C42.5205 46.7768 42.3664 46.7865 42.1965 46.7391L41.3046 46.5745L41.3856 47.4406C41.3956 47.591 41.3684 47.7204 41.2827 47.8652L40.8329 48.6253L41.7034 48.8261C41.8148 48.8888 41.9104 48.8944 41.9846 48.9362Z" fill="white"/>
<path d="M35.1582 29.794C35.0997 29.8093 35.0198 29.8608 34.9769 29.9332L34.2058 31.2362L33.1429 30.1067C33.1058 30.0858 33.0687 30.0649 33.0687 30.0649C33.0316 30.044 32.9945 30.0231 32.9945 30.0231L31.4603 29.6898L32.2314 28.3869C32.2743 28.3145 32.2586 28.2574 32.2643 28.1641L32.1278 26.6394L33.6834 26.9365C33.779 26.9421 33.8376 26.9268 33.8961 26.9115L35.3335 26.3216L35.5285 27.8309C35.5442 27.888 35.5599 27.9451 35.6127 28.0231L36.6542 29.1888L35.1582 29.794Z" fill="white"/>
<path d="M34.2768 31.9517L32.8173 30.4057L30.7522 29.9665L31.7861 28.1359L31.6041 26.103L33.6906 26.506L35.6019 25.7005L35.8582 27.7751L37.2435 29.2793L35.3479 30.142L34.2768 31.9517ZM33.2828 29.7027C33.357 29.7445 33.4312 29.7863 33.4469 29.8434L34.1132 30.5565L34.6058 29.724C34.6915 29.5793 34.7929 29.4916 34.9313 29.4248L35.8207 29.0087L35.1544 28.2957C35.0274 28.1759 34.9589 28.0408 34.949 27.8904L34.8151 26.9464L33.9101 27.3053C33.7717 27.3721 33.6175 27.3818 33.4477 27.3344L32.5771 27.1336L32.6525 28.093C32.6624 28.2434 32.6138 28.409 32.5496 28.5176L32.0569 29.3501L33.0231 29.5565C33.1344 29.6191 33.2086 29.6609 33.2828 29.7027Z" fill="white"/>
<path d="M25.9676 47.8303C25.909 47.8456 25.8662 47.918 25.8448 47.9541L25.1165 49.1848L24.1434 48.1541C24.1063 48.1332 24.0692 48.1123 24.0692 48.1123C24.0321 48.0914 23.995 48.0705 23.995 48.0705L22.5936 47.7638L23.3219 46.5332C23.3647 46.4608 23.349 46.4037 23.3705 46.3675L23.2282 44.9361L24.6511 45.2067C24.7096 45.1914 24.7838 45.2332 24.8637 45.1817L26.1841 44.6224L26.3478 46.0176C26.3635 46.0746 26.3792 46.1317 26.432 46.2097L27.3836 47.2766L25.9676 47.8303Z" fill="white"/>
<path d="M25.1719 49.8436L23.8393 48.4174L21.907 48.0047L22.8766 46.2826L22.6889 44.343L24.6426 44.7196L26.474 43.9655L26.7203 45.8898L28.0315 47.3522L26.2158 48.1634L25.1719 49.8436ZM24.2677 47.6935C24.3419 47.7353 24.4161 47.7771 24.4318 47.8342L25.0082 48.4484L25.4366 47.7245C25.5223 47.5797 25.6237 47.4921 25.7621 47.4253L26.5715 47.0607L26.0165 46.4103C25.9266 46.3114 25.8582 46.1764 25.8111 46.0051L25.7086 45.1752L24.9207 45.5036C24.7822 45.5704 24.6281 45.5801 24.4954 45.5536L23.6405 45.4099L23.7216 46.2759C23.7315 46.4263 23.7043 46.5558 23.6187 46.7006L23.1902 47.4245L24.0608 47.6252C24.0979 47.6461 24.1935 47.6517 24.2677 47.6935Z" fill="white"/>
</g>
<defs>
<clipPath id="clip0">
<rect width="54.5046" height="53.8342" fill="white" transform="matrix(0.871303 0.490746 -0.509312 0.860582 28.2686 0.142578)"/>
</clipPath>
</defs>
</svg>
