<svg width="305" height="86" viewBox="0 0 305 86" fill="none" xmlns="http://www.w3.org/2000/svg">
<g clip-path="url(#clip0)">
<path d="M59.0381 77.0841C57.0023 78.7558 54.2262 76.3411 55.3366 73.7407C56.6321 70.9545 64.2201 70.9545 67.5514 69.6543C71.438 64.6391 78.6558 59.4383 84.208 56.4664C76.8051 55.7234 64.7754 55.5376 53.8561 57.3951C49.9695 61.11 47.1934 69.4685 43.492 68.5398C39.2353 67.4253 40.1607 60.367 44.9726 57.5808C41.2711 56.6521 41.6413 52.0085 45.8979 51.637C49.2292 51.4512 51.4501 54.7947 54.9665 55.9091C64.2201 54.4232 74.029 54.4232 81.2468 54.7947C67.1813 49.5938 53.671 43.8357 42.0114 37.5204C41.8263 37.5204 41.6413 37.5204 41.4562 37.5204C32.5727 33.0625 21.2832 29.7191 11.2893 28.4188C7.21771 31.3908 4.6267 37.8918 0.740167 35.2914C-1.29563 33.9912 -0.925489 28.9761 3.51626 26.9329C2.03568 26.5614 -0.37027 24.7039 0.370021 23.0322C2.22075 19.3173 9.06844 23.961 11.6595 27.1186C18.6922 28.0474 26.4653 29.9048 33.4981 32.5052C25.3548 27.8616 18.137 22.475 13.3251 16.9026V16.7169C9.06844 14.8594 0.370021 12.0733 1.29538 7.61539C2.22075 3.71474 6.47742 4.82921 8.51322 6.8724C7.77293 3.90048 9.99381 -1.11464 13.5102 0.185579C18.6922 2.41452 15.3609 12.4448 14.8057 16.7169C20.728 23.218 29.9817 29.7191 41.2711 35.8486C40.3457 31.948 39.9756 26.9329 40.1607 21.732C38.8652 18.7601 34.9786 14.8594 34.7936 11.8875C34.6085 8.54411 38.495 6.8724 40.1607 10.4016C41.4562 4.45772 48.8591 5.01495 48.674 9.47284C48.4889 14.1165 43.492 17.4599 41.4562 20.8033C41.2711 26.7471 41.6413 32.5052 42.7517 36.4059C55.1516 43.0927 69.7723 49.408 84.9483 54.7947C83.0976 52.38 82.3573 50.5225 81.2468 47.5506C81.0618 47.1791 81.2468 46.8076 81.617 46.8076C81.9871 46.6219 82.3573 46.8076 82.3573 47.1791C83.6528 50.7083 84.3931 52.5657 87.1692 55.7234C94.7571 58.3238 102.16 60.7385 109.748 62.9674C103.456 56.4664 95.8676 45.6931 91.0557 36.4059C87.9095 33.2482 85.3184 32.8767 83.4677 30.8335C80.5065 27.6759 83.8379 22.8465 87.1692 25.0754C86.9841 19.5031 92.9064 16.3454 95.6825 20.989C98.0885 25.0754 92.5363 31.0193 92.3512 35.8486C97.3482 45.6931 105.676 57.2093 111.969 63.5247C112.154 57.9523 112.894 52.1942 114.19 46.6219C112.894 41.7925 111.784 37.1489 113.449 34.7342C115.115 32.3195 118.446 33.0625 118.261 36.0344C122.148 31.0193 128.625 33.2482 126.775 37.8918C125.294 41.7925 119.187 42.7212 115.485 46.2504C114.005 52.1942 113.264 58.1381 113.079 64.0819C127.515 68.1683 141.21 71.1402 152.315 72.8119C152.685 72.8119 152.87 73.1834 152.87 73.5549C152.87 73.9264 152.5 74.1122 152.13 74.1122C140.655 72.2547 126.775 69.097 112.154 65.0106C108.823 65.9394 105.121 67.6111 102.16 69.097C98.6437 73.1834 92.9064 82.2849 88.4647 78.7558C85.5035 76.3411 88.8348 70.2115 92.3512 69.097C90.1303 69.097 88.0945 67.0538 89.39 64.8249C91.9811 60.7385 98.2735 66.1251 102.9 67.2396C104.936 66.1251 107.527 65.1964 109.748 64.2677C101.975 62.0387 94.0169 59.4383 86.2438 56.6521C80.1364 59.4383 71.623 65.7536 67.7365 71.1402C67.1813 74.8551 68.1067 80.056 66.6261 83.2137C64.2201 89.1575 56.4471 84.1424 59.0381 77.0841Z" fill="#3C8323"/>
<path d="M245.962 77.0843C247.998 78.756 250.774 76.3413 249.663 73.7409C248.368 70.9547 240.78 70.9547 237.448 69.6545C233.562 64.6394 226.344 59.4385 220.792 56.4666C228.195 55.7236 240.225 55.5379 251.144 57.3953C255.03 61.1102 257.806 69.4687 261.508 68.54C265.765 67.4255 264.839 60.3672 260.027 57.5811C263.729 56.6523 263.359 52.0087 259.102 51.6372C255.771 51.4515 253.55 54.7949 250.033 55.9093C240.78 54.4234 230.971 54.4234 223.753 54.7949C237.819 49.594 251.329 43.8359 262.989 37.5206C263.174 37.5206 263.359 37.5206 263.544 37.5206C272.427 33.0627 283.717 29.7193 293.711 28.4191C297.782 31.391 300.373 37.8921 304.26 35.2916C306.296 33.9914 305.925 28.9763 301.484 26.9331C302.964 26.5616 305.37 24.7042 304.63 23.0325C302.779 19.3175 295.931 23.9612 293.34 27.1188C286.308 28.0476 278.535 29.905 271.502 32.5055C280.2 27.3046 287.233 21.918 292.045 16.3456V16.1599C296.302 14.3024 305 11.5163 304.075 7.05837C303.149 3.15772 298.893 4.27219 296.857 6.12964C297.597 3.15772 295.376 -1.8574 291.86 -0.371435C286.678 1.85751 290.009 11.702 290.379 15.9741C284.457 22.4752 275.203 28.9763 263.914 35.1059C264.839 31.2052 265.209 26.1901 265.024 20.9893C266.135 18.0173 270.021 14.1167 270.206 11.1448C270.391 7.80135 266.505 6.12964 264.839 9.6588C263.544 3.71496 256.141 4.27219 256.326 8.73008C256.511 13.3737 261.508 16.7171 263.544 20.0605C263.914 26.0044 263.359 31.7625 262.248 35.6631C249.848 42.3499 235.228 48.6653 220.052 54.0519C221.902 51.6372 222.643 49.7798 223.753 46.8078C223.938 46.4363 223.753 46.0648 223.383 46.0648C223.013 45.8791 222.643 46.0649 222.643 46.4363C221.347 49.9655 220.607 51.823 217.831 54.9806C210.243 57.5811 202.84 59.9957 195.252 62.2247C201.544 55.7236 209.132 44.9504 213.944 35.6631C217.09 32.5055 219.681 32.134 221.532 30.0908C224.493 26.9331 221.162 22.1037 217.831 24.3327C218.016 18.7603 212.093 15.6026 209.317 20.2463C206.911 24.3327 212.464 30.2765 212.649 35.1059C207.652 44.9504 199.323 56.4666 193.031 62.7819C192.846 57.2096 192.106 51.4515 190.81 45.8791C192.106 41.0497 193.216 36.4061 191.55 33.9914C189.885 31.5767 186.553 32.3197 186.739 35.2916C182.852 30.2765 176.374 32.5055 178.225 37.1491C179.706 41.0497 185.813 41.9785 189.515 45.5076C190.995 51.4515 191.735 57.3953 191.921 63.3391C177.485 67.4255 163.789 70.3975 152.685 72.0692C152.315 72.0692 152.13 72.4407 152.13 72.8122C152.13 73.1836 152.5 73.3694 152.87 73.3694C164.16 71.6977 178.04 68.7258 192.661 64.4536C195.992 65.3823 199.694 67.0541 202.655 68.54C206.171 72.6264 211.908 81.7279 216.35 78.1988C219.311 75.7841 215.98 69.6545 212.464 68.54C214.685 68.54 216.72 66.4968 215.425 64.2679C213.019 60.1815 206.541 65.5681 201.914 66.6826C199.879 65.5681 197.288 64.6394 195.067 63.7106C202.84 61.4817 210.798 58.8813 218.571 56.0951C224.678 58.8813 233.192 65.1966 237.078 70.5832C237.634 74.2981 236.708 79.499 238.189 82.6566C240.78 89.1577 248.553 84.1426 245.962 77.0843Z" fill="#3C8323"/>
<path d="M166.381 22.2895C164.53 20.4321 162.309 19.6891 160.088 19.8748C158.423 18.9461 156.202 18.3889 154.536 18.2031C153.981 18.2031 153.056 18.2031 151.575 18.2031C151.945 18.2031 152.5 18.5746 152.685 18.5746C151.02 18.3889 149.909 19.1318 148.614 19.3176C151.575 19.8748 152.685 18.5746 154.536 20.6178C153.426 19.8748 152.5 20.2463 150.835 20.0606C153.241 21.175 154.536 21.7323 153.981 22.661C151.76 25.4472 151.39 28.9763 150.465 30.648C149.909 32.134 149.354 32.5055 148.059 33.4342C145.838 35.1059 143.432 36.9634 141.211 40.1211C138.62 43.6502 136.214 48.2938 135.844 50.337C135.474 52.1945 133.808 56.6524 133.068 59.4385C133.993 57.9526 134.548 57.5811 134.918 56.8381C133.808 58.8813 132.327 62.782 131.587 65.1966C131.587 65.3824 131.402 67.0541 131.402 67.7971C131.772 67.6113 135.289 62.5962 137.139 61.6675C136.029 63.1535 130.847 70.769 128.626 74.4839L126.96 77.2701C126.22 78.5703 123.629 83.5854 122.889 85.0714C122.889 85.2571 123.999 84.5141 125.48 83.9569C125.48 83.9569 126.96 83.3997 128.071 83.0282C128.071 83.0282 130.662 78.756 131.957 76.5271C133.068 74.2982 135.844 70.3975 136.954 68.9115C138.065 67.4256 141.211 65.0109 142.136 64.6394C142.506 64.4537 144.542 64.6394 144.542 64.6394C145.282 66.1254 144.172 69.8403 144.172 70.2118C143.987 70.9547 143.617 71.3262 142.877 72.4407C142.136 73.3694 142.691 75.4126 142.691 75.4126C142.877 74.6696 142.877 73.7409 143.617 73.1837C144.172 72.6265 144.912 71.8835 145.653 71.6977C146.393 71.512 146.948 71.6977 147.873 71.6977C148.244 71.6977 149.539 72.0692 149.539 72.0692C148.799 70.5833 148.059 70.769 146.763 70.2118C145.653 69.6545 145.653 66.1254 146.578 64.6394C148.059 64.4537 149.539 64.2679 150.835 63.8964C154.166 64.8252 156.572 69.0973 156.387 70.026C156.202 71.3262 155.276 72.0692 155.091 72.255C154.721 72.8122 154.166 73.5552 154.536 75.0411C154.721 74.2982 155.091 73.3694 155.647 72.9979C156.202 72.6265 156.572 72.4407 156.942 72.255C157.497 71.8835 158.423 71.6977 158.978 71.6977C159.533 71.6977 160.458 72.0692 160.458 72.0692L161.384 72.6264C161.384 72.6264 161.199 72.0692 160.644 71.3262C160.273 70.769 158.978 70.9548 158.052 70.026C156.572 68.5401 153.981 64.8252 154.351 62.039C156.757 60.3673 159.348 57.7668 160.829 55.7236L161.569 54.7949C163.605 51.6373 164.715 48.1081 165.085 46.0649C165.826 42.9072 166.011 41.7928 166.196 39.7496C166.196 39.1923 166.381 38.0779 166.381 37.7064C166.381 37.3349 166.381 36.9634 166.381 36.5919V35.8489C166.381 33.9915 166.381 32.877 167.121 30.4623C167.491 28.9763 167.861 27.3046 168.046 25.2614C168.417 24.7042 168.972 23.9612 169.342 23.2182C168.417 22.661 167.306 22.2895 166.381 22.2895Z" fill="#F5D58F"/>
</g>
<defs>
<clipPath id="clip0">
<rect width="305" height="86" fill="white"/>
</clipPath>
</defs>
</svg>
