<svg width="253" height="72" viewBox="0 0 253 72" fill="none" xmlns="http://www.w3.org/2000/svg">
<g clip-path="url(#clip0)">
<path d="M48.9725 64.5353C47.2838 65.9348 44.981 63.9132 45.9021 61.7361C46.9767 59.4035 53.271 59.4035 56.0344 58.315C59.2583 54.1163 65.2456 49.7621 69.8511 47.2739C63.7104 46.6519 53.7316 46.4964 44.674 48.0515C41.4501 51.1616 39.1473 58.1595 36.0769 57.3819C32.5459 56.4489 33.3135 50.5396 37.305 48.207C34.2346 47.4294 34.5417 43.5417 38.0726 43.2307C40.836 43.0752 42.6782 45.8744 45.5951 46.8074C53.271 45.5633 61.4076 45.5633 67.3948 45.8744C55.7274 41.5201 44.5204 36.6994 34.8487 31.4122C34.6952 31.4122 34.5417 31.4122 34.3882 31.4122C27.0192 27.68 17.6545 24.8808 9.3645 23.7923C5.98707 26.2804 3.8378 31.7232 0.613891 29.5461C-1.07482 28.4575 -0.767784 24.2588 2.91668 22.5482C1.68853 22.2372 -0.307225 20.6821 0.306852 19.2826C1.84205 16.1724 7.52226 20.0601 9.67154 22.7037C15.5053 23.4813 21.9531 25.0364 27.7868 27.2135C21.032 23.3258 15.0447 18.816 11.0532 14.1508V13.9953C7.52226 12.4402 0.306852 10.1076 1.07445 6.37544C1.84205 3.10979 5.37299 4.04283 7.06171 5.75341C6.44763 3.26529 8.28986 -0.933411 11.2067 0.155141C15.5053 2.02123 12.7419 10.4186 12.2814 13.9953C17.194 19.4381 24.87 24.8808 34.2346 30.0126C33.467 26.7469 33.16 22.5482 33.3135 18.194C32.2389 15.7059 29.015 12.4402 28.8615 9.95212C28.7079 7.15298 31.9318 5.75341 33.3135 8.70806C34.3882 3.73182 40.5289 4.19834 40.3754 7.93052C40.2219 11.8182 36.0769 14.6173 34.3882 17.4165C34.2346 22.3927 34.5417 27.2135 35.4628 30.4791C45.7486 36.0774 57.8766 41.3646 70.4652 45.8744C68.93 43.8528 68.3159 42.2977 67.3948 39.8096C67.2413 39.4986 67.3948 39.1875 67.7019 39.1875C68.0089 39.032 68.3159 39.1875 68.3159 39.4986C69.3906 42.4532 70.0047 44.0083 72.3074 46.6519C78.6017 48.829 84.7425 50.8506 91.0368 52.7167C85.8172 47.2739 79.5229 38.2545 75.5314 30.4791C72.9215 27.8355 70.7723 27.5245 69.2371 25.8139C66.7807 23.1703 69.5441 19.1271 72.3074 20.9932C72.1539 16.3279 77.0666 13.6843 79.3693 17.572C81.3651 20.9932 76.7595 25.9694 76.606 30.0126C80.751 38.2545 87.6594 47.896 92.879 53.1832C93.0326 48.518 93.6466 43.6973 94.7213 39.032C93.6466 34.9888 92.7255 31.1011 94.1072 29.0795C95.4889 27.0579 98.2522 27.68 98.0987 30.1681C101.323 25.9694 106.696 27.8355 105.161 31.7232C103.932 34.9888 98.8663 35.7664 95.7959 38.721C94.5678 43.6973 93.9537 48.6735 93.8002 53.6497C105.775 57.0709 117.135 59.559 126.346 60.9586C126.653 60.9586 126.807 61.2696 126.807 61.5806C126.807 61.8916 126.5 62.0471 126.193 62.0471C116.675 60.4921 105.161 57.8484 93.0326 54.4273C90.2692 55.2048 87.1988 56.6044 84.7425 57.8484C81.8257 61.2696 77.0666 68.8895 73.3821 65.9348C70.9258 63.9132 73.6891 58.7815 76.606 57.8484C74.7638 57.8484 73.075 56.1379 74.1497 54.2718C76.299 50.8506 81.5186 55.3603 85.3566 56.2934C87.0453 55.3603 89.1946 54.5828 91.0368 53.8052C84.589 51.9392 77.9877 49.7621 71.5398 47.4294C66.4737 49.7621 59.4118 55.0493 56.1879 59.559C55.7274 62.6692 56.495 67.0234 55.2668 69.667C53.271 74.6433 46.8232 70.4446 48.9725 64.5353Z" fill="#FFB30F"/>
<path d="M204.027 64.5359C205.715 65.9355 208.018 63.9139 207.097 61.7368C206.022 59.4041 199.728 59.4041 196.965 58.3156C193.741 54.1169 187.754 49.7627 183.148 47.2746C189.289 46.6525 199.268 46.497 208.325 48.0521C211.549 51.1622 213.852 58.1601 216.922 57.3825C220.453 56.4495 219.686 50.5402 215.694 48.2076C218.765 47.4301 218.458 43.5424 214.927 43.2314C212.163 43.0758 210.321 45.875 207.404 46.808C199.728 45.564 191.592 45.564 185.604 45.875C197.272 41.5208 208.479 36.7 218.151 31.4128C218.304 31.4128 218.458 31.4128 218.611 31.4128C225.98 27.6806 235.345 24.8815 243.635 23.7929C247.012 26.281 249.161 31.7238 252.385 29.5467C254.074 28.4581 253.767 24.2594 250.083 22.5488C251.311 22.2378 253.306 20.6828 252.692 19.2832C251.157 16.173 245.477 20.0607 243.328 22.7044C237.494 23.4819 231.046 25.037 225.212 27.2141C232.428 22.8599 238.262 18.3501 242.253 13.6849V13.5294C245.784 11.9743 252.999 9.64172 252.232 5.90954C251.464 2.64388 247.933 3.57692 246.245 5.132C246.859 2.64388 245.016 -1.55483 242.1 -0.310764C237.801 1.55533 240.564 9.79723 240.871 13.3739C235.959 18.8167 228.283 24.2594 218.918 29.3912C219.686 26.1255 219.993 21.9268 219.839 17.5726C220.76 15.0845 223.984 11.8188 224.138 9.33071C224.291 6.53157 221.067 5.132 219.686 8.08664C218.611 3.1104 212.47 3.57692 212.624 7.30911C212.777 11.1968 216.922 13.9959 218.611 16.7951C218.918 21.7713 218.458 26.592 217.536 29.8577C207.251 35.456 195.123 40.7432 182.534 45.253C184.069 43.2314 184.683 41.6763 185.604 39.1882C185.758 38.8771 185.604 38.5661 185.297 38.5661C184.99 38.4106 184.683 38.5661 184.683 38.8771C183.609 41.8318 182.995 43.3869 180.692 46.0305C174.397 48.2076 168.257 50.2292 161.962 52.0953C167.182 46.6525 173.476 37.6331 177.468 29.8577C180.078 27.2141 182.227 26.9031 183.762 25.1925C186.218 22.5489 183.455 18.5057 180.692 20.3717C180.845 15.7065 175.933 13.0629 173.63 16.9506C171.634 20.3717 176.24 25.348 176.393 29.3912C172.248 37.6331 165.34 47.2746 160.12 52.5618C159.967 47.8966 159.353 43.0759 158.278 38.4106C159.353 34.3674 160.274 30.4797 158.892 28.4581C157.51 26.4365 154.747 27.0586 154.901 29.5467C151.677 25.348 146.303 27.2141 147.839 31.1018C149.067 34.3674 154.133 35.145 157.203 38.0996C158.431 43.0759 159.046 48.0521 159.199 53.0283C147.225 56.4495 135.864 58.9376 126.653 60.3372C126.346 60.3372 126.192 60.6482 126.192 60.9592C126.192 61.2702 126.499 61.4257 126.806 61.4257C136.171 60.0262 147.685 57.5381 159.813 53.9614C162.576 54.7389 165.647 56.1385 168.103 57.3825C171.02 60.8037 175.779 68.4236 179.464 65.4689C181.92 63.4473 179.157 58.3156 176.24 57.3825C178.082 57.3825 179.771 55.672 178.696 53.8059C176.7 50.3847 171.327 54.8944 167.489 55.8275C165.8 54.8944 163.651 54.1169 161.809 53.3393C168.257 51.4733 174.858 49.2962 181.306 46.9635C186.372 49.2962 193.434 54.5834 196.658 59.0931C197.118 62.2033 196.351 66.5575 197.579 69.2011C199.728 74.6439 206.176 70.4452 204.027 64.5359Z" fill="#FFB30F"/>
<path d="M138.014 18.6604C136.478 17.1053 134.636 16.4833 132.794 16.6388C131.412 15.8613 129.57 15.3948 128.188 15.2393C127.728 15.2393 126.96 15.2393 125.732 15.2393C126.039 15.2393 126.5 15.5503 126.653 15.5503C125.271 15.3948 124.35 16.0168 123.276 16.1723C125.732 16.6388 126.653 15.5503 128.188 17.2609C127.267 16.6388 126.5 16.9498 125.118 16.7943C127.114 17.7274 128.188 18.1939 127.728 18.9714C125.886 21.3041 125.578 24.2587 124.811 25.6583C124.35 26.9023 123.89 27.2133 122.815 27.9909C120.973 29.3904 118.977 30.9455 117.135 33.5892C114.986 36.5438 112.99 40.4315 112.683 42.1421C112.376 43.6971 110.994 47.4293 110.38 49.7619C111.148 48.5179 111.608 48.2069 111.915 47.5848C110.994 49.2954 109.766 52.5611 109.152 54.5827C109.152 54.7382 108.998 56.1377 108.998 56.7598C109.305 56.6043 112.222 52.4056 113.758 51.628C112.836 52.8721 108.538 59.2479 106.696 62.358L105.314 64.6907C104.7 65.7792 102.551 69.9779 101.937 71.222C101.937 71.3775 102.858 70.7555 104.086 70.2889C104.086 70.2889 105.314 69.8224 106.235 69.5114C106.235 69.5114 108.384 65.9347 109.459 64.0686C110.38 62.2025 112.683 58.9369 113.604 57.6928C114.525 56.4488 117.135 54.4272 117.903 54.1161C118.21 53.9606 119.898 54.1161 119.898 54.1161C120.512 55.3602 119.591 58.4704 119.591 58.7814C119.438 59.4034 119.131 59.7144 118.517 60.6475C117.903 61.425 118.363 63.1356 118.363 63.1356C118.517 62.5136 118.517 61.736 119.131 61.2695C119.591 60.803 120.205 60.1809 120.819 60.0254C121.433 59.8699 121.894 60.0254 122.662 60.0254C122.969 60.0254 124.043 60.3365 124.043 60.3365C123.429 59.0924 122.815 59.2479 121.741 58.7814C120.819 58.3149 120.819 55.3602 121.587 54.1161C122.815 53.9606 124.043 53.8051 125.118 53.4941C127.881 54.2717 129.877 57.8483 129.724 58.6259C129.57 59.7144 128.802 60.3365 128.649 60.492C128.342 60.9585 127.881 61.5805 128.188 62.8246C128.342 62.2025 128.649 61.425 129.109 61.114C129.57 60.803 129.877 60.6475 130.184 60.492C130.645 60.1809 131.412 60.0254 131.873 60.0254C132.333 60.0254 133.101 60.3365 133.101 60.3365L133.869 60.803C133.869 60.803 133.715 60.3365 133.254 59.7144C132.947 59.2479 131.873 59.4034 131.105 58.6259C129.877 57.3818 127.728 54.2717 128.035 51.939C130.031 50.5395 132.18 48.3624 133.408 46.6518L134.022 45.8742C135.711 43.2306 136.632 40.276 136.939 38.5654C137.553 35.9218 137.707 34.9887 137.86 33.2781C137.86 32.8116 138.014 31.8786 138.014 31.5676C138.014 31.2565 138.014 30.9455 138.014 30.6345V30.0125C138.014 28.4574 138.014 27.5244 138.628 25.5028C138.935 24.2587 139.242 22.8591 139.395 21.1485C139.702 20.682 140.163 20.06 140.47 19.438C139.702 18.9714 138.781 18.6604 138.014 18.6604Z" fill="#7ABF62"/>
</g>
<defs>
<clipPath id="clip0">
<rect width="253" height="72" fill="white"/>
</clipPath>
</defs>
</svg>
