<svg width="21" height="21" viewBox="0 0 21 21" fill="none" xmlns="http://www.w3.org/2000/svg">
<rect x="1.50195" y="6.49805" width="17" height="12" stroke="#848484"/>
<rect x="0.5" y="-0.5" width="17" height="2" transform="matrix(1 0 0 -1 1.00195 5.99805)" stroke="#848484"/>
<rect x="3.00195" y="7.99805" width="2" height="2" fill="#848484"/>
<rect x="7.00195" y="7.99805" width="2" height="2" fill="#848484"/>
<rect x="11.002" y="7.99805" width="2" height="2" fill="#848484"/>
<rect x="15.002" y="7.99805" width="2" height="2" fill="#848484"/>
<rect x="3.00195" y="10.998" width="2" height="2" fill="#848484"/>
<rect x="7.00195" y="10.998" width="2" height="2" fill="#848484"/>
<rect x="11.002" y="10.998" width="2" height="2" fill="#848484"/>
<rect x="15.002" y="10.998" width="2" height="2" fill="#848484"/>
<rect x="3.00195" y="13.998" width="2" height="2" fill="#848484"/>
<rect x="7.00195" y="13.998" width="2" height="2" fill="#848484"/>
<rect x="11.002" y="13.998" width="2" height="2" fill="#848484"/>
<rect x="3.00195" y="1.99805" width="2" height="2" fill="#848484"/>
<rect x="15.002" y="1.99805" width="2" height="2" fill="#848484"/>
</svg>
