<svg width="20" height="20" viewBox="0 0 20 20" fill="none" xmlns="http://www.w3.org/2000/svg">
<rect x="1.5" y="5.5" width="17" height="12" stroke="#D83603"/>
<rect x="0.5" y="-0.5" width="17" height="2" transform="matrix(1 0 0 -1 1 5)" stroke="#D83603"/>
<rect x="3" y="7" width="2" height="2" fill="#D83603"/>
<rect x="7" y="7" width="2" height="2" fill="#D83603"/>
<rect x="11" y="7" width="2" height="2" fill="#D83603"/>
<rect x="15" y="7" width="2" height="2" fill="#D83603"/>
<rect x="3" y="10" width="2" height="2" fill="#D83603"/>
<rect x="7" y="10" width="2" height="2" fill="#D83603"/>
<rect x="11" y="10" width="2" height="2" fill="#D83603"/>
<rect x="15" y="10" width="2" height="2" fill="#D83603"/>
<rect x="3" y="13" width="2" height="2" fill="#D83603"/>
<rect x="7" y="13" width="2" height="2" fill="#D83603"/>
<rect x="11" y="13" width="2" height="2" fill="#D83603"/>
<rect x="3" y="1" width="2" height="2" fill="#D83603"/>
<rect x="15" y="1" width="2" height="2" fill="#D83603"/>
</svg>
