<svg width="30" height="30" viewBox="0 0 30 30" fill="none" xmlns="http://www.w3.org/2000/svg">
<path fill-rule="evenodd" clip-rule="evenodd" d="M21.3458 22.5C21.6645 22.8187 22.1811 22.8187 22.4997 22.5C22.8183 22.1814 22.8183 21.6648 22.4997 21.3462L16.1535 15L22.4997 8.65375C22.8183 8.33512 22.8183 7.81853 22.4997 7.4999C22.1811 7.18127 21.6645 7.18127 21.3458 7.4999L14.9996 13.8461L8.65353 7.50004C8.3349 7.18142 7.81831 7.18142 7.49968 7.50004C7.18106 7.81867 7.18106 8.33526 7.49968 8.65389L13.8458 15L7.49969 21.3461C7.18106 21.6647 7.18106 22.1813 7.49969 22.4999C7.81831 22.8185 8.33491 22.8185 8.65353 22.4999L14.9996 16.1538L21.3458 22.5Z" fill="#F5A88F"/>
</svg>
