<svg width="80" height="80" viewBox="0 0 80 80" fill="none" xmlns="http://www.w3.org/2000/svg">
<g clip-path="url(#clip0)">
<mask id="path-2-inside-1" fill="white">
<path d="M56.1739 11.2837L52.0206 12.0812L51.4224 8.96622C51.3122 8.39229 50.7587 8.01706 50.1847 8.12726C49.6108 8.23747 49.2356 8.79103 49.3458 9.36496L49.9439 12.4799L35.4073 15.2711L34.8092 12.1561C34.699 11.5822 34.1454 11.207 33.5715 11.3172C32.9976 11.4274 32.6223 11.981 32.7325 12.5549L33.3306 15.6699L18.794 18.4611L18.1959 15.3461C18.0857 14.7721 17.5322 14.3969 16.9582 14.5071C16.3843 14.6173 16.0091 15.1709 16.1193 15.7448L16.7174 18.8598L12.5641 19.6573C9.12357 20.3179 6.86991 23.644 7.53033 27.0835L15.5051 68.6166C16.1656 72.0561 19.4908 74.311 22.9313 73.6504L66.5411 65.2768C69.9806 64.6164 72.2353 61.2901 71.5749 57.8506L63.6001 16.3175C62.9396 12.878 59.6133 10.6233 56.1739 11.2837ZM9.60698 26.6847C9.16697 24.3931 10.6723 22.1738 12.9628 21.7339L17.1161 20.9365L17.7142 24.0514C17.8244 24.6254 18.378 25.0006 18.9519 24.8904C19.5259 24.7802 19.9011 24.2266 19.7909 23.6527L19.1928 20.5377L33.7294 17.7465L34.3275 20.8615C34.4377 21.4355 34.9913 21.8107 35.5652 21.7005C36.1391 21.5903 36.5144 21.0367 36.4041 20.4628L35.806 17.3478L50.3426 14.5566L50.9407 17.6716C51.051 18.2455 51.6045 18.6207 52.1784 18.5105C52.7524 18.4003 53.1276 17.8468 53.0174 17.2728L52.4193 14.1579L56.5726 13.3604C58.8642 12.9204 61.0834 14.4246 61.5234 16.7162L62.3209 20.8695L10.4045 30.8381L9.60698 26.6847ZM66.1424 63.2001L22.5326 71.5737C20.4134 71.9806 18.3742 70.7131 17.7291 68.7111C19.013 69.4675 20.5551 69.8002 22.1339 69.497L65.7436 61.1235C67.3214 60.8205 68.6327 59.94 69.544 58.762C69.6863 60.8606 68.2616 62.7932 66.1424 63.2001ZM68.7007 54.096C69.1407 56.3876 67.6365 58.6068 65.3449 59.0468L21.7351 67.4204C19.4446 67.8602 17.2243 66.3562 16.7843 64.0646L10.8032 32.9147L62.7196 22.9462L68.7007 54.096ZM57.2871 28.2957L17.8307 35.8718C16.6838 36.092 15.9323 37.1993 16.1527 38.3472L20.5389 61.1904C20.7593 62.3383 21.8675 63.0885 23.0143 62.8683L41.7042 59.2797L43.7809 58.8809L52.0875 57.286L54.1641 56.8872L62.4708 55.2923C63.6186 55.0719 64.3691 53.9647 64.1487 52.8169L59.7625 29.9736C59.5421 28.8258 58.435 28.0753 57.2871 28.2957ZM47.3026 32.3661L48.4988 38.5961L40.1922 40.191L38.996 33.961L47.3026 32.3661ZM40.5909 42.2677L48.8976 40.6727L50.0938 46.9027L41.7872 48.4976L40.5909 42.2677ZM39.7105 48.8964L31.4039 50.4913L30.2076 44.2614L38.5143 42.6664L39.7105 48.8964ZM36.9193 34.3598L38.1155 40.5898L29.8089 42.1847L28.6127 35.9548L36.9193 34.3598ZM18.3914 38.7921C18.3018 38.3256 18.6066 37.876 19.073 37.7865L26.536 36.3535L27.7322 42.5835L19.4256 44.1784L18.3914 38.7921ZM19.8244 46.2551L28.131 44.6601L29.3272 50.8901L21.0206 52.4851L19.8244 46.2551ZM23.4592 60.6297C22.9927 60.7193 22.5431 60.4145 22.4536 59.948L21.4193 54.5617L29.726 52.9667L30.9222 59.1967L23.4592 60.6297ZM32.9988 58.798L31.8026 52.568L40.1092 50.973L41.3055 57.203L32.9988 58.798ZM43.3821 56.8043L42.1859 50.5743L50.4925 48.9793L51.6887 55.2093L43.3821 56.8043ZM61.91 52.372C61.9996 52.8384 61.6949 53.288 61.2284 53.3776L53.7654 54.8106L52.5692 48.5806L60.8758 46.9856L61.91 52.372ZM60.4771 44.909L52.1704 46.5039L50.9742 40.274L59.2808 38.679L60.4771 44.909ZM58.8821 36.6023L50.5755 38.1973L49.3792 31.9673L56.8422 30.5344C57.3087 30.4448 57.7583 30.7495 57.8479 31.216L58.8821 36.6023Z"/>
</mask>
<path d="M56.1739 11.2837L52.0206 12.0812L51.4224 8.96622C51.3122 8.39229 50.7587 8.01706 50.1847 8.12726C49.6108 8.23747 49.2356 8.79103 49.3458 9.36496L49.9439 12.4799L35.4073 15.2711L34.8092 12.1561C34.699 11.5822 34.1454 11.207 33.5715 11.3172C32.9976 11.4274 32.6223 11.981 32.7325 12.5549L33.3306 15.6699L18.794 18.4611L18.1959 15.3461C18.0857 14.7721 17.5322 14.3969 16.9582 14.5071C16.3843 14.6173 16.0091 15.1709 16.1193 15.7448L16.7174 18.8598L12.5641 19.6573C9.12357 20.3179 6.86991 23.644 7.53033 27.0835L15.5051 68.6166C16.1656 72.0561 19.4908 74.311 22.9313 73.6504L66.5411 65.2768C69.9806 64.6164 72.2353 61.2901 71.5749 57.8506L63.6001 16.3175C62.9396 12.878 59.6133 10.6233 56.1739 11.2837ZM9.60698 26.6847C9.16697 24.3931 10.6723 22.1738 12.9628 21.7339L17.1161 20.9365L17.7142 24.0514C17.8244 24.6254 18.378 25.0006 18.9519 24.8904C19.5259 24.7802 19.9011 24.2266 19.7909 23.6527L19.1928 20.5377L33.7294 17.7465L34.3275 20.8615C34.4377 21.4355 34.9913 21.8107 35.5652 21.7005C36.1391 21.5903 36.5144 21.0367 36.4041 20.4628L35.806 17.3478L50.3426 14.5566L50.9407 17.6716C51.051 18.2455 51.6045 18.6207 52.1784 18.5105C52.7524 18.4003 53.1276 17.8468 53.0174 17.2728L52.4193 14.1579L56.5726 13.3604C58.8642 12.9204 61.0834 14.4246 61.5234 16.7162L62.3209 20.8695L10.4045 30.8381L9.60698 26.6847ZM66.1424 63.2001L22.5326 71.5737C20.4134 71.9806 18.3742 70.7131 17.7291 68.7111C19.013 69.4675 20.5551 69.8002 22.1339 69.497L65.7436 61.1235C67.3214 60.8205 68.6327 59.94 69.544 58.762C69.6863 60.8606 68.2616 62.7932 66.1424 63.2001ZM68.7007 54.096C69.1407 56.3876 67.6365 58.6068 65.3449 59.0468L21.7351 67.4204C19.4446 67.8602 17.2243 66.3562 16.7843 64.0646L10.8032 32.9147L62.7196 22.9462L68.7007 54.096ZM57.2871 28.2957L17.8307 35.8718C16.6838 36.092 15.9323 37.1993 16.1527 38.3472L20.5389 61.1904C20.7593 62.3383 21.8675 63.0885 23.0143 62.8683L41.7042 59.2797L43.7809 58.8809L52.0875 57.286L54.1641 56.8872L62.4708 55.2923C63.6186 55.0719 64.3691 53.9647 64.1487 52.8169L59.7625 29.9736C59.5421 28.8258 58.435 28.0753 57.2871 28.2957ZM47.3026 32.3661L48.4988 38.5961L40.1922 40.191L38.996 33.961L47.3026 32.3661ZM40.5909 42.2677L48.8976 40.6727L50.0938 46.9027L41.7872 48.4976L40.5909 42.2677ZM39.7105 48.8964L31.4039 50.4913L30.2076 44.2614L38.5143 42.6664L39.7105 48.8964ZM36.9193 34.3598L38.1155 40.5898L29.8089 42.1847L28.6127 35.9548L36.9193 34.3598ZM18.3914 38.7921C18.3018 38.3256 18.6066 37.876 19.073 37.7865L26.536 36.3535L27.7322 42.5835L19.4256 44.1784L18.3914 38.7921ZM19.8244 46.2551L28.131 44.6601L29.3272 50.8901L21.0206 52.4851L19.8244 46.2551ZM23.4592 60.6297C22.9927 60.7193 22.5431 60.4145 22.4536 59.948L21.4193 54.5617L29.726 52.9667L30.9222 59.1967L23.4592 60.6297ZM32.9988 58.798L31.8026 52.568L40.1092 50.973L41.3055 57.203L32.9988 58.798ZM43.3821 56.8043L42.1859 50.5743L50.4925 48.9793L51.6887 55.2093L43.3821 56.8043ZM61.91 52.372C61.9996 52.8384 61.6949 53.288 61.2284 53.3776L53.7654 54.8106L52.5692 48.5806L60.8758 46.9856L61.91 52.372ZM60.4771 44.909L52.1704 46.5039L50.9742 40.274L59.2808 38.679L60.4771 44.909ZM58.8821 36.6023L50.5755 38.1973L49.3792 31.9673L56.8422 30.5344C57.3087 30.4448 57.7583 30.7495 57.8479 31.216L58.8821 36.6023Z" fill="black" stroke="black" stroke-width="2" mask="url(#path-2-inside-1)"/>
</g>
<defs>
<clipPath id="clip0">
<path d="M0.585938 13.3447L67.039 0.585015L79.7987 67.038L13.3456 79.7977L0.585938 13.3447Z" fill="white"/>
</clipPath>
</defs>
</svg>
