<svg width="16" height="17" viewBox="0 0 16 17" fill="none" xmlns="http://www.w3.org/2000/svg">
<path d="M12.0243 14.3835C12.3117 14.3835 12.5447 14.1507 12.5447 13.8636C12.5447 13.5765 12.3117 13.3438 12.0243 13.3438C11.7369 13.3438 11.5039 13.5765 11.5039 13.8636C11.5039 14.1507 11.7369 14.3835 12.0243 14.3835Z" fill="#FFC839"/>
<path d="M2.6571 12.8229C2.9445 12.8229 3.17749 12.5902 3.17749 12.3031C3.17749 12.016 2.9445 11.7832 2.6571 11.7832C2.3697 11.7832 2.13672 12.016 2.13672 12.3031C2.13672 12.5902 2.3697 12.8229 2.6571 12.8229Z" fill="#FFC839"/>
<path d="M2.6571 3.11884C2.9445 3.11884 3.17749 2.88609 3.17749 2.59897C3.17749 2.31185 2.9445 2.0791 2.6571 2.0791C2.3697 2.0791 2.13672 2.31185 2.13672 2.59897C2.13672 2.88609 2.3697 3.11884 2.6571 3.11884Z" fill="#FFC839"/>
<path d="M1.96374 9.18427C2.25114 9.18427 2.48413 8.95151 2.48413 8.6644C2.48413 8.37728 2.25114 8.14453 1.96374 8.14453C1.67634 8.14453 1.44336 8.37728 1.44336 8.6644C1.44336 8.95151 1.67634 9.18427 1.96374 9.18427Z" fill="#D83603"/>
<path d="M14.452 6.75849C14.7394 6.75849 14.9724 6.52574 14.9724 6.23862C14.9724 5.9515 14.7394 5.71875 14.452 5.71875C14.1646 5.71875 13.9316 5.9515 13.9316 6.23862C13.9316 6.52574 14.1646 6.75849 14.452 6.75849Z" fill="#FFC839"/>
<path d="M10.9833 4.67841C11.2707 4.67841 11.5037 4.44566 11.5037 4.15854C11.5037 3.87143 11.2707 3.63867 10.9833 3.63867C10.6959 3.63867 10.4629 3.87143 10.4629 4.15854C10.4629 4.44566 10.6959 4.67841 10.9833 4.67841Z" fill="#FFC839"/>
<path d="M9.08838 11.3815L10.0112 13.9133C10.0286 13.9843 10.0608 14.0508 10.1058 14.1085C10.1507 14.1663 10.2073 14.2139 10.2718 14.2482C10.3364 14.2826 10.4075 14.303 10.4805 14.3081C10.5535 14.3132 10.6268 14.3028 10.6955 14.2777C10.7642 14.2525 10.8269 14.2132 10.8793 14.1623C10.9318 14.1113 10.9729 14.0499 11 13.9819C11.0271 13.914 11.0396 13.8412 11.0366 13.7681C11.0335 13.6951 11.0152 13.6235 10.9826 13.558L10.065 11.0263C10.0443 10.9588 10.0102 10.8962 9.96452 10.8423C9.91888 10.7884 9.86274 10.7444 9.79951 10.7129C9.73629 10.6814 9.6673 10.663 9.59676 10.659C9.52622 10.655 9.4556 10.6654 9.38921 10.6896C9.32282 10.7137 9.26205 10.7511 9.2106 10.7995C9.15915 10.8479 9.1181 10.9062 9.08995 10.971C9.06181 11.0357 9.04715 11.1055 9.04688 11.1761C9.04661 11.2467 9.06073 11.3166 9.08838 11.3815Z" fill="#FFC839"/>
<path d="M11.4148 9.94728L13.7582 11.2937C13.8173 11.3352 13.8843 11.3639 13.955 11.3781C14.0257 11.3923 14.0986 11.3917 14.1691 11.3762C14.2396 11.3607 14.3061 11.3308 14.3643 11.2883C14.4226 11.2458 14.4714 11.1917 14.5076 11.1293C14.5438 11.067 14.5666 10.9978 14.5747 10.9262C14.5827 10.8546 14.5757 10.7821 14.5542 10.7133C14.5326 10.6445 14.497 10.5809 14.4496 10.5266C14.4022 10.4723 14.3439 10.4285 14.2786 10.3978L11.9352 9.04617C11.8156 8.97723 11.6734 8.95858 11.5401 8.99433C11.4067 9.03008 11.293 9.11729 11.224 9.23679C11.155 9.35628 11.1363 9.49827 11.1721 9.63151C11.2079 9.76475 11.2952 9.87834 11.4148 9.94728Z" fill="#FFC839"/>
<path d="M12.0235 7.34881L13.3071 7.05422C13.3737 7.03897 13.4367 7.01076 13.4924 6.9712C13.5481 6.93164 13.5955 6.88151 13.6318 6.82366C13.6681 6.76581 13.6927 6.70138 13.7041 6.63405C13.7155 6.56672 13.7135 6.4978 13.6982 6.43124C13.683 6.36468 13.6547 6.30177 13.6151 6.24611C13.5755 6.19044 13.5253 6.14312 13.4674 6.10683C13.4095 6.07055 13.345 6.04601 13.2776 6.03462C13.2102 6.02324 13.1413 6.02522 13.0746 6.04047L11.791 6.33506C11.6565 6.36586 11.5396 6.44879 11.4663 6.56562C11.3929 6.68245 11.369 6.82361 11.3999 6.95804C11.4307 7.09247 11.5137 7.20917 11.6306 7.28245C11.7476 7.35573 11.8889 7.3796 12.0235 7.34881Z" fill="#FFC839"/>
<path d="M12.3133 3.45328L13.165 2.41354C13.2106 2.36104 13.2452 2.29993 13.2668 2.23381C13.2884 2.1677 13.2965 2.09793 13.2906 2.02864C13.2847 1.95935 13.265 1.89194 13.2326 1.83041C13.2001 1.76887 13.1557 1.71446 13.1018 1.6704C13.048 1.62634 12.9858 1.59352 12.919 1.57389C12.8522 1.55425 12.7822 1.5482 12.713 1.55609C12.6439 1.56399 12.577 1.58566 12.5164 1.61983C12.4558 1.654 12.4026 1.69998 12.3601 1.75504L11.5084 2.79478C11.4627 2.84728 11.4281 2.90839 11.4065 2.97451C11.3849 3.04062 11.3768 3.11039 11.3827 3.17968C11.3886 3.24897 11.4084 3.31638 11.4408 3.37792C11.4732 3.43945 11.5177 3.49386 11.5715 3.53792C11.6254 3.58198 11.6875 3.6148 11.7543 3.63444C11.8211 3.65407 11.8911 3.66012 11.9603 3.65223C12.0295 3.64434 12.0963 3.62266 12.157 3.58849C12.2176 3.55432 12.2707 3.50834 12.3133 3.45328Z" fill="#FFC839"/>
<path d="M8.72827 2.94593V0.519869C8.72827 0.381992 8.67344 0.249761 8.57585 0.152266C8.47826 0.0547718 8.3459 0 8.20788 0C8.06987 0 7.93751 0.0547718 7.83992 0.152266C7.74233 0.249761 7.6875 0.381992 7.6875 0.519869V2.94593C7.6875 3.0838 7.74233 3.21604 7.83992 3.31353C7.93751 3.41102 8.06987 3.4658 8.20788 3.4658C8.3459 3.4658 8.47826 3.41102 8.57585 3.31353C8.67344 3.21604 8.72827 3.0838 8.72827 2.94593Z" fill="#FFC839"/>
<path d="M5.50556 3.59968L4.63825 2.55994C4.54954 2.45526 4.42302 2.38984 4.28624 2.37794C4.14946 2.36604 4.01352 2.40862 3.90803 2.4964C3.80254 2.58419 3.73605 2.71006 3.72304 2.8466C3.71004 2.98314 3.75157 3.11929 3.8386 3.22537L4.7059 4.26511C4.74944 4.31818 4.80307 4.36212 4.86369 4.39439C4.92431 4.42666 4.99072 4.44662 5.0591 4.45312C5.12748 4.45962 5.19647 4.45253 5.26209 4.43226C5.32772 4.412 5.38867 4.37895 5.44145 4.33503C5.49423 4.29111 5.53778 4.23719 5.56959 4.17638C5.60141 4.11556 5.62086 4.04906 5.62682 3.98069C5.63278 3.91233 5.62513 3.84347 5.60432 3.77808C5.58351 3.71268 5.54994 3.65205 5.50556 3.59968Z" fill="#FFC839"/>
<path d="M4.28747 6.34284L1.63004 5.87496C1.56133 5.86016 1.49032 5.85942 1.42131 5.87279C1.3523 5.88616 1.28672 5.91336 1.22852 5.95275C1.17032 5.99213 1.12071 6.04289 1.08269 6.10196C1.04467 6.16103 1.01902 6.22718 1.00729 6.29642C0.995565 6.36566 0.998002 6.43656 1.01446 6.50483C1.03091 6.57311 1.06104 6.63735 1.10303 6.69367C1.14502 6.74999 1.19799 6.79723 1.25876 6.83254C1.31952 6.86785 1.38682 6.89049 1.45658 6.8991L4.11228 7.36698C4.24525 7.38339 4.37944 7.34793 4.4869 7.26798C4.59436 7.18802 4.66681 7.06974 4.68917 6.93776C4.71152 6.80578 4.68206 6.67028 4.60691 6.55946C4.53176 6.44864 4.41672 6.37104 4.28574 6.34284" fill="#FFC839"/>
<path d="M4.28793 9.22567L2.3972 10.3157C2.27759 10.3846 2.19029 10.4982 2.1545 10.6314C2.11872 10.7647 2.13739 10.9067 2.20639 11.0262C2.2754 11.1456 2.3891 11.2329 2.52247 11.2686C2.65585 11.3044 2.79797 11.2857 2.91759 11.2168L4.80831 10.125C4.8705 10.0925 4.92547 10.0478 4.9699 9.99355C5.01434 9.93928 5.04733 9.87658 5.06688 9.80925C5.08643 9.74191 5.09215 9.67132 5.08369 9.60171C5.07523 9.53211 5.05276 9.46494 5.01764 9.40424C4.98251 9.34353 4.93546 9.29055 4.87931 9.24849C4.82316 9.20642 4.75908 9.17614 4.69091 9.15946C4.62274 9.14278 4.5519 9.14004 4.48265 9.15142C4.41339 9.1628 4.34716 9.18806 4.28793 9.22567Z" fill="#FFC839"/>
<path d="M6.33723 11.2364L5.41442 13.7681C5.39096 13.8323 5.38038 13.9005 5.38328 13.9687C5.38619 14.037 5.40252 14.104 5.43136 14.166C5.46019 14.2279 5.50095 14.2836 5.55132 14.3298C5.60169 14.376 5.66068 14.4119 5.72492 14.4353C5.78915 14.4588 5.85738 14.4693 5.92571 14.4664C5.99404 14.4635 6.06112 14.4472 6.12313 14.4184C6.18515 14.3896 6.24088 14.3489 6.28714 14.2985C6.33339 14.2482 6.36928 14.1893 6.39274 14.1251L7.31382 11.5916C7.3442 11.526 7.36055 11.4548 7.36182 11.3825C7.36309 11.3102 7.34925 11.2385 7.3212 11.1718C7.29314 11.1052 7.25149 11.0451 7.19889 10.9955C7.14628 10.9458 7.0839 10.9077 7.01571 10.8835C6.94752 10.8593 6.87503 10.8496 6.80286 10.855C6.7307 10.8603 6.66045 10.8807 6.5966 10.9147C6.53275 10.9487 6.47671 10.9957 6.43205 11.0525C6.38739 11.1094 6.3551 11.175 6.33723 11.245" fill="#FFC839"/>
<path d="M8.48889 9.35788L8.72827 16.4628C8.73055 16.531 8.71934 16.5991 8.69529 16.663C8.67125 16.727 8.63483 16.7856 8.58812 16.8354C8.54141 16.8853 8.48532 16.9255 8.42305 16.9538C8.36079 16.982 8.29357 16.9977 8.22523 17C8.15689 17.0022 8.08877 16.991 8.02477 16.967C7.96076 16.943 7.90212 16.9066 7.85218 16.8599C7.75134 16.7657 7.6921 16.6353 7.6875 16.4974V16.4628L7.92688 9.35788C7.92688 9.28342 7.95648 9.21202 8.00918 9.15937C8.06188 9.10673 8.13336 9.07715 8.20788 9.07715C8.28241 9.07715 8.35389 9.10673 8.40659 9.15937C8.45928 9.21202 8.48889 9.28342 8.48889 9.35788Z" fill="#D83603"/>
<path d="M9.67227 8.79132L12.6992 12.0232C12.746 12.0731 12.7825 12.1318 12.8066 12.1958C12.8307 12.2599 12.842 12.3281 12.8397 12.3964C12.8375 12.4648 12.8217 12.5321 12.7935 12.5944C12.7652 12.6567 12.7249 12.7129 12.6749 12.7597C12.6249 12.8064 12.5662 12.8429 12.5021 12.867C12.4379 12.8911 12.3697 12.9023 12.3013 12.9001C12.2328 12.8978 12.1655 12.8821 12.1031 12.8539C12.0407 12.8256 11.9845 12.7854 11.9377 12.7354L11.9013 12.6921L9.24903 9.15177C9.20118 9.09455 9.17805 9.02068 9.18472 8.94643C9.19139 8.87217 9.22731 8.8036 9.28459 8.7558C9.34186 8.708 9.4158 8.68489 9.49013 8.69156C9.56446 8.69822 9.6331 8.73411 9.68095 8.79132H9.67227Z" fill="#D83603"/>
<path d="M10.1401 7.55552L14.5391 8.08752C14.6771 8.10429 14.8028 8.17515 14.8885 8.28451C14.9742 8.39386 15.013 8.53276 14.9962 8.67064C14.9794 8.80851 14.9084 8.93408 14.799 9.01971C14.6895 9.10535 14.5505 9.14403 14.4125 9.12725L14.357 9.11686L10.0412 8.10831C9.96886 8.0914 9.90613 8.04653 9.8668 7.98352C9.82746 7.92051 9.81471 7.8445 9.83135 7.77213C9.84744 7.70457 9.88773 7.64524 9.94461 7.60533C10.0015 7.56542 10.071 7.5477 10.1401 7.55552Z" fill="#D83603"/>
<path d="M9.70291 6.30926L13.4115 3.89187C13.5263 3.8274 13.6614 3.80883 13.7894 3.8399C13.9173 3.87097 14.0288 3.94938 14.1012 4.05931C14.1736 4.16923 14.2016 4.30249 14.1795 4.43222C14.1574 4.56194 14.0869 4.67848 13.9822 4.75832L13.9319 4.78604L9.98565 6.7962C9.92157 6.82648 9.84844 6.8316 9.78076 6.81056C9.71307 6.78952 9.65577 6.74384 9.6202 6.68259C9.58463 6.62133 9.57339 6.54896 9.58871 6.47982C9.60403 6.41067 9.64479 6.3498 9.70291 6.30926Z" fill="#D83603"/>
<path d="M8.56836 5.63364L9.85544 1.39844C9.8957 1.26631 9.98684 1.15556 10.1088 1.09056C10.1692 1.05838 10.2354 1.0384 10.3035 1.03176C10.3717 1.02512 10.4404 1.03195 10.5059 1.05186C10.5714 1.07177 10.6323 1.10438 10.6852 1.14781C10.7381 1.19124 10.7819 1.24466 10.8141 1.305C10.8463 1.36534 10.8663 1.43143 10.873 1.4995C10.8796 1.56756 10.8728 1.63627 10.8528 1.7017C10.8528 1.71903 10.8407 1.73809 10.8338 1.75542L9.09915 5.82599C9.06631 5.88409 9.01384 5.9286 8.95113 5.95155C8.88842 5.97449 8.81959 5.97438 8.75695 5.95123C8.69432 5.92808 8.64199 5.88341 8.60934 5.82521C8.57669 5.76701 8.56585 5.6991 8.57877 5.63364H8.56836Z" fill="#D83603"/>
<path d="M7.26348 5.84646L5.52887 1.77415C5.50097 1.71115 5.48588 1.64325 5.48448 1.57438C5.48308 1.50551 5.4954 1.43704 5.52071 1.37297C5.54602 1.30889 5.58383 1.25048 5.63193 1.20113C5.68004 1.15178 5.73748 1.11247 5.80092 1.08549C5.86436 1.05851 5.93254 1.04439 6.00149 1.04396C6.07045 1.04352 6.1388 1.05679 6.20257 1.08297C6.26635 1.10916 6.32428 1.14774 6.373 1.19649C6.42172 1.24523 6.46026 1.30316 6.48638 1.36692C6.48638 1.38425 6.50025 1.40157 6.50719 1.4189L7.7908 5.65411C7.80372 5.71956 7.79288 5.78747 7.76023 5.84567C7.72758 5.90387 7.67525 5.94855 7.61262 5.9717C7.54998 5.99485 7.48115 5.99496 7.41844 5.97201C7.35573 5.94906 7.30326 5.90455 7.27042 5.84646H7.26348Z" fill="#D83603"/>
<path d="M6.39965 6.84657L2.44994 4.85201C2.32665 4.78973 2.23317 4.68108 2.19006 4.54995C2.14696 4.41882 2.15777 4.27595 2.2201 4.15278C2.28244 4.02961 2.3912 3.93622 2.52246 3.89316C2.65372 3.8501 2.79673 3.8609 2.92002 3.92317L2.97032 3.95263L6.68239 6.35963C6.74052 6.40017 6.78127 6.46104 6.79659 6.53018C6.81191 6.59933 6.80067 6.6717 6.76511 6.73295C6.72954 6.79421 6.67223 6.83989 6.60455 6.86093C6.53686 6.88197 6.46374 6.87685 6.39965 6.84657Z" fill="#D83603"/>
<path d="M6.38551 8.16707L3.34993 8.96594C3.28365 8.98335 3.21458 8.98754 3.14666 8.97829C3.07875 8.96903 3.01333 8.9465 2.95414 8.91198C2.89494 8.87746 2.84314 8.83164 2.80167 8.77712C2.7602 8.7226 2.72989 8.66046 2.71246 8.59423C2.69504 8.52801 2.69084 8.45901 2.70011 8.39117C2.70937 8.32332 2.73193 8.25797 2.76648 8.19883C2.80103 8.13969 2.8469 8.08794 2.90147 8.04651C2.95604 8.00508 3.01825 7.9748 3.08454 7.95739C3.11016 7.95037 3.13624 7.94516 3.1626 7.9418L6.2849 7.61428C6.35481 7.60839 6.42442 7.62868 6.48019 7.67121C6.53596 7.71373 6.57391 7.77545 6.58667 7.84437C6.59943 7.91329 6.58609 7.98449 6.54923 8.04413C6.51237 8.10377 6.45464 8.14759 6.38724 8.16707H6.38551Z" fill="#D83603"/>
<path d="M7.22142 9.18428L4.56573 12.7298C4.48269 12.8403 4.3591 12.9134 4.22215 12.9329C4.08519 12.9524 3.9461 12.9167 3.83546 12.8338C3.72481 12.7508 3.65169 12.6273 3.63217 12.4905C3.61265 12.3537 3.64834 12.2147 3.73138 12.1042L3.76781 12.0609L6.7895 8.8273C6.83976 8.78074 6.90524 8.754 6.97376 8.75207C7.04228 8.75013 7.10917 8.77313 7.16198 8.81678C7.2148 8.86043 7.24994 8.92176 7.26087 8.98936C7.27181 9.05696 7.25779 9.12623 7.22142 9.18428Z" fill="#D83603"/>
</svg>
