<svg width="12" height="16" viewBox="0 0 12 16" fill="none" xmlns="http://www.w3.org/2000/svg">
<path d="M6.61718 0.496094C6.85147 0.545941 7.08855 0.589925 7.32284 0.645637C9.3673 1.14118 11.0882 3.07938 11.4424 5.25215C11.6544 6.54233 11.4396 7.74454 10.8651 8.89104C10.4439 9.73259 9.89445 10.4862 9.34219 11.2339C8.42177 12.4859 7.50134 13.738 6.57813 14.9871C6.47214 15.1308 6.35779 15.2657 6.23228 15.3888C6.07608 15.5472 5.84458 15.5267 5.71907 15.3507C4.4249 13.5591 3.12515 11.7675 1.83934 9.96716C1.34008 9.2693 0.921707 8.51571 0.709731 7.66244C0.294145 5.99401 0.575851 4.437 1.49906 3.02074C2.40275 1.63673 3.66346 0.812773 5.24212 0.537145C5.30906 0.525416 5.376 0.510755 5.44573 0.496094C5.83621 0.496094 6.2267 0.496094 6.61718 0.496094ZM6.01751 14.7262C6.06492 14.6675 6.10676 14.6177 6.1486 14.562C6.96304 13.4536 7.77747 12.3423 8.5947 11.2339C9.14695 10.4862 9.71315 9.74725 10.1762 8.92916C10.7172 7.97032 11.0185 6.94991 10.9209 5.81807C10.8177 4.62759 10.4021 3.58665 9.6239 2.71285C8.11496 1.02096 5.68002 0.607518 3.69414 1.6983C1.64131 2.82428 0.617688 5.46034 1.34566 7.74454C1.58274 8.48933 1.9788 9.14614 2.42507 9.76777C3.59373 11.3922 4.76796 13.0137 5.93941 14.6353C5.96173 14.6616 5.98683 14.691 6.01751 14.7262Z" fill="#29EDB2"/>
<path d="M6.61718 0.496094C6.85147 0.545941 7.08855 0.589925 7.32284 0.645637C9.3673 1.14118 11.0882 3.07938 11.4424 5.25215C11.6544 6.54233 11.4396 7.74454 10.8651 8.89104C10.4439 9.73259 9.89445 10.4862 9.34219 11.2339C8.42177 12.4859 7.50134 13.738 6.57813 14.9871C6.47214 15.1308 6.35779 15.2657 6.23228 15.3888C6.07608 15.5472 5.84458 15.5267 5.71907 15.3507C4.4249 13.5591 3.12515 11.7675 1.83934 9.96716C1.34008 9.2693 0.921707 8.51571 0.709731 7.66244C0.294145 5.99401 0.575851 4.437 1.49906 3.02074C2.40275 1.63673 3.66346 0.812773 5.24212 0.537145C5.30906 0.525416 5.376 0.510755 5.44573 0.496094C5.83621 0.496094 6.2267 0.496094 6.61718 0.496094ZM6.01751 14.7262C6.06492 14.6675 6.10676 14.6177 6.1486 14.562C6.96304 13.4536 7.77747 12.3423 8.5947 11.2339C9.14695 10.4862 9.71315 9.74725 10.1762 8.92916C10.7172 7.97032 11.0185 6.94991 10.9209 5.81807C10.8177 4.62759 10.4021 3.58665 9.6239 2.71285C8.11496 1.02096 5.68002 0.607518 3.69414 1.6983C1.64131 2.82428 0.617688 5.46034 1.34566 7.74454C1.58274 8.48933 1.9788 9.14614 2.42507 9.76777C3.59373 11.3922 4.76796 13.0137 5.93941 14.6353C5.96173 14.6616 5.98683 14.691 6.01751 14.7262Z" fill="url(#paint0_linear)"/>
<path d="M6.61718 0.496094C6.85147 0.545941 7.08855 0.589925 7.32284 0.645637C9.3673 1.14118 11.0882 3.07938 11.4424 5.25215C11.6544 6.54233 11.4396 7.74454 10.8651 8.89104C10.4439 9.73259 9.89445 10.4862 9.34219 11.2339C8.42177 12.4859 7.50134 13.738 6.57813 14.9871C6.47214 15.1308 6.35779 15.2657 6.23228 15.3888C6.07608 15.5472 5.84458 15.5267 5.71907 15.3507C4.4249 13.5591 3.12515 11.7675 1.83934 9.96716C1.34008 9.2693 0.921707 8.51571 0.709731 7.66244C0.294145 5.99401 0.575851 4.437 1.49906 3.02074C2.40275 1.63673 3.66346 0.812773 5.24212 0.537145C5.30906 0.525416 5.376 0.510755 5.44573 0.496094C5.83621 0.496094 6.2267 0.496094 6.61718 0.496094ZM6.01751 14.7262C6.06492 14.6675 6.10676 14.6177 6.1486 14.562C6.96304 13.4536 7.77747 12.3423 8.5947 11.2339C9.14695 10.4862 9.71315 9.74725 10.1762 8.92916C10.7172 7.97032 11.0185 6.94991 10.9209 5.81807C10.8177 4.62759 10.4021 3.58665 9.6239 2.71285C8.11496 1.02096 5.68002 0.607518 3.69414 1.6983C1.64131 2.82428 0.617688 5.46034 1.34566 7.74454C1.58274 8.48933 1.9788 9.14614 2.42507 9.76777C3.59373 11.3922 4.76796 13.0137 5.93941 14.6353C5.96173 14.6616 5.98683 14.691 6.01751 14.7262Z" fill="#D64582"/>
<path d="M6.61718 0.496094C6.85147 0.545941 7.08855 0.589925 7.32284 0.645637C9.3673 1.14118 11.0882 3.07938 11.4424 5.25215C11.6544 6.54233 11.4396 7.74454 10.8651 8.89104C10.4439 9.73259 9.89445 10.4862 9.34219 11.2339C8.42177 12.4859 7.50134 13.738 6.57813 14.9871C6.47214 15.1308 6.35779 15.2657 6.23228 15.3888C6.07608 15.5472 5.84458 15.5267 5.71907 15.3507C4.4249 13.5591 3.12515 11.7675 1.83934 9.96716C1.34008 9.2693 0.921707 8.51571 0.709731 7.66244C0.294145 5.99401 0.575851 4.437 1.49906 3.02074C2.40275 1.63673 3.66346 0.812773 5.24212 0.537145C5.30906 0.525416 5.376 0.510755 5.44573 0.496094C5.83621 0.496094 6.2267 0.496094 6.61718 0.496094ZM6.01751 14.7262C6.06492 14.6675 6.10676 14.6177 6.1486 14.562C6.96304 13.4536 7.77747 12.3423 8.5947 11.2339C9.14695 10.4862 9.71315 9.74725 10.1762 8.92916C10.7172 7.97032 11.0185 6.94991 10.9209 5.81807C10.8177 4.62759 10.4021 3.58665 9.6239 2.71285C8.11496 1.02096 5.68002 0.607518 3.69414 1.6983C1.64131 2.82428 0.617688 5.46034 1.34566 7.74454C1.58274 8.48933 1.9788 9.14614 2.42507 9.76777C3.59373 11.3922 4.76796 13.0137 5.93941 14.6353C5.96173 14.6616 5.98683 14.691 6.01751 14.7262Z" fill="#B1C86F"/>
<path d="M6.61718 0.496094C6.85147 0.545941 7.08855 0.589925 7.32284 0.645637C9.3673 1.14118 11.0882 3.07938 11.4424 5.25215C11.6544 6.54233 11.4396 7.74454 10.8651 8.89104C10.4439 9.73259 9.89445 10.4862 9.34219 11.2339C8.42177 12.4859 7.50134 13.738 6.57813 14.9871C6.47214 15.1308 6.35779 15.2657 6.23228 15.3888C6.07608 15.5472 5.84458 15.5267 5.71907 15.3507C4.4249 13.5591 3.12515 11.7675 1.83934 9.96716C1.34008 9.2693 0.921707 8.51571 0.709731 7.66244C0.294145 5.99401 0.575851 4.437 1.49906 3.02074C2.40275 1.63673 3.66346 0.812773 5.24212 0.537145C5.30906 0.525416 5.376 0.510755 5.44573 0.496094C5.83621 0.496094 6.2267 0.496094 6.61718 0.496094ZM6.01751 14.7262C6.06492 14.6675 6.10676 14.6177 6.1486 14.562C6.96304 13.4536 7.77747 12.3423 8.5947 11.2339C9.14695 10.4862 9.71315 9.74725 10.1762 8.92916C10.7172 7.97032 11.0185 6.94991 10.9209 5.81807C10.8177 4.62759 10.4021 3.58665 9.6239 2.71285C8.11496 1.02096 5.68002 0.607518 3.69414 1.6983C1.64131 2.82428 0.617688 5.46034 1.34566 7.74454C1.58274 8.48933 1.9788 9.14614 2.42507 9.76777C3.59373 11.3922 4.76796 13.0137 5.93941 14.6353C5.96173 14.6616 5.98683 14.691 6.01751 14.7262Z" fill="#FFC24A"/>
<path d="M6.61718 0.496094C6.85147 0.545941 7.08855 0.589925 7.32284 0.645637C9.3673 1.14118 11.0882 3.07938 11.4424 5.25215C11.6544 6.54233 11.4396 7.74454 10.8651 8.89104C10.4439 9.73259 9.89445 10.4862 9.34219 11.2339C8.42177 12.4859 7.50134 13.738 6.57813 14.9871C6.47214 15.1308 6.35779 15.2657 6.23228 15.3888C6.07608 15.5472 5.84458 15.5267 5.71907 15.3507C4.4249 13.5591 3.12515 11.7675 1.83934 9.96716C1.34008 9.2693 0.921707 8.51571 0.709731 7.66244C0.294145 5.99401 0.575851 4.437 1.49906 3.02074C2.40275 1.63673 3.66346 0.812773 5.24212 0.537145C5.30906 0.525416 5.376 0.510755 5.44573 0.496094C5.83621 0.496094 6.2267 0.496094 6.61718 0.496094ZM6.01751 14.7262C6.06492 14.6675 6.10676 14.6177 6.1486 14.562C6.96304 13.4536 7.77747 12.3423 8.5947 11.2339C9.14695 10.4862 9.71315 9.74725 10.1762 8.92916C10.7172 7.97032 11.0185 6.94991 10.9209 5.81807C10.8177 4.62759 10.4021 3.58665 9.6239 2.71285C8.11496 1.02096 5.68002 0.607518 3.69414 1.6983C1.64131 2.82428 0.617688 5.46034 1.34566 7.74454C1.58274 8.48933 1.9788 9.14614 2.42507 9.76777C3.59373 11.3922 4.76796 13.0137 5.93941 14.6353C5.96173 14.6616 5.98683 14.691 6.01751 14.7262Z" stroke="#29EDB2" stroke-width="0.5"/>
<path d="M6.61718 0.496094C6.85147 0.545941 7.08855 0.589925 7.32284 0.645637C9.3673 1.14118 11.0882 3.07938 11.4424 5.25215C11.6544 6.54233 11.4396 7.74454 10.8651 8.89104C10.4439 9.73259 9.89445 10.4862 9.34219 11.2339C8.42177 12.4859 7.50134 13.738 6.57813 14.9871C6.47214 15.1308 6.35779 15.2657 6.23228 15.3888C6.07608 15.5472 5.84458 15.5267 5.71907 15.3507C4.4249 13.5591 3.12515 11.7675 1.83934 9.96716C1.34008 9.2693 0.921707 8.51571 0.709731 7.66244C0.294145 5.99401 0.575851 4.437 1.49906 3.02074C2.40275 1.63673 3.66346 0.812773 5.24212 0.537145C5.30906 0.525416 5.376 0.510755 5.44573 0.496094C5.83621 0.496094 6.2267 0.496094 6.61718 0.496094ZM6.01751 14.7262C6.06492 14.6675 6.10676 14.6177 6.1486 14.562C6.96304 13.4536 7.77747 12.3423 8.5947 11.2339C9.14695 10.4862 9.71315 9.74725 10.1762 8.92916C10.7172 7.97032 11.0185 6.94991 10.9209 5.81807C10.8177 4.62759 10.4021 3.58665 9.6239 2.71285C8.11496 1.02096 5.68002 0.607518 3.69414 1.6983C1.64131 2.82428 0.617688 5.46034 1.34566 7.74454C1.58274 8.48933 1.9788 9.14614 2.42507 9.76777C3.59373 11.3922 4.76796 13.0137 5.93941 14.6353C5.96173 14.6616 5.98683 14.691 6.01751 14.7262Z" stroke="url(#paint1_linear)" stroke-width="0.5"/>
<path d="M6.61718 0.496094C6.85147 0.545941 7.08855 0.589925 7.32284 0.645637C9.3673 1.14118 11.0882 3.07938 11.4424 5.25215C11.6544 6.54233 11.4396 7.74454 10.8651 8.89104C10.4439 9.73259 9.89445 10.4862 9.34219 11.2339C8.42177 12.4859 7.50134 13.738 6.57813 14.9871C6.47214 15.1308 6.35779 15.2657 6.23228 15.3888C6.07608 15.5472 5.84458 15.5267 5.71907 15.3507C4.4249 13.5591 3.12515 11.7675 1.83934 9.96716C1.34008 9.2693 0.921707 8.51571 0.709731 7.66244C0.294145 5.99401 0.575851 4.437 1.49906 3.02074C2.40275 1.63673 3.66346 0.812773 5.24212 0.537145C5.30906 0.525416 5.376 0.510755 5.44573 0.496094C5.83621 0.496094 6.2267 0.496094 6.61718 0.496094ZM6.01751 14.7262C6.06492 14.6675 6.10676 14.6177 6.1486 14.562C6.96304 13.4536 7.77747 12.3423 8.5947 11.2339C9.14695 10.4862 9.71315 9.74725 10.1762 8.92916C10.7172 7.97032 11.0185 6.94991 10.9209 5.81807C10.8177 4.62759 10.4021 3.58665 9.6239 2.71285C8.11496 1.02096 5.68002 0.607518 3.69414 1.6983C1.64131 2.82428 0.617688 5.46034 1.34566 7.74454C1.58274 8.48933 1.9788 9.14614 2.42507 9.76777C3.59373 11.3922 4.76796 13.0137 5.93941 14.6353C5.96173 14.6616 5.98683 14.691 6.01751 14.7262Z" stroke="#D64582" stroke-width="0.5"/>
<path d="M6.61718 0.496094C6.85147 0.545941 7.08855 0.589925 7.32284 0.645637C9.3673 1.14118 11.0882 3.07938 11.4424 5.25215C11.6544 6.54233 11.4396 7.74454 10.8651 8.89104C10.4439 9.73259 9.89445 10.4862 9.34219 11.2339C8.42177 12.4859 7.50134 13.738 6.57813 14.9871C6.47214 15.1308 6.35779 15.2657 6.23228 15.3888C6.07608 15.5472 5.84458 15.5267 5.71907 15.3507C4.4249 13.5591 3.12515 11.7675 1.83934 9.96716C1.34008 9.2693 0.921707 8.51571 0.709731 7.66244C0.294145 5.99401 0.575851 4.437 1.49906 3.02074C2.40275 1.63673 3.66346 0.812773 5.24212 0.537145C5.30906 0.525416 5.376 0.510755 5.44573 0.496094C5.83621 0.496094 6.2267 0.496094 6.61718 0.496094ZM6.01751 14.7262C6.06492 14.6675 6.10676 14.6177 6.1486 14.562C6.96304 13.4536 7.77747 12.3423 8.5947 11.2339C9.14695 10.4862 9.71315 9.74725 10.1762 8.92916C10.7172 7.97032 11.0185 6.94991 10.9209 5.81807C10.8177 4.62759 10.4021 3.58665 9.6239 2.71285C8.11496 1.02096 5.68002 0.607518 3.69414 1.6983C1.64131 2.82428 0.617688 5.46034 1.34566 7.74454C1.58274 8.48933 1.9788 9.14614 2.42507 9.76777C3.59373 11.3922 4.76796 13.0137 5.93941 14.6353C5.96173 14.6616 5.98683 14.691 6.01751 14.7262Z" stroke="#B1C86F" stroke-width="0.5"/>
<path d="M6.61718 0.496094C6.85147 0.545941 7.08855 0.589925 7.32284 0.645637C9.3673 1.14118 11.0882 3.07938 11.4424 5.25215C11.6544 6.54233 11.4396 7.74454 10.8651 8.89104C10.4439 9.73259 9.89445 10.4862 9.34219 11.2339C8.42177 12.4859 7.50134 13.738 6.57813 14.9871C6.47214 15.1308 6.35779 15.2657 6.23228 15.3888C6.07608 15.5472 5.84458 15.5267 5.71907 15.3507C4.4249 13.5591 3.12515 11.7675 1.83934 9.96716C1.34008 9.2693 0.921707 8.51571 0.709731 7.66244C0.294145 5.99401 0.575851 4.437 1.49906 3.02074C2.40275 1.63673 3.66346 0.812773 5.24212 0.537145C5.30906 0.525416 5.376 0.510755 5.44573 0.496094C5.83621 0.496094 6.2267 0.496094 6.61718 0.496094ZM6.01751 14.7262C6.06492 14.6675 6.10676 14.6177 6.1486 14.562C6.96304 13.4536 7.77747 12.3423 8.5947 11.2339C9.14695 10.4862 9.71315 9.74725 10.1762 8.92916C10.7172 7.97032 11.0185 6.94991 10.9209 5.81807C10.8177 4.62759 10.4021 3.58665 9.6239 2.71285C8.11496 1.02096 5.68002 0.607518 3.69414 1.6983C1.64131 2.82428 0.617688 5.46034 1.34566 7.74454C1.58274 8.48933 1.9788 9.14614 2.42507 9.76777C3.59373 11.3922 4.76796 13.0137 5.93941 14.6353C5.96173 14.6616 5.98683 14.691 6.01751 14.7262Z" stroke="#FFC24A" stroke-width="0.5"/>
<path d="M3.34572 6.1177C3.3513 4.59881 4.60085 3.3057 6.054 3.3145C7.48763 3.32329 8.72044 4.63106 8.71486 6.13529C8.70928 7.65418 7.45974 8.94729 6.00937 8.93849C4.57295 8.9297 3.34014 7.619 3.34572 6.1177ZM3.93702 6.12943C3.93702 7.38149 4.83514 8.32273 6.0289 8.32273C7.22266 8.32273 8.12635 7.38149 8.12635 6.13236C8.12635 4.87444 7.22545 3.93026 6.02611 3.9332C4.82956 3.93613 3.93424 4.87444 3.93702 6.12943Z" fill="#29EDB2"/>
<path d="M3.34572 6.1177C3.3513 4.59881 4.60085 3.3057 6.054 3.3145C7.48763 3.32329 8.72044 4.63106 8.71486 6.13529C8.70928 7.65418 7.45974 8.94729 6.00937 8.93849C4.57295 8.9297 3.34014 7.619 3.34572 6.1177ZM3.93702 6.12943C3.93702 7.38149 4.83514 8.32273 6.0289 8.32273C7.22266 8.32273 8.12635 7.38149 8.12635 6.13236C8.12635 4.87444 7.22545 3.93026 6.02611 3.9332C4.82956 3.93613 3.93424 4.87444 3.93702 6.12943Z" fill="url(#paint2_linear)"/>
<path d="M3.34572 6.1177C3.3513 4.59881 4.60085 3.3057 6.054 3.3145C7.48763 3.32329 8.72044 4.63106 8.71486 6.13529C8.70928 7.65418 7.45974 8.94729 6.00937 8.93849C4.57295 8.9297 3.34014 7.619 3.34572 6.1177ZM3.93702 6.12943C3.93702 7.38149 4.83514 8.32273 6.0289 8.32273C7.22266 8.32273 8.12635 7.38149 8.12635 6.13236C8.12635 4.87444 7.22545 3.93026 6.02611 3.9332C4.82956 3.93613 3.93424 4.87444 3.93702 6.12943Z" fill="#D64582"/>
<path d="M3.34572 6.1177C3.3513 4.59881 4.60085 3.3057 6.054 3.3145C7.48763 3.32329 8.72044 4.63106 8.71486 6.13529C8.70928 7.65418 7.45974 8.94729 6.00937 8.93849C4.57295 8.9297 3.34014 7.619 3.34572 6.1177ZM3.93702 6.12943C3.93702 7.38149 4.83514 8.32273 6.0289 8.32273C7.22266 8.32273 8.12635 7.38149 8.12635 6.13236C8.12635 4.87444 7.22545 3.93026 6.02611 3.9332C4.82956 3.93613 3.93424 4.87444 3.93702 6.12943Z" fill="#B1C86F"/>
<path d="M3.34572 6.1177C3.3513 4.59881 4.60085 3.3057 6.054 3.3145C7.48763 3.32329 8.72044 4.63106 8.71486 6.13529C8.70928 7.65418 7.45974 8.94729 6.00937 8.93849C4.57295 8.9297 3.34014 7.619 3.34572 6.1177ZM3.93702 6.12943C3.93702 7.38149 4.83514 8.32273 6.0289 8.32273C7.22266 8.32273 8.12635 7.38149 8.12635 6.13236C8.12635 4.87444 7.22545 3.93026 6.02611 3.9332C4.82956 3.93613 3.93424 4.87444 3.93702 6.12943Z" fill="#FFC24A"/>
<path d="M3.34572 6.1177C3.3513 4.59881 4.60085 3.3057 6.054 3.3145C7.48763 3.32329 8.72044 4.63106 8.71486 6.13529C8.70928 7.65418 7.45974 8.94729 6.00937 8.93849C4.57295 8.9297 3.34014 7.619 3.34572 6.1177ZM3.93702 6.12943C3.93702 7.38149 4.83514 8.32273 6.0289 8.32273C7.22266 8.32273 8.12635 7.38149 8.12635 6.13236C8.12635 4.87444 7.22545 3.93026 6.02611 3.9332C4.82956 3.93613 3.93424 4.87444 3.93702 6.12943Z" stroke="#29EDB2" stroke-width="0.5"/>
<path d="M3.34572 6.1177C3.3513 4.59881 4.60085 3.3057 6.054 3.3145C7.48763 3.32329 8.72044 4.63106 8.71486 6.13529C8.70928 7.65418 7.45974 8.94729 6.00937 8.93849C4.57295 8.9297 3.34014 7.619 3.34572 6.1177ZM3.93702 6.12943C3.93702 7.38149 4.83514 8.32273 6.0289 8.32273C7.22266 8.32273 8.12635 7.38149 8.12635 6.13236C8.12635 4.87444 7.22545 3.93026 6.02611 3.9332C4.82956 3.93613 3.93424 4.87444 3.93702 6.12943Z" stroke="url(#paint3_linear)" stroke-width="0.5"/>
<path d="M3.34572 6.1177C3.3513 4.59881 4.60085 3.3057 6.054 3.3145C7.48763 3.32329 8.72044 4.63106 8.71486 6.13529C8.70928 7.65418 7.45974 8.94729 6.00937 8.93849C4.57295 8.9297 3.34014 7.619 3.34572 6.1177ZM3.93702 6.12943C3.93702 7.38149 4.83514 8.32273 6.0289 8.32273C7.22266 8.32273 8.12635 7.38149 8.12635 6.13236C8.12635 4.87444 7.22545 3.93026 6.02611 3.9332C4.82956 3.93613 3.93424 4.87444 3.93702 6.12943Z" stroke="#D64582" stroke-width="0.5"/>
<path d="M3.34572 6.1177C3.3513 4.59881 4.60085 3.3057 6.054 3.3145C7.48763 3.32329 8.72044 4.63106 8.71486 6.13529C8.70928 7.65418 7.45974 8.94729 6.00937 8.93849C4.57295 8.9297 3.34014 7.619 3.34572 6.1177ZM3.93702 6.12943C3.93702 7.38149 4.83514 8.32273 6.0289 8.32273C7.22266 8.32273 8.12635 7.38149 8.12635 6.13236C8.12635 4.87444 7.22545 3.93026 6.02611 3.9332C4.82956 3.93613 3.93424 4.87444 3.93702 6.12943Z" stroke="#B1C86F" stroke-width="0.5"/>
<path d="M3.34572 6.1177C3.3513 4.59881 4.60085 3.3057 6.054 3.3145C7.48763 3.32329 8.72044 4.63106 8.71486 6.13529C8.70928 7.65418 7.45974 8.94729 6.00937 8.93849C4.57295 8.9297 3.34014 7.619 3.34572 6.1177ZM3.93702 6.12943C3.93702 7.38149 4.83514 8.32273 6.0289 8.32273C7.22266 8.32273 8.12635 7.38149 8.12635 6.13236C8.12635 4.87444 7.22545 3.93026 6.02611 3.9332C4.82956 3.93613 3.93424 4.87444 3.93702 6.12943Z" stroke="#FFC24A" stroke-width="0.5"/>
<defs>
<linearGradient id="paint0_linear" x1="-0.258259" y1="0.496093" x2="13.4544" y2="1.88691" gradientUnits="userSpaceOnUse">
<stop stop-color="#A70C72"/>
<stop offset="1" stop-color="#E50799"/>
</linearGradient>
<linearGradient id="paint1_linear" x1="-0.258259" y1="0.496093" x2="13.4544" y2="1.88691" gradientUnits="userSpaceOnUse">
<stop stop-color="#A70C72"/>
<stop offset="1" stop-color="#E50799"/>
</linearGradient>
<linearGradient id="paint2_linear" x1="2.96463" y1="3.31445" x2="9.61083" y2="4.19202" gradientUnits="userSpaceOnUse">
<stop stop-color="#A70C72"/>
<stop offset="1" stop-color="#E50799"/>
</linearGradient>
<linearGradient id="paint3_linear" x1="2.96463" y1="3.31445" x2="9.61083" y2="4.19202" gradientUnits="userSpaceOnUse">
<stop stop-color="#A70C72"/>
<stop offset="1" stop-color="#E50799"/>
</linearGradient>
</defs>
</svg>
