<svg width="6" height="9" viewBox="0 0 6 9" fill="none" xmlns="http://www.w3.org/2000/svg">
<path d="M3.29736 0.496094C3.4145 0.521018 3.53304 0.543009 3.65019 0.570865C4.67242 0.818638 5.53287 1.78774 5.70999 2.87412C5.81597 3.51921 5.70859 4.12032 5.42131 4.69357C5.21073 5.11434 4.93599 5.49113 4.65987 5.86499C4.19965 6.49102 3.73944 7.11705 3.27784 7.74161C3.22484 7.81345 3.16766 7.88089 3.10491 7.94247C3.02681 8.02164 2.91106 8.01137 2.8483 7.92341C2.20122 7.02761 1.55134 6.13182 0.908441 5.23163C0.65881 4.88269 0.449623 4.5059 0.343635 4.07927C0.135842 3.24505 0.276695 2.46655 0.738302 1.75841C1.19015 1.06641 1.8205 0.654434 2.60983 0.516619C2.6433 0.510755 2.67677 0.503424 2.71163 0.496094C2.90688 0.496094 3.10212 0.496094 3.29736 0.496094ZM2.99752 7.61112C3.02123 7.5818 3.04215 7.55688 3.06307 7.52902C3.47029 6.97483 3.87751 6.41918 4.28612 5.86499C4.56224 5.49113 4.84535 5.12167 5.07685 4.71263C5.34739 4.23321 5.49801 3.723 5.4492 3.15708C5.3976 2.56184 5.18981 2.04137 4.80072 1.60447C4.04625 0.758527 2.82878 0.551806 1.83584 1.0972C0.809425 1.66019 0.297614 2.97822 0.6616 4.12032C0.780139 4.49271 0.97817 4.82112 1.2013 5.13193C1.78563 5.94416 2.37275 6.75492 2.95848 7.56568C2.96963 7.57887 2.98218 7.59353 2.99752 7.61112Z" fill="#29EDB2"/>
<path d="M3.29736 0.496094C3.4145 0.521018 3.53304 0.543009 3.65019 0.570865C4.67242 0.818638 5.53287 1.78774 5.70999 2.87412C5.81597 3.51921 5.70859 4.12032 5.42131 4.69357C5.21073 5.11434 4.93599 5.49113 4.65987 5.86499C4.19965 6.49102 3.73944 7.11705 3.27784 7.74161C3.22484 7.81345 3.16766 7.88089 3.10491 7.94247C3.02681 8.02164 2.91106 8.01137 2.8483 7.92341C2.20122 7.02761 1.55134 6.13182 0.908441 5.23163C0.65881 4.88269 0.449623 4.5059 0.343635 4.07927C0.135842 3.24505 0.276695 2.46655 0.738302 1.75841C1.19015 1.06641 1.8205 0.654434 2.60983 0.516619C2.6433 0.510755 2.67677 0.503424 2.71163 0.496094C2.90688 0.496094 3.10212 0.496094 3.29736 0.496094ZM2.99752 7.61112C3.02123 7.5818 3.04215 7.55688 3.06307 7.52902C3.47029 6.97483 3.87751 6.41918 4.28612 5.86499C4.56224 5.49113 4.84535 5.12167 5.07685 4.71263C5.34739 4.23321 5.49801 3.723 5.4492 3.15708C5.3976 2.56184 5.18981 2.04137 4.80072 1.60447C4.04625 0.758527 2.82878 0.551806 1.83584 1.0972C0.809425 1.66019 0.297614 2.97822 0.6616 4.12032C0.780139 4.49271 0.97817 4.82112 1.2013 5.13193C1.78563 5.94416 2.37275 6.75492 2.95848 7.56568C2.96963 7.57887 2.98218 7.59353 2.99752 7.61112Z" fill="url(#paint0_linear)"/>
<path d="M3.29736 0.496094C3.4145 0.521018 3.53304 0.543009 3.65019 0.570865C4.67242 0.818638 5.53287 1.78774 5.70999 2.87412C5.81597 3.51921 5.70859 4.12032 5.42131 4.69357C5.21073 5.11434 4.93599 5.49113 4.65987 5.86499C4.19965 6.49102 3.73944 7.11705 3.27784 7.74161C3.22484 7.81345 3.16766 7.88089 3.10491 7.94247C3.02681 8.02164 2.91106 8.01137 2.8483 7.92341C2.20122 7.02761 1.55134 6.13182 0.908441 5.23163C0.65881 4.88269 0.449623 4.5059 0.343635 4.07927C0.135842 3.24505 0.276695 2.46655 0.738302 1.75841C1.19015 1.06641 1.8205 0.654434 2.60983 0.516619C2.6433 0.510755 2.67677 0.503424 2.71163 0.496094C2.90688 0.496094 3.10212 0.496094 3.29736 0.496094ZM2.99752 7.61112C3.02123 7.5818 3.04215 7.55688 3.06307 7.52902C3.47029 6.97483 3.87751 6.41918 4.28612 5.86499C4.56224 5.49113 4.84535 5.12167 5.07685 4.71263C5.34739 4.23321 5.49801 3.723 5.4492 3.15708C5.3976 2.56184 5.18981 2.04137 4.80072 1.60447C4.04625 0.758527 2.82878 0.551806 1.83584 1.0972C0.809425 1.66019 0.297614 2.97822 0.6616 4.12032C0.780139 4.49271 0.97817 4.82112 1.2013 5.13193C1.78563 5.94416 2.37275 6.75492 2.95848 7.56568C2.96963 7.57887 2.98218 7.59353 2.99752 7.61112Z" fill="#D64582"/>
<path d="M3.29736 0.496094C3.4145 0.521018 3.53304 0.543009 3.65019 0.570865C4.67242 0.818638 5.53287 1.78774 5.70999 2.87412C5.81597 3.51921 5.70859 4.12032 5.42131 4.69357C5.21073 5.11434 4.93599 5.49113 4.65987 5.86499C4.19965 6.49102 3.73944 7.11705 3.27784 7.74161C3.22484 7.81345 3.16766 7.88089 3.10491 7.94247C3.02681 8.02164 2.91106 8.01137 2.8483 7.92341C2.20122 7.02761 1.55134 6.13182 0.908441 5.23163C0.65881 4.88269 0.449623 4.5059 0.343635 4.07927C0.135842 3.24505 0.276695 2.46655 0.738302 1.75841C1.19015 1.06641 1.8205 0.654434 2.60983 0.516619C2.6433 0.510755 2.67677 0.503424 2.71163 0.496094C2.90688 0.496094 3.10212 0.496094 3.29736 0.496094ZM2.99752 7.61112C3.02123 7.5818 3.04215 7.55688 3.06307 7.52902C3.47029 6.97483 3.87751 6.41918 4.28612 5.86499C4.56224 5.49113 4.84535 5.12167 5.07685 4.71263C5.34739 4.23321 5.49801 3.723 5.4492 3.15708C5.3976 2.56184 5.18981 2.04137 4.80072 1.60447C4.04625 0.758527 2.82878 0.551806 1.83584 1.0972C0.809425 1.66019 0.297614 2.97822 0.6616 4.12032C0.780139 4.49271 0.97817 4.82112 1.2013 5.13193C1.78563 5.94416 2.37275 6.75492 2.95848 7.56568C2.96963 7.57887 2.98218 7.59353 2.99752 7.61112Z" fill="#B1C86F"/>
<path d="M3.29736 0.496094C3.4145 0.521018 3.53304 0.543009 3.65019 0.570865C4.67242 0.818638 5.53287 1.78774 5.70999 2.87412C5.81597 3.51921 5.70859 4.12032 5.42131 4.69357C5.21073 5.11434 4.93599 5.49113 4.65987 5.86499C4.19965 6.49102 3.73944 7.11705 3.27784 7.74161C3.22484 7.81345 3.16766 7.88089 3.10491 7.94247C3.02681 8.02164 2.91106 8.01137 2.8483 7.92341C2.20122 7.02761 1.55134 6.13182 0.908441 5.23163C0.65881 4.88269 0.449623 4.5059 0.343635 4.07927C0.135842 3.24505 0.276695 2.46655 0.738302 1.75841C1.19015 1.06641 1.8205 0.654434 2.60983 0.516619C2.6433 0.510755 2.67677 0.503424 2.71163 0.496094C2.90688 0.496094 3.10212 0.496094 3.29736 0.496094ZM2.99752 7.61112C3.02123 7.5818 3.04215 7.55688 3.06307 7.52902C3.47029 6.97483 3.87751 6.41918 4.28612 5.86499C4.56224 5.49113 4.84535 5.12167 5.07685 4.71263C5.34739 4.23321 5.49801 3.723 5.4492 3.15708C5.3976 2.56184 5.18981 2.04137 4.80072 1.60447C4.04625 0.758527 2.82878 0.551806 1.83584 1.0972C0.809425 1.66019 0.297614 2.97822 0.6616 4.12032C0.780139 4.49271 0.97817 4.82112 1.2013 5.13193C1.78563 5.94416 2.37275 6.75492 2.95848 7.56568C2.96963 7.57887 2.98218 7.59353 2.99752 7.61112Z" fill="#FFC24A"/>
<path d="M3.29736 0.496094C3.4145 0.521018 3.53304 0.543009 3.65019 0.570865C4.67242 0.818638 5.53287 1.78774 5.70999 2.87412C5.81597 3.51921 5.70859 4.12032 5.42131 4.69357C5.21073 5.11434 4.93599 5.49113 4.65987 5.86499C4.19965 6.49102 3.73944 7.11705 3.27784 7.74161C3.22484 7.81345 3.16766 7.88089 3.10491 7.94247C3.02681 8.02164 2.91106 8.01137 2.8483 7.92341C2.20122 7.02761 1.55134 6.13182 0.908441 5.23163C0.65881 4.88269 0.449623 4.5059 0.343635 4.07927C0.135842 3.24505 0.276695 2.46655 0.738302 1.75841C1.19015 1.06641 1.8205 0.654434 2.60983 0.516619C2.6433 0.510755 2.67677 0.503424 2.71163 0.496094C2.90688 0.496094 3.10212 0.496094 3.29736 0.496094ZM2.99752 7.61112C3.02123 7.5818 3.04215 7.55688 3.06307 7.52902C3.47029 6.97483 3.87751 6.41918 4.28612 5.86499C4.56224 5.49113 4.84535 5.12167 5.07685 4.71263C5.34739 4.23321 5.49801 3.723 5.4492 3.15708C5.3976 2.56184 5.18981 2.04137 4.80072 1.60447C4.04625 0.758527 2.82878 0.551806 1.83584 1.0972C0.809425 1.66019 0.297614 2.97822 0.6616 4.12032C0.780139 4.49271 0.97817 4.82112 1.2013 5.13193C1.78563 5.94416 2.37275 6.75492 2.95848 7.56568C2.96963 7.57887 2.98218 7.59353 2.99752 7.61112Z" stroke="#29EDB2" stroke-width="0.5"/>
<path d="M3.29736 0.496094C3.4145 0.521018 3.53304 0.543009 3.65019 0.570865C4.67242 0.818638 5.53287 1.78774 5.70999 2.87412C5.81597 3.51921 5.70859 4.12032 5.42131 4.69357C5.21073 5.11434 4.93599 5.49113 4.65987 5.86499C4.19965 6.49102 3.73944 7.11705 3.27784 7.74161C3.22484 7.81345 3.16766 7.88089 3.10491 7.94247C3.02681 8.02164 2.91106 8.01137 2.8483 7.92341C2.20122 7.02761 1.55134 6.13182 0.908441 5.23163C0.65881 4.88269 0.449623 4.5059 0.343635 4.07927C0.135842 3.24505 0.276695 2.46655 0.738302 1.75841C1.19015 1.06641 1.8205 0.654434 2.60983 0.516619C2.6433 0.510755 2.67677 0.503424 2.71163 0.496094C2.90688 0.496094 3.10212 0.496094 3.29736 0.496094ZM2.99752 7.61112C3.02123 7.5818 3.04215 7.55688 3.06307 7.52902C3.47029 6.97483 3.87751 6.41918 4.28612 5.86499C4.56224 5.49113 4.84535 5.12167 5.07685 4.71263C5.34739 4.23321 5.49801 3.723 5.4492 3.15708C5.3976 2.56184 5.18981 2.04137 4.80072 1.60447C4.04625 0.758527 2.82878 0.551806 1.83584 1.0972C0.809425 1.66019 0.297614 2.97822 0.6616 4.12032C0.780139 4.49271 0.97817 4.82112 1.2013 5.13193C1.78563 5.94416 2.37275 6.75492 2.95848 7.56568C2.96963 7.57887 2.98218 7.59353 2.99752 7.61112Z" stroke="url(#paint1_linear)" stroke-width="0.5"/>
<path d="M3.29736 0.496094C3.4145 0.521018 3.53304 0.543009 3.65019 0.570865C4.67242 0.818638 5.53287 1.78774 5.70999 2.87412C5.81597 3.51921 5.70859 4.12032 5.42131 4.69357C5.21073 5.11434 4.93599 5.49113 4.65987 5.86499C4.19965 6.49102 3.73944 7.11705 3.27784 7.74161C3.22484 7.81345 3.16766 7.88089 3.10491 7.94247C3.02681 8.02164 2.91106 8.01137 2.8483 7.92341C2.20122 7.02761 1.55134 6.13182 0.908441 5.23163C0.65881 4.88269 0.449623 4.5059 0.343635 4.07927C0.135842 3.24505 0.276695 2.46655 0.738302 1.75841C1.19015 1.06641 1.8205 0.654434 2.60983 0.516619C2.6433 0.510755 2.67677 0.503424 2.71163 0.496094C2.90688 0.496094 3.10212 0.496094 3.29736 0.496094ZM2.99752 7.61112C3.02123 7.5818 3.04215 7.55688 3.06307 7.52902C3.47029 6.97483 3.87751 6.41918 4.28612 5.86499C4.56224 5.49113 4.84535 5.12167 5.07685 4.71263C5.34739 4.23321 5.49801 3.723 5.4492 3.15708C5.3976 2.56184 5.18981 2.04137 4.80072 1.60447C4.04625 0.758527 2.82878 0.551806 1.83584 1.0972C0.809425 1.66019 0.297614 2.97822 0.6616 4.12032C0.780139 4.49271 0.97817 4.82112 1.2013 5.13193C1.78563 5.94416 2.37275 6.75492 2.95848 7.56568C2.96963 7.57887 2.98218 7.59353 2.99752 7.61112Z" stroke="#D64582" stroke-width="0.5"/>
<path d="M3.29736 0.496094C3.4145 0.521018 3.53304 0.543009 3.65019 0.570865C4.67242 0.818638 5.53287 1.78774 5.70999 2.87412C5.81597 3.51921 5.70859 4.12032 5.42131 4.69357C5.21073 5.11434 4.93599 5.49113 4.65987 5.86499C4.19965 6.49102 3.73944 7.11705 3.27784 7.74161C3.22484 7.81345 3.16766 7.88089 3.10491 7.94247C3.02681 8.02164 2.91106 8.01137 2.8483 7.92341C2.20122 7.02761 1.55134 6.13182 0.908441 5.23163C0.65881 4.88269 0.449623 4.5059 0.343635 4.07927C0.135842 3.24505 0.276695 2.46655 0.738302 1.75841C1.19015 1.06641 1.8205 0.654434 2.60983 0.516619C2.6433 0.510755 2.67677 0.503424 2.71163 0.496094C2.90688 0.496094 3.10212 0.496094 3.29736 0.496094ZM2.99752 7.61112C3.02123 7.5818 3.04215 7.55688 3.06307 7.52902C3.47029 6.97483 3.87751 6.41918 4.28612 5.86499C4.56224 5.49113 4.84535 5.12167 5.07685 4.71263C5.34739 4.23321 5.49801 3.723 5.4492 3.15708C5.3976 2.56184 5.18981 2.04137 4.80072 1.60447C4.04625 0.758527 2.82878 0.551806 1.83584 1.0972C0.809425 1.66019 0.297614 2.97822 0.6616 4.12032C0.780139 4.49271 0.97817 4.82112 1.2013 5.13193C1.78563 5.94416 2.37275 6.75492 2.95848 7.56568C2.96963 7.57887 2.98218 7.59353 2.99752 7.61112Z" stroke="#B1C86F" stroke-width="0.5"/>
<path d="M3.29736 0.496094C3.4145 0.521018 3.53304 0.543009 3.65019 0.570865C4.67242 0.818638 5.53287 1.78774 5.70999 2.87412C5.81597 3.51921 5.70859 4.12032 5.42131 4.69357C5.21073 5.11434 4.93599 5.49113 4.65987 5.86499C4.19965 6.49102 3.73944 7.11705 3.27784 7.74161C3.22484 7.81345 3.16766 7.88089 3.10491 7.94247C3.02681 8.02164 2.91106 8.01137 2.8483 7.92341C2.20122 7.02761 1.55134 6.13182 0.908441 5.23163C0.65881 4.88269 0.449623 4.5059 0.343635 4.07927C0.135842 3.24505 0.276695 2.46655 0.738302 1.75841C1.19015 1.06641 1.8205 0.654434 2.60983 0.516619C2.6433 0.510755 2.67677 0.503424 2.71163 0.496094C2.90688 0.496094 3.10212 0.496094 3.29736 0.496094ZM2.99752 7.61112C3.02123 7.5818 3.04215 7.55688 3.06307 7.52902C3.47029 6.97483 3.87751 6.41918 4.28612 5.86499C4.56224 5.49113 4.84535 5.12167 5.07685 4.71263C5.34739 4.23321 5.49801 3.723 5.4492 3.15708C5.3976 2.56184 5.18981 2.04137 4.80072 1.60447C4.04625 0.758527 2.82878 0.551806 1.83584 1.0972C0.809425 1.66019 0.297614 2.97822 0.6616 4.12032C0.780139 4.49271 0.97817 4.82112 1.2013 5.13193C1.78563 5.94416 2.37275 6.75492 2.95848 7.56568C2.96963 7.57887 2.98218 7.59353 2.99752 7.61112Z" stroke="#FFC24A" stroke-width="0.5"/>
<path d="M1.66163 3.30592C1.66442 2.54648 2.28919 1.89992 3.01577 1.90432C3.73258 1.90872 4.34899 2.5626 4.3462 3.31472C4.34341 4.07416 3.71864 4.72072 2.99346 4.71632C2.27525 4.71192 1.65884 4.05657 1.66163 3.30592ZM1.95728 3.31178C1.95728 3.93781 2.40634 4.40843 3.00322 4.40843C3.6001 4.40843 4.05194 3.93781 4.05194 3.31325C4.05194 2.68429 3.60149 2.2122 3.00182 2.21367C2.40355 2.21513 1.95589 2.68429 1.95728 3.31178Z" fill="#29EDB2"/>
<path d="M1.66163 3.30592C1.66442 2.54648 2.28919 1.89992 3.01577 1.90432C3.73258 1.90872 4.34899 2.5626 4.3462 3.31472C4.34341 4.07416 3.71864 4.72072 2.99346 4.71632C2.27525 4.71192 1.65884 4.05657 1.66163 3.30592ZM1.95728 3.31178C1.95728 3.93781 2.40634 4.40843 3.00322 4.40843C3.6001 4.40843 4.05194 3.93781 4.05194 3.31325C4.05194 2.68429 3.60149 2.2122 3.00182 2.21367C2.40355 2.21513 1.95589 2.68429 1.95728 3.31178Z" fill="url(#paint2_linear)"/>
<path d="M1.66163 3.30592C1.66442 2.54648 2.28919 1.89992 3.01577 1.90432C3.73258 1.90872 4.34899 2.5626 4.3462 3.31472C4.34341 4.07416 3.71864 4.72072 2.99346 4.71632C2.27525 4.71192 1.65884 4.05657 1.66163 3.30592ZM1.95728 3.31178C1.95728 3.93781 2.40634 4.40843 3.00322 4.40843C3.6001 4.40843 4.05194 3.93781 4.05194 3.31325C4.05194 2.68429 3.60149 2.2122 3.00182 2.21367C2.40355 2.21513 1.95589 2.68429 1.95728 3.31178Z" fill="#D64582"/>
<path d="M1.66163 3.30592C1.66442 2.54648 2.28919 1.89992 3.01577 1.90432C3.73258 1.90872 4.34899 2.5626 4.3462 3.31472C4.34341 4.07416 3.71864 4.72072 2.99346 4.71632C2.27525 4.71192 1.65884 4.05657 1.66163 3.30592ZM1.95728 3.31178C1.95728 3.93781 2.40634 4.40843 3.00322 4.40843C3.6001 4.40843 4.05194 3.93781 4.05194 3.31325C4.05194 2.68429 3.60149 2.2122 3.00182 2.21367C2.40355 2.21513 1.95589 2.68429 1.95728 3.31178Z" fill="#B1C86F"/>
<path d="M1.66163 3.30592C1.66442 2.54648 2.28919 1.89992 3.01577 1.90432C3.73258 1.90872 4.34899 2.5626 4.3462 3.31472C4.34341 4.07416 3.71864 4.72072 2.99346 4.71632C2.27525 4.71192 1.65884 4.05657 1.66163 3.30592ZM1.95728 3.31178C1.95728 3.93781 2.40634 4.40843 3.00322 4.40843C3.6001 4.40843 4.05194 3.93781 4.05194 3.31325C4.05194 2.68429 3.60149 2.2122 3.00182 2.21367C2.40355 2.21513 1.95589 2.68429 1.95728 3.31178Z" fill="#FFC24A"/>
<path d="M1.66163 3.30592C1.66442 2.54648 2.28919 1.89992 3.01577 1.90432C3.73258 1.90872 4.34899 2.5626 4.3462 3.31472C4.34341 4.07416 3.71864 4.72072 2.99346 4.71632C2.27525 4.71192 1.65884 4.05657 1.66163 3.30592ZM1.95728 3.31178C1.95728 3.93781 2.40634 4.40843 3.00322 4.40843C3.6001 4.40843 4.05194 3.93781 4.05194 3.31325C4.05194 2.68429 3.60149 2.2122 3.00182 2.21367C2.40355 2.21513 1.95589 2.68429 1.95728 3.31178Z" stroke="#29EDB2" stroke-width="0.5"/>
<path d="M1.66163 3.30592C1.66442 2.54648 2.28919 1.89992 3.01577 1.90432C3.73258 1.90872 4.34899 2.5626 4.3462 3.31472C4.34341 4.07416 3.71864 4.72072 2.99346 4.71632C2.27525 4.71192 1.65884 4.05657 1.66163 3.30592ZM1.95728 3.31178C1.95728 3.93781 2.40634 4.40843 3.00322 4.40843C3.6001 4.40843 4.05194 3.93781 4.05194 3.31325C4.05194 2.68429 3.60149 2.2122 3.00182 2.21367C2.40355 2.21513 1.95589 2.68429 1.95728 3.31178Z" stroke="url(#paint3_linear)" stroke-width="0.5"/>
<path d="M1.66163 3.30592C1.66442 2.54648 2.28919 1.89992 3.01577 1.90432C3.73258 1.90872 4.34899 2.5626 4.3462 3.31472C4.34341 4.07416 3.71864 4.72072 2.99346 4.71632C2.27525 4.71192 1.65884 4.05657 1.66163 3.30592ZM1.95728 3.31178C1.95728 3.93781 2.40634 4.40843 3.00322 4.40843C3.6001 4.40843 4.05194 3.93781 4.05194 3.31325C4.05194 2.68429 3.60149 2.2122 3.00182 2.21367C2.40355 2.21513 1.95589 2.68429 1.95728 3.31178Z" stroke="#D64582" stroke-width="0.5"/>
<path d="M1.66163 3.30592C1.66442 2.54648 2.28919 1.89992 3.01577 1.90432C3.73258 1.90872 4.34899 2.5626 4.3462 3.31472C4.34341 4.07416 3.71864 4.72072 2.99346 4.71632C2.27525 4.71192 1.65884 4.05657 1.66163 3.30592ZM1.95728 3.31178C1.95728 3.93781 2.40634 4.40843 3.00322 4.40843C3.6001 4.40843 4.05194 3.93781 4.05194 3.31325C4.05194 2.68429 3.60149 2.2122 3.00182 2.21367C2.40355 2.21513 1.95589 2.68429 1.95728 3.31178Z" stroke="#B1C86F" stroke-width="0.5"/>
<path d="M1.66163 3.30592C1.66442 2.54648 2.28919 1.89992 3.01577 1.90432C3.73258 1.90872 4.34899 2.5626 4.3462 3.31472C4.34341 4.07416 3.71864 4.72072 2.99346 4.71632C2.27525 4.71192 1.65884 4.05657 1.66163 3.30592ZM1.95728 3.31178C1.95728 3.93781 2.40634 4.40843 3.00322 4.40843C3.6001 4.40843 4.05194 3.93781 4.05194 3.31325C4.05194 2.68429 3.60149 2.2122 3.00182 2.21367C2.40355 2.21513 1.95589 2.68429 1.95728 3.31178Z" stroke="#FFC24A" stroke-width="0.5"/>
<defs>
<linearGradient id="paint0_linear" x1="-0.14036" y1="0.496094" x2="6.71595" y2="1.1915" gradientUnits="userSpaceOnUse">
<stop stop-color="#A70C72"/>
<stop offset="1" stop-color="#E50799"/>
</linearGradient>
<linearGradient id="paint1_linear" x1="-0.14036" y1="0.496094" x2="6.71595" y2="1.1915" gradientUnits="userSpaceOnUse">
<stop stop-color="#A70C72"/>
<stop offset="1" stop-color="#E50799"/>
</linearGradient>
<linearGradient id="paint2_linear" x1="1.47108" y1="1.9043" x2="4.79419" y2="2.34308" gradientUnits="userSpaceOnUse">
<stop stop-color="#A70C72"/>
<stop offset="1" stop-color="#E50799"/>
</linearGradient>
<linearGradient id="paint3_linear" x1="1.47108" y1="1.9043" x2="4.79419" y2="2.34308" gradientUnits="userSpaceOnUse">
<stop stop-color="#A70C72"/>
<stop offset="1" stop-color="#E50799"/>
</linearGradient>
</defs>
</svg>
