<svg width="16" height="23" viewBox="0 0 16 23" fill="none" xmlns="http://www.w3.org/2000/svg">
<path fill-rule="evenodd" clip-rule="evenodd" d="M0 8.34062C0 4.00437 3.58878 0.476562 8 0.476562C12.4112 0.476562 15.9999 4.00437 16 8.34062C16 13.722 8.84078 21.6223 8.53597 21.956C8.25019 22.2689 7.75033 22.2694 7.46403 21.956C7.15922 21.6223 0 13.722 0 8.34062ZM8.00003 13.048C10.5248 13.048 12.5715 11.0013 12.5715 8.47657C12.5715 5.95184 10.5248 3.90514 8.00003 3.90514C5.4753 3.90514 3.42861 5.95184 3.42861 8.47657C3.42861 11.0013 5.4753 13.048 8.00003 13.048Z" fill="white"/>
</svg>
