<svg width="30" height="38" viewBox="0 0 30 38" fill="none" xmlns="http://www.w3.org/2000/svg">
<g clip-path="url(#clip0)">
<path d="M1.94077 23.5285C1.94077 22.2952 2.9996 21.2381 4.05842 21.2381H14.1172V37.4476H4.05842C2.82313 37.4476 1.94077 36.3905 1.94077 35.1571V23.5285ZM25.9408 21.2381C27.1761 21.2381 28.0584 22.2952 28.0584 23.5285V34.9809C28.0584 36.2143 27.1761 37.2714 25.9408 37.2714H15.882V21.0619H25.9408V21.2381ZM0.176069 14.719C0.176069 13.3095 1.23489 12.2524 2.29372 12.2524H14.1172V19.4762H2.29372C1.05842 19.4762 0.176069 18.2428 0.176069 17.0095V14.719ZM27.7055 12.2524C28.9408 12.2524 29.8231 13.4857 29.8231 14.8952V17.0095C29.8231 18.419 28.9408 19.4762 27.7055 19.4762H15.882V12.2524H27.7055ZM25.5878 2.56188C25.7643 2.56188 26.8231 2.56188 27.529 4.1476C28.0584 5.20474 27.529 6.08569 27.1761 6.79045C26.4702 7.8476 24.529 8.72855 22.5878 8.72855C21.882 8.72855 20.4702 8.72855 19.2349 8.72855C21.1761 5.73331 23.6467 2.56188 25.5878 2.56188ZM20.9996 10.4905C21.7055 10.4905 22.2349 10.4905 22.7643 10.4905C23.9996 10.4905 28.0584 10.1381 29.4702 7.49522C30.1761 6.26188 30.529 4.49998 29.6467 2.91426C28.5878 0.799979 26.9996 0.623788 26.1172 0.623788C21.7055 0.095217 17.2937 8.02379 16.7643 9.08093L15.882 10.4905H17.6467C17.6467 10.4905 19.4114 10.4905 20.9996 10.4905ZM7.41136 8.72855C5.29372 8.55236 3.35254 7.67141 2.64666 6.61426C2.29372 5.9095 1.7643 5.02855 2.29372 3.97141C2.9996 2.38569 4.05842 2.38569 4.23489 2.38569C6.35254 2.56188 8.82313 5.73331 10.7643 8.72855C9.52901 8.72855 8.11725 8.72855 7.41136 8.72855ZM3.88195 0.447598C2.9996 0.623788 1.41136 0.799979 0.352539 2.73807C-0.353343 4.49998 -0.000401888 6.26188 0.705481 7.49522C2.11725 9.96188 6.17607 10.3143 7.41136 10.4905C7.94077 10.4905 8.29372 10.4905 9.17607 10.4905C10.5878 10.4905 12.529 10.4905 12.529 10.4905H14.2937L13.2349 8.90474C12.7055 8.02379 8.29372 -0.0809735 3.88195 0.447598Z" fill="#FFB30F"/>
</g>
<defs>
<clipPath id="clip0">
<path d="M0 0.447266H30V37.4473H0V0.447266Z" fill="white"/>
</clipPath>
</defs>
</svg>
