<svg width="13" height="17" viewBox="0 0 13 17" fill="none" xmlns="http://www.w3.org/2000/svg">
<path d="M7.12109 7.28557H7.57327L7.4037 6.07129H7.29066L7.12109 7.28557Z" fill="#D83603"/>
<path d="M8.87335 1.82143L9.52335 0.455357C9.09944 0.242857 8.67553 0.0910714 8.22335 0C7.74292 0 7.26248 0.121429 6.81031 0.364286C6.55596 0.516071 6.24509 0.576786 5.96248 0.607143C5.62335 0.576786 5.28422 0.455357 5.00161 0.273214C4.74727 0.121429 4.49292 0.0303571 4.23857 0C3.95596 0.0303571 3.67335 0.182143 3.44727 0.364286L4.12553 1.82143H8.87335Z" fill="#D83603"/>
<path d="M9.60802 2.73228C9.60802 2.55014 9.49497 2.42871 9.32541 2.42871H3.67323C3.50367 2.42871 3.39062 2.55014 3.39062 2.73228C3.39062 2.91443 3.50367 3.03585 3.67323 3.03585H9.32541C9.49497 3.03585 9.60802 2.91443 9.60802 2.73228Z" fill="#D83603"/>
<path d="M5.14258 6.67815H5.59475L5.42519 5.46387H5.31214L5.14258 6.67815Z" fill="#D83603"/>
<path d="M6.5 16.9997C9.8913 16.9997 13 14.8444 13 12.4461C13 7.80151 10.513 4.79615 9.35435 3.64258H7.63043V5.46401C7.77174 5.46401 7.88478 5.58544 7.91304 5.70686L8.19565 7.52829C8.22391 7.68008 8.11087 7.86222 7.96957 7.89258C7.9413 7.89258 7.9413 7.89258 7.91304 7.89258H6.78261C6.61304 7.89258 6.5 7.77115 6.5 7.58901C6.5 7.55865 6.5 7.55865 6.5 7.52829L6.78261 5.70686C6.81087 5.55508 6.92391 5.46401 7.06522 5.46401V3.64258H5.65217V4.85686C5.79348 4.85686 5.90652 4.97829 5.93478 5.09972L6.21739 6.92115C6.24565 7.07294 6.13261 7.25508 5.9913 7.28544C5.96304 7.28544 5.96304 7.28544 5.93478 7.28544H4.80435C4.63478 7.28544 4.52174 7.16401 4.52174 6.98186C4.52174 6.95151 4.52174 6.95151 4.52174 6.92115L4.80435 5.09972C4.83261 4.94794 4.94565 4.85686 5.08696 4.85686V3.64258H3.64565C2.48696 4.79615 0 7.80151 0 12.4461C0 14.8444 3.1087 16.9997 6.5 16.9997Z" fill="#D83603"/>
</svg>
