<svg width="20" height="20" viewBox="0 0 20 20" fill="none" xmlns="http://www.w3.org/2000/svg">
<path d="M10.0002 4C7.60387 4 5.6543 5.94958 5.6543 8.34592C5.6543 11.3199 9.54349 15.6858 9.70908 15.8702C9.86461 16.0434 10.1362 16.0431 10.2914 15.8702C10.457 15.6858 14.3462 11.3199 14.3462 8.34592C14.3461 5.94958 12.3966 4 10.0002 4ZM10.0002 10.5325C8.79457 10.5325 7.81371 9.55159 7.81371 8.34592C7.81371 7.14025 8.79459 6.15939 10.0002 6.15939C11.2059 6.15939 12.1867 7.14027 12.1867 8.34595C12.1867 9.55162 11.2059 10.5325 10.0002 10.5325Z" fill="#D83603"/>
</svg>
