<svg width="194" height="72" viewBox="0 0 194 72" fill="none" xmlns="http://www.w3.org/2000/svg">
<g clip-path="url(#clip0_6893_25512)">
<mask id="mask0_6893_25512" style="mask-type:luminance" maskUnits="userSpaceOnUse" x="0" y="0" width="194" height="72">
<path d="M194 0H0V72H194V0Z" fill="white"/>
</mask>
<g mask="url(#mask0_6893_25512)">
<path d="M0.00790493 22.8352C0.00790493 18.7373 -0.485969 11.8594 6.33366 11.8594C11.7603 11.8594 11.4992 16.8057 11.4992 17.977H9.58397C9.69974 15.6356 8.88803 13.4395 6.33366 13.4395C1.80614 13.4395 1.86522 17.5088 1.86522 22.8352C1.86522 28.1616 1.80614 32.2309 6.33366 32.2309C8.74273 32.2309 9.64185 30.0646 9.67138 27.343H11.6445C11.6445 28.8647 11.296 33.811 6.33366 33.811C-0.485969 33.8109 0.00790493 26.9331 0.00790493 22.8352Z" fill="#3C8323"/>
<path d="M20.7803 33.4012V12.2695H26.6133C29.8932 12.2695 31.5768 13.616 31.5768 17.3326C31.5768 19.879 31.1704 21.6354 28.5286 22.3671V22.4255C31.2862 23.0105 32.0116 24.8551 32.0116 27.5183C32.0116 31.3231 30.2121 33.4012 26.7008 33.4012H20.7803ZM26.2069 21.664C28.8771 21.664 29.7195 19.8206 29.7195 17.4208C29.7195 13.908 27.8031 13.8496 26.3239 13.8496H22.6376V21.6641L26.2069 21.664ZM22.6376 31.8212H25.5984C28.6739 31.8212 30.1543 30.7666 30.1543 27.6649C30.1543 25.7917 29.6025 23.2453 26.4101 23.2453H22.6376V31.8212Z" fill="#3C8323"/>
<path d="M41.4665 33.4012H39.4934L45.3265 12.2695H47.6481L53.4528 33.4012H51.6534L50.1446 27.8401H42.9174C42.9469 27.8401 41.4665 33.4012 41.4665 33.4012ZM46.4879 14.4942H46.43L43.3534 26.26H49.7087L46.4879 14.4942Z" fill="#3C8323"/>
<path d="M61.8646 38.1139H60.0073V31.8211H61.3129C62.6138 29.9871 63.5322 27.9059 64.0126 25.7035C64.7357 22.4839 64.7972 20.4057 64.7972 13.821V12.2695H74.7218V31.8211H76.0261V38.1139H74.1688V33.4012H61.8646V38.1139ZM72.8644 31.8211V13.8495H66.6544V14.9625C66.6544 20.084 66.5647 22.8937 65.9857 25.5569C65.4044 28.1618 64.36 30.8548 63.403 31.8211H72.8644Z" fill="#3C8323"/>
<path d="M91.1871 33.4012H85.731V12.2695H87.5883V21.664H90.8398C94.4386 21.664 96.0928 23.5086 96.0928 28.045C96.0927 33.2261 92.9287 33.4012 91.1871 33.4012ZM90.7523 23.2453H87.5883V31.8212H90.724C92.4064 31.8212 94.2354 31.528 94.2354 27.6935C94.2354 24.1521 92.6971 23.2453 90.7523 23.2453Z" fill="#3C8323"/>
<path d="M114.079 13.8496H106.506V21.664H110.074C112.744 21.664 115.877 22.3957 115.877 27.5183C115.877 31.3231 114.079 33.4012 110.568 33.4012H104.648V12.2695H114.079V13.8496ZM106.506 31.8212H109.464C112.657 31.8212 114.02 30.738 114.02 27.3718C114.02 24.7384 112.947 23.2453 109.696 23.2453H106.506V31.8212Z" fill="#3C8323"/>
<path d="M124.755 33.4012H122.779L128.613 12.2695H130.936L136.74 33.4012H134.939L133.431 27.8401H126.205C126.234 27.8401 124.755 33.4012 124.755 33.4012ZM129.774 14.4942H129.717L126.64 26.26H132.997L129.774 14.4942Z" fill="#3C8323"/>
<path d="M0.471191 66.4022V45.2705H2.32852V54.7532H10.5707V45.2705H12.428V66.4022H10.5707V56.3332H2.32852V66.4022H0.471191Z" fill="#3C8323"/>
<path d="M21.3093 66.4022H19.3362L25.1692 45.2705H27.4909L33.2956 66.4022H31.4962L29.9874 60.8422H22.7602C22.7897 60.8423 21.3093 66.4022 21.3093 66.4022ZM26.3307 47.4952H26.2728L23.1961 59.2598H29.5514L26.3307 47.4952Z" fill="#3C8323"/>
<path d="M49.2104 66.4022V45.2705H61.1672V66.4022H59.3099V46.8506H51.0678V66.4022H49.2104Z" fill="#3C8323"/>
<path d="M75.0712 56.5692H71.5314V66.4022H69.6741V45.2705H75.4185C77.1601 45.2705 80.0335 45.5041 80.0335 50.392C80.0335 54.6364 78.6677 56.5692 75.0712 56.5692ZM74.953 46.8506H71.5313V54.9867H74.9837C76.9284 54.9867 78.1761 54.0502 78.1761 50.7435C78.1761 47.1437 76.6378 46.8506 74.953 46.8506Z" fill="#3C8323"/>
<path d="M87.3445 66.4022V45.2705H89.2018V62.5105H89.2609L97.444 45.2705H99.3013V66.4022H97.4439V49.1634H97.3872L89.2018 66.4022H87.3445Z" fill="#3C8323"/>
<path d="M113.205 56.5692H109.665V66.4022H107.808V45.2705H113.553C115.294 45.2705 118.168 45.5041 118.168 50.392C118.168 54.6364 116.802 56.5692 113.205 56.5692ZM113.087 46.8506H109.665V54.9867H113.118C115.062 54.9867 116.31 54.0502 116.31 50.7435C116.31 47.1437 114.772 46.8506 113.087 46.8506Z" fill="#3C8323"/>
<path d="M161.299 71.1138H159.441V64.8222H160.746C162.047 62.9882 162.965 60.907 163.444 58.7045C164.172 55.4848 164.229 53.4067 164.229 46.822V45.2705H174.153V64.8222H175.46V71.1138H173.603V66.4022H161.299V71.1138ZM172.296 64.8222V46.8506H166.086V47.9635C166.086 53.085 166.001 55.8948 165.42 58.5592C164.839 61.164 163.794 63.857 162.837 64.8222H172.296Z" fill="#3C8323"/>
<path d="M193.015 45.2705V46.8506H185.385V54.7532H192.67V56.3332H185.385V64.8222H193.218V66.4022H183.528V45.2705H193.015Z" fill="#3C8323"/>
<path d="M137.441 48.7994C136.903 48.575 136.344 48.4075 135.772 48.2998C134.657 49.3863 133.77 50.6881 133.164 52.1277C132.558 53.5673 132.246 55.1151 132.246 56.6789C132.246 58.2428 132.558 59.7906 133.164 61.2302C133.77 62.6697 134.657 63.9716 135.772 65.0581C136.344 64.9503 136.903 64.7829 137.441 64.5585C136.272 63.611 135.329 62.4113 134.681 61.0476C134.033 59.684 133.697 58.1911 133.697 56.6789C133.697 55.1668 134.033 53.6739 134.681 52.3102C135.329 50.9466 136.272 49.7468 137.441 48.7994Z" fill="#F5D58F"/>
<path d="M143.86 44.9658C142.967 44.974 142.077 45.087 141.209 45.3026C141.791 45.6685 142.345 46.0791 142.865 46.5307C143.195 46.48 143.527 46.4461 143.86 46.4291C146.556 46.4291 149.141 47.509 151.047 49.4313C152.953 51.3535 154.024 53.9607 154.024 56.6792C154.024 59.3977 152.953 62.0048 151.047 63.9271C149.141 65.8493 146.556 66.9293 143.86 66.9293C143.527 66.9123 143.195 66.8784 142.865 66.8277C142.345 67.2793 141.791 67.6899 141.209 68.0558C142.803 68.4348 144.458 68.4694 146.065 68.1573C147.673 67.8452 149.197 67.1934 150.537 66.2448C151.877 65.2963 153.003 64.0724 153.841 62.6536C154.679 61.2349 155.209 59.6534 155.397 58.0131C155.586 56.3728 155.428 54.7109 154.934 53.1366C154.44 51.5623 153.621 50.1113 152.531 48.879C151.441 47.6466 150.106 46.6608 148.611 45.9864C147.117 45.3119 145.498 44.9641 143.86 44.9658Z" fill="#F5D58F"/>
<path d="M134.182 68.3925C131.884 68.3925 129.639 67.7056 127.729 66.4185C125.819 65.1314 124.331 63.302 123.451 61.1617C122.572 59.0213 122.342 56.6662 122.791 54.394C123.239 52.1218 124.345 50.0347 125.969 48.3966C127.593 46.7584 129.663 45.6429 131.916 45.1909C134.169 44.7389 136.504 44.9709 138.626 45.8575C140.748 46.744 142.562 48.2453 143.838 50.1716C145.115 52.0978 145.796 54.3625 145.796 56.6792C145.792 59.7847 144.568 62.7621 142.39 64.958C140.213 67.1539 137.261 68.3891 134.182 68.3925ZM134.182 46.4291C132.171 46.4291 130.206 47.0303 128.535 48.1566C126.864 49.2829 125.561 50.8837 124.792 52.7567C124.023 54.6296 123.821 56.6906 124.214 58.6789C124.606 60.6672 125.574 62.4936 126.995 63.9271C128.416 65.3606 130.227 66.3368 132.199 66.7323C134.17 67.1278 136.214 66.9248 138.071 66.149C139.928 65.3732 141.515 64.0595 142.632 62.3738C143.749 60.6882 144.345 58.7065 144.345 56.6792C144.341 53.9617 143.27 51.3565 141.364 49.435C139.459 47.5134 136.876 46.4324 134.182 46.4291Z" fill="#F5D58F"/>
<path d="M66.3523 6.15804C69.0048 5.13579 71.7012 4.23028 74.4413 3.44151C77.1783 2.65792 79.9402 1.92073 82.7477 1.39698C88.3775 0.37875 94.0923 -0.0836796 99.811 0.0162529C105.545 0.052871 111.259 0.720191 116.849 2.00638C119.645 2.68234 122.394 3.53947 125.08 4.57241C127.753 5.63785 130.359 6.8665 132.884 8.25152C137.832 11.1252 142.592 14.3143 147.138 17.7993C151.721 21.1368 156.346 24.3912 161.468 26.5637C166.597 28.7547 172.114 29.8706 177.685 29.8434C180.474 29.8487 183.256 29.5316 185.974 28.8985C188.715 28.2186 191.399 27.3211 194 26.2143C189.088 29.2776 183.484 31.0301 177.715 31.3072C174.825 31.4061 171.932 31.2217 169.077 30.7567C166.22 30.2416 163.426 29.4161 160.745 28.2948C155.511 25.8973 150.581 22.875 146.061 19.2926C141.593 15.8298 136.908 12.6599 132.037 9.80233C129.585 8.44384 127.053 7.23693 124.455 6.18827C121.844 5.17575 119.173 4.32697 116.457 3.64677C110.991 2.34354 105.4 1.64433 99.7832 1.5615C94.1543 1.43268 88.5256 1.82442 82.9676 2.73178C80.1809 3.14486 77.3875 3.57742 74.6196 4.1675C71.8516 4.75229 69.0969 5.42468 66.3523 6.15804Z" fill="#3C8323"/>
<path d="M150.448 21.8685L150.483 21.7413C150.647 21.127 150.886 20.5356 151.195 19.981L151.997 18.785L152.883 17.6739L153.862 16.6438C155.238 15.3464 156.811 14.2785 158.52 13.4803C161.916 12.015 165.515 11.0819 169.19 10.7134C172.804 10.2403 176.414 10.0034 179.969 9.57501C183.491 9.26469 186.95 8.44254 190.238 7.13407L192.09 6.31934L191.334 8.19324C190.594 10.116 189.744 11.9939 188.788 13.8172C187.836 15.6699 186.693 17.4161 185.378 19.0266C184.054 20.6756 182.479 22.1027 180.713 23.2548C178.919 24.3845 176.945 25.1915 174.877 25.6398C172.841 26.0667 170.763 26.2565 168.685 26.2054C166.632 26.176 164.585 25.9967 162.558 25.669C160.537 25.3424 158.538 24.8843 156.575 24.2974C155.594 24.0132 154.625 23.6899 153.662 23.3549L152.226 22.831C151.593 22.5909 150.996 22.2673 150.448 21.8685ZM151.791 21.2174L151.876 21.2119C152.184 21.1393 152.506 21.1596 152.803 21.2704L154.206 21.7755C155.145 22.0978 156.088 22.4084 157.04 22.6798C158.937 23.2388 160.868 23.6733 162.821 23.9806C166.688 24.6527 170.642 24.6398 174.505 23.9426C176.381 23.544 178.175 22.8195 179.805 21.8013C181.425 20.75 182.87 19.4465 184.085 17.9391C185.334 16.42 186.42 14.7719 187.324 13.0223C188.254 11.2618 189.082 9.44834 189.804 7.59112L190.9 8.65013C187.459 10.0147 183.84 10.8681 180.156 11.1836C176.539 11.6048 172.935 11.8102 169.384 12.2543C165.86 12.585 162.405 13.4484 159.135 14.8154C157.549 15.5224 156.085 16.4797 154.798 17.6514L153.888 18.5774C153.615 18.9139 153.329 19.2406 153.066 19.5854L152.349 20.6496C152.207 20.8779 152.016 21.0717 151.791 21.2174Z" fill="#3C8323"/>
<path d="M151.929 20.068C156.367 19.2912 160.853 19.4865 165.251 19.2481C167.445 19.1673 169.625 18.87 171.761 18.3604C172.283 18.2043 172.812 18.0657 173.33 17.8959C173.838 17.6988 174.355 17.521 174.857 17.309L177.819 15.8857L178.04 16.2245C177.59 16.5633 177.114 16.8646 176.664 17.2194C176.175 17.5051 175.653 17.7279 175.149 17.9848C174.63 18.21 174.097 18.4001 173.571 18.609C173.037 18.7904 172.492 18.9395 171.952 19.1058C169.772 19.6568 167.541 19.9788 165.295 20.0668C160.837 20.293 156.393 20.0635 152.053 20.8006L151.929 20.068Z" fill="#3C8323"/>
<path d="M150.139 21.6094L150.237 21.6621C151.991 22.5524 153.55 23.7899 154.82 25.3008C156.003 26.829 156.807 28.621 157.163 30.5268C157.567 32.3909 157.726 34.2594 158.095 36.0591C158.428 37.8494 159.083 39.563 160.028 41.115L160.868 42.4469L159.465 41.7502C157.503 40.8071 155.619 39.7088 153.829 38.4655C151.998 37.2274 150.388 35.6851 149.069 33.904C147.711 32.0721 146.989 29.8408 147.014 27.554C147.042 26.4106 147.271 25.2814 147.69 24.2186C147.909 23.6688 148.215 23.1584 148.595 22.7073C148.791 22.4765 149.012 22.268 149.252 22.0855C149.372 21.9919 149.498 21.9065 149.63 21.8297C149.789 21.7344 149.961 21.6604 150.139 21.6094ZM150.231 22.4343L150.203 22.5039C150.17 22.5892 150.232 22.5531 150.103 22.6301C150.002 22.6897 149.905 22.7562 149.813 22.8293C149.625 22.9734 149.453 23.1382 149.301 23.3206C148.988 23.6994 148.736 24.1252 148.553 24.5825C148.178 25.5388 147.972 26.554 147.945 27.5821C147.925 29.6652 148.582 31.6977 149.817 33.3679C151.072 35.068 152.604 36.5413 154.347 37.7254C156.094 38.9465 157.934 40.0262 159.85 40.9544L159.287 41.5894C158.288 39.9449 157.6 38.1283 157.255 36.2314C156.886 34.3656 156.736 32.495 156.356 30.7027C156.034 28.918 155.297 27.2358 154.205 25.7941C153.076 24.4581 151.732 23.3225 150.231 22.4343Z" fill="#3C8323"/>
<path d="M150.597 22.307C150.113 24.299 150.187 26.3873 150.81 28.3394C151.13 29.3112 151.538 30.2515 152.027 31.1488C152.511 32.0588 153.061 32.9381 153.597 33.8657C152.76 33.198 152.031 32.4033 151.436 31.5098C150.836 30.6065 150.368 29.621 150.046 28.5834C149.406 26.4894 149.337 24.26 149.847 22.1299L150.597 22.307Z" fill="#3C8323"/>
</g>
</g>
<defs>
<clipPath id="clip0_6893_25512">
<rect width="194" height="72" fill="white"/>
</clipPath>
</defs>
</svg>
