<svg width="8" height="9" viewBox="0 0 8 9" fill="none" xmlns="http://www.w3.org/2000/svg">
<path d="M7.0184 6.61746L5.3832 2.74609L4 5.00919L2.6224 2.74609L0.9816 6.61746H0.5V7.20418H2.9752V6.61746H2.6056L2.964 5.65354L4 7.24609L5.036 5.65354L5.3944 6.61746H5.0248V7.20418H7.5V6.61746H7.0184Z" fill="#29EDB2"/>
<path d="M7.0184 6.61746L5.3832 2.74609L4 5.00919L2.6224 2.74609L0.9816 6.61746H0.5V7.20418H2.9752V6.61746H2.6056L2.964 5.65354L4 7.24609L5.036 5.65354L5.3944 6.61746H5.0248V7.20418H7.5V6.61746H7.0184Z" fill="url(#paint0_linear)"/>
<path d="M7.0184 6.61746L5.3832 2.74609L4 5.00919L2.6224 2.74609L0.9816 6.61746H0.5V7.20418H2.9752V6.61746H2.6056L2.964 5.65354L4 7.24609L5.036 5.65354L5.3944 6.61746H5.0248V7.20418H7.5V6.61746H7.0184Z" fill="#D64582"/>
<path d="M7.0184 6.61746L5.3832 2.74609L4 5.00919L2.6224 2.74609L0.9816 6.61746H0.5V7.20418H2.9752V6.61746H2.6056L2.964 5.65354L4 7.24609L5.036 5.65354L5.3944 6.61746H5.0248V7.20418H7.5V6.61746H7.0184Z" fill="#B1C86F"/>
<path d="M7.0184 6.61746L5.3832 2.74609L4 5.00919L2.6224 2.74609L0.9816 6.61746H0.5V7.20418H2.9752V6.61746H2.6056L2.964 5.65354L4 7.24609L5.036 5.65354L5.3944 6.61746H5.0248V7.20418H7.5V6.61746H7.0184Z" fill="#FFC24A"/>
<defs>
<linearGradient id="paint0_linear" x1="0.00317795" y1="2.74609" x2="8.42913" y2="4.55891" gradientUnits="userSpaceOnUse">
<stop stop-color="#A70C72"/>
<stop offset="1" stop-color="#E50799"/>
</linearGradient>
</defs>
</svg>
