<svg width="30" height="31" viewBox="0 0 30 31" fill="none" xmlns="http://www.w3.org/2000/svg">
<g clip-path="url(#clip0)">
<path d="M10.0191 24.4038C13.9671 26.6832 19.0155 25.3305 21.2949 21.3824C23.5743 17.4344 22.2216 12.3861 18.2735 10.1067C14.3255 7.82731 9.27719 9.18 6.99779 13.128C4.7184 17.0761 6.07109 22.1244 10.0191 24.4038Z" stroke="#F0440D" stroke-miterlimit="10" stroke-linecap="round" stroke-linejoin="round"/>
<path d="M18.2039 7.09901C18.2039 7.09901 19.0451 5.36601 20.4553 6.18019C21.8652 6.99424 20.7852 8.5893 20.7852 8.5893" stroke="#F0440D" stroke-miterlimit="10" stroke-linecap="round" stroke-linejoin="round"/>
<path d="M20.9332 11.6234L21.4341 10.7559C21.8014 10.1196 21.5701 9.37948 20.9336 9.01201L17.9373 7.28211C17.3009 6.91464 16.501 7.05943 16.1337 7.69569L15.6328 8.56324" stroke="#F0440D" stroke-miterlimit="10" stroke-linecap="round" stroke-linejoin="round"/>
<path d="M7.62778 12.2594L10.3623 12.7143L12.2537 15.0321L15.0834 15.4401L17.0187 17.6813L19.8266 18.1271L21.7241 20.398" stroke="#F0440D" stroke-miterlimit="10" stroke-linecap="round" stroke-linejoin="round"/>
<path d="M6.12733 15.2937L8.63417 15.7105L10.5255 18.0285L13.3553 18.4363L15.2906 20.6775L18.0983 21.1235L19.8533 23.223" stroke="#F0440D" stroke-miterlimit="10" stroke-linecap="round" stroke-linejoin="round"/>
</g>
<defs>
<clipPath id="clip0">
<path d="M12.1387 0.223633L29.4592 10.2236L17.9592 30.1422L0.638672 20.1422L12.1387 0.223633Z" fill="white"/>
</clipPath>
</defs>
</svg>
