<svg width="57" height="57" viewBox="0 0 57 57" fill="none" xmlns="http://www.w3.org/2000/svg">
<g clip-path="url(#clip0)">
<path d="M17.9658 44.1338C10.9476 40.0818 8.53242 31.0682 12.5844 24.05C16.6363 17.0318 25.65 14.6166 32.6681 18.6686C39.6863 22.7205 42.1015 31.7341 38.0496 38.7523C33.9976 45.7705 24.984 48.1857 17.9658 44.1338Z" fill="white"/>
<path d="M34.4278 36.6972C37.9352 30.6222 36.5941 23.0794 31.6442 18.5201C25.2208 16.5129 18.018 19.1229 14.5105 25.198C11.0031 31.273 12.3442 38.8158 17.2942 43.375C23.7336 45.3545 30.9364 42.7445 34.4278 36.6972Z" fill="#D83603"/>
<path d="M32.6526 18.6963C32.181 18.424 31.6934 18.1795 31.2176 17.9787C37.1974 22.3558 39.0397 30.6319 35.2601 37.1785C31.4804 43.7251 23.3919 46.2676 16.6113 43.2775C17.0231 43.5892 17.4787 43.8892 17.9503 44.1615C24.9685 48.2134 33.9821 45.7983 38.0341 38.7801C42.086 31.7619 39.6708 22.7482 32.6526 18.6963Z" fill="#BA1904"/>
<path d="M31.2171 17.9785C30.7135 17.7617 30.1938 17.5727 29.702 17.3997C34.6519 21.9589 35.993 29.5017 32.4856 35.5767C28.9781 41.6518 21.7914 44.234 15.368 42.2268C15.7477 42.5941 16.1713 42.9495 16.6268 43.2495C23.4074 46.2396 31.4959 43.6972 35.2756 37.1505C39.0553 30.6039 37.1969 22.3556 31.2171 17.9785Z" fill="#F0440D"/>
<path d="M37.1042 14.8304C36.5757 15.7458 34.2226 15.9777 34.2226 15.9777C34.2226 15.9777 33.2309 13.8517 33.7754 12.9085C34.3199 11.9654 35.4853 11.6766 36.4007 12.2051C37.3161 12.7336 37.6327 13.915 37.1042 14.8304Z" fill="white"/>
<path d="M33.9024 16.5326C33.7914 16.4685 33.6965 16.3767 33.6613 16.2455C33.4843 15.8474 32.548 13.7534 33.2207 12.5883C33.9254 11.3678 35.5006 10.9457 36.7211 11.6504C37.9417 12.3551 38.3638 13.9303 37.6591 15.1508C36.9864 16.3159 34.7326 16.5681 34.2716 16.5978C34.1403 16.633 34.0134 16.5967 33.9024 16.5326ZM36.0805 12.76C35.4702 12.4076 34.6826 12.6187 34.3303 13.229C34.1381 13.5618 34.3288 14.4487 34.6231 15.2843C35.4779 15.1491 36.3573 14.8431 36.5495 14.5102C36.9018 13.8999 36.6908 13.1123 36.0805 12.76Z" fill="#333333"/>
<path d="M38.4909 15.6312C37.9624 16.5466 35.6093 16.7785 35.6093 16.7785C35.6093 16.7785 34.6176 14.6525 35.1621 13.7093C35.7066 12.7662 36.872 12.4773 37.7874 13.0059C38.7029 13.5344 39.0194 14.7158 38.4909 15.6312Z" fill="#FFC839"/>
<path d="M34.5229 20.7746C34.4952 20.7586 34.4674 20.7426 34.4119 20.7106C33.1019 19.5843 31.6317 18.7355 30.0013 18.1641C29.8188 18.0957 29.6844 17.9442 29.6215 17.7969C29.5469 17.6058 29.5715 17.4351 29.6676 17.2687L30.8207 15.2714C31.3012 14.4392 32.3513 14.1578 33.1835 14.6383L35.902 16.2078C36.7342 16.6883 37.0156 17.7384 36.5351 18.5706L35.382 20.5679C35.2859 20.7343 35.1066 20.8527 34.9476 20.8719C34.7886 20.891 34.6616 20.8547 34.5229 20.7746ZM32.9732 18.1416C33.5558 18.4779 34.1223 18.8419 34.6568 19.2615L35.4255 17.93C35.5536 17.7081 35.4833 17.4455 35.2614 17.3174L32.5429 15.7479C32.321 15.6198 32.0584 15.6901 31.9303 15.912L31.1615 17.2435C31.7921 17.4966 32.3907 17.8052 32.9732 18.1416Z" fill="#333333"/>
<path d="M15.0851 21.1289C15.0296 21.0969 14.9742 21.0649 14.9347 21.0051C14.6776 20.7457 14.7311 20.3327 14.9745 20.1034C15.6128 19.5103 16.2906 18.9769 17.0196 18.5471C17.3184 18.3498 17.7154 18.431 17.9127 18.7299C18.11 19.0287 18.0288 19.4257 17.7299 19.623C17.0724 20.0571 16.4267 20.535 15.8641 21.0609C15.625 21.2187 15.307 21.2571 15.0851 21.1289Z" fill="black"/>
<path d="M17.6456 44.6887C10.3223 40.4605 7.80156 31.0531 12.0297 23.7298C12.4301 23.0363 12.8859 22.3748 13.3813 21.7731C13.6129 21.5 14.0024 21.466 14.2916 21.6699C14.5647 21.9016 14.5987 22.2911 14.3948 22.5802C13.9592 23.1424 13.5354 23.7484 13.167 24.3864C9.29124 31.0995 11.6009 39.7193 18.314 43.5951C25.027 47.4709 33.6469 45.1612 37.5226 38.4481C41.3984 31.7351 39.0887 23.1153 32.3757 19.2395C28.3096 16.9289 23.4277 16.7364 19.2311 18.7519C18.9205 18.9054 18.5279 18.7527 18.3743 18.4421C18.2208 18.1315 18.3735 17.7389 18.6841 17.5853C23.2787 15.3928 28.6057 15.5834 32.9886 18.1139C40.3119 22.342 42.8326 31.7494 38.6045 39.0728C34.3764 46.3961 24.9689 48.9168 17.6456 44.6887Z" fill="black"/>
<path d="M33.9024 16.5326C33.7914 16.4685 33.6965 16.3767 33.6613 16.2455C33.4843 15.8474 32.548 13.7534 33.2207 12.5883C33.9254 11.3678 35.5006 10.9457 36.7211 11.6504C37.9417 12.3551 38.3638 13.9303 37.6591 15.1508C36.9864 16.3159 34.7326 16.5681 34.2716 16.5978C34.1403 16.633 34.0134 16.5967 33.9024 16.5326ZM36.0805 12.76C35.4702 12.4076 34.6826 12.6187 34.3303 13.229C34.1381 13.5618 34.3288 14.4487 34.6231 15.2843C35.4779 15.1491 36.3573 14.8431 36.5495 14.5102C36.9018 13.8999 36.6908 13.1123 36.0805 12.76Z" fill="#333333"/>
<path d="M20.2815 13.2182C20.8943 13.572 21.6779 13.3621 22.0317 12.7492C22.3855 12.1364 22.1755 11.3528 21.5627 10.999C20.9499 10.6452 20.1663 10.8552 19.8125 11.468C19.4587 12.0808 19.6687 12.8644 20.2815 13.2182Z" fill="#D83603"/>
<path d="M46.0441 20.1025L47.2706 22.1422L44.907 22.072L42.8951 23.3146L42.9375 20.9349L41.7227 18.939L44.0746 18.9654L46.0982 17.7666L46.0441 20.1025Z" fill="#F0440D"/>
<path d="M44.0295 33.5864C44.6423 33.9402 45.4259 33.7302 45.7797 33.1174C46.1335 32.5046 45.9236 31.721 45.3108 31.3672C44.698 31.0134 43.9144 31.2233 43.5605 31.8362C43.2067 32.449 43.4167 33.2326 44.0295 33.5864Z" fill="#FFC839"/>
<path d="M5.00413 35.8364C5.61694 36.1902 6.40054 35.9802 6.75435 35.3674C7.10815 34.7546 6.89819 33.971 6.28538 33.6172C5.67256 33.2634 4.88896 33.4733 4.53516 34.0862C4.18135 34.699 4.39131 35.4826 5.00413 35.8364Z" fill="#D83603"/>
<path d="M27.1726 32.8037C27.1288 32.8155 27.0968 32.8709 27.037 32.9104L25.8241 34.9471L24.2069 33.1998C24.1514 33.1677 24.1237 33.1517 24.0682 33.1197L21.7463 32.5928L22.9038 30.5241C22.9358 30.4686 22.9241 30.4248 22.9284 30.3533L22.7125 27.9725L25.0387 28.4279C25.1102 28.4322 25.1539 28.4204 25.1977 28.4087L27.3631 27.4768L27.6388 29.8181C27.6505 29.8619 27.6622 29.9056 27.7017 29.9654L29.2591 31.7522L27.1726 32.8037Z" fill="white"/>
<path d="M25.8766 35.4957L23.9906 33.4452L21.2718 32.8371L22.6374 30.4078L22.3875 27.6375L25.1106 28.174L27.6742 27.065L27.9956 29.8396L29.8218 31.9296L27.2977 33.0984L25.8766 35.4957ZM23.115 28.4274L23.2851 30.3749C23.2926 30.4901 23.2562 30.6171 23.2082 30.7003L22.259 32.4085L24.1562 32.8381C24.2832 32.8744 24.3664 32.9224 24.4613 33.0142L25.7819 34.4425L26.7866 32.7663C26.8507 32.6554 26.9265 32.5882 27.03 32.537L28.8017 31.7106L27.5408 30.2429C27.4459 30.1511 27.3947 30.0475 27.3873 29.9323L27.1734 27.9965L25.3623 28.7631C25.2587 28.8143 25.1435 28.8218 25.0165 28.7854L23.115 28.4274Z" fill="white"/>
<path d="M32.0915 38.1219C32.0478 38.1336 32.0157 38.1891 31.9997 38.2168L31.4552 39.16L30.6999 38.354C30.6722 38.338 30.6444 38.322 30.6444 38.322L30.589 38.29L29.5134 38.0389L30.0579 37.0957C30.09 37.0402 30.0782 36.9965 30.0943 36.9687L29.9879 35.8717L31.0517 36.0791C31.0955 36.0673 31.151 36.0994 31.2107 36.0599L32.198 35.6312L32.3203 36.7005C32.3321 36.7443 32.3438 36.7881 32.3833 36.8478L33.0948 37.6655L32.0915 38.1219Z" fill="white"/>
<path d="M31.4534 39.6765L30.4293 38.5675L28.9568 38.2351L29.6818 36.9153L29.5691 35.4448L31.0299 35.7334L32.4152 35.1277L32.5834 36.6303L33.5637 37.7511L32.2061 38.3728L31.4534 39.6765ZM30.7774 38.0287C30.8328 38.0607 30.8883 38.0928 30.9 38.1365L31.3587 38.6233L31.6951 38.0407C31.7591 37.9298 31.8349 37.8626 31.9384 37.8114L32.5436 37.532L32.1009 37.0175C32.0337 36.9417 31.9825 36.8382 31.9473 36.7069L31.8867 36.0432L31.2816 36.3225C31.1781 36.3737 31.0628 36.3812 30.9358 36.3448L30.2689 36.2187L30.3295 36.8825C30.337 36.9977 30.3167 37.097 30.2526 37.2079L29.9163 37.7905L30.5672 37.9443C30.6504 37.9924 30.7219 37.9967 30.7774 38.0287Z" fill="white"/>
<path d="M25.6724 23.357C25.6287 23.3688 25.5689 23.4082 25.5369 23.4637L24.9603 24.4624L24.1656 23.5967C24.1378 23.5807 24.1101 23.5646 24.1101 23.5646C24.0824 23.5486 24.0546 23.5326 24.0546 23.5326L22.9075 23.2772L23.4841 22.2786C23.5161 22.2231 23.5044 22.1793 23.5087 22.1078L23.4066 20.9393L24.5697 21.167C24.6412 21.1713 24.685 21.1595 24.7287 21.1478L25.8035 20.6957L25.9493 21.8525C25.961 21.8963 25.9727 21.94 26.0122 21.9998L26.7909 22.8932L25.6724 23.357Z" fill="white"/>
<path d="M25.014 25.0111L23.9227 23.8263L22.3787 23.4897L23.1517 22.0867L23.0156 20.5286L24.5756 20.8375L26.0047 20.2201L26.1963 21.8102L27.2321 22.963L25.8147 23.6242L25.014 25.0111ZM24.2707 23.2875C24.3262 23.3195 24.3817 23.3516 24.3934 23.3953L24.8916 23.9419L25.2599 23.3038C25.324 23.1929 25.3998 23.1257 25.5033 23.0745L26.1682 22.7556L25.6701 22.2091C25.5751 22.1173 25.5239 22.0138 25.5165 21.8985L25.4164 21.175L24.7398 21.4501C24.6363 21.5013 24.521 21.5087 24.394 21.4724L23.7431 21.3185L23.7995 22.0538C23.8069 22.169 23.7706 22.296 23.7225 22.3792L23.3542 23.0172L24.0766 23.1754C24.1598 23.2235 24.2153 23.2555 24.2707 23.2875Z" fill="white"/>
<path d="M18.8017 37.1807C18.7579 37.1924 18.7259 37.2479 18.7099 37.2756L18.1653 38.2188L17.4378 37.4289C17.4101 37.4128 17.3823 37.3968 17.3823 37.3968C17.3546 37.3808 17.3269 37.3648 17.3269 37.3648L16.279 37.1297L16.8236 36.1865C16.8556 36.1311 16.8439 36.0873 16.8599 36.0596L16.7535 34.9625L17.8174 35.1699C17.8611 35.1582 17.9166 35.1902 17.9764 35.1507L18.9636 34.7221L19.086 35.7914C19.0977 35.8351 19.1094 35.8789 19.1489 35.9386L19.8604 36.7563L18.8017 37.1807Z" fill="white"/>
<path d="M18.2073 38.7236L17.2109 37.6306L15.7662 37.3142L16.4912 35.9944L16.3508 34.5079L17.8116 34.7965L19.1809 34.2186L19.365 35.6934L20.3453 36.8142L18.9878 37.4358L18.2073 38.7236ZM17.5313 37.0758C17.5867 37.1078 17.6422 37.1398 17.6539 37.1836L18.0849 37.6543L18.4052 37.0995C18.4693 36.9886 18.5451 36.9214 18.6486 36.8702L19.2537 36.5908L18.8388 36.0923C18.7716 36.0165 18.7204 35.913 18.6852 35.7817L18.6086 35.1457L18.0195 35.3973C17.9159 35.4485 17.8007 35.456 17.7015 35.4357L17.0623 35.3255L17.1229 35.9893C17.1303 36.1046 17.11 36.2038 17.046 36.3148L16.7256 36.8696L17.3765 37.0234C17.4043 37.0394 17.4758 37.0437 17.5313 37.0758Z" fill="white"/>
</g>
<defs>
<clipPath id="clip0">
<path d="M20.5215 0.632812L56.0285 21.1328L35.5285 56.6399L0.0214844 36.1399L20.5215 0.632812Z" fill="white"/>
</clipPath>
</defs>
</svg>
