<svg width="253" height="55" viewBox="0 0 340 74" fill="none" xmlns="http://www.w3.org/2000/svg">
<g clip-path="url(#clip0)">
<path d="M24.8528 56.902C15.4661 51.6151 12.2358 39.8543 17.6553 30.6972C23.0747 21.54 35.1302 18.3887 44.5169 23.6756C53.9036 28.9625 57.1339 40.7233 51.7145 49.8804C46.2951 59.0376 34.2395 62.1889 24.8528 56.902Z" fill="white"/>
<path d="M46.8706 47.2004C51.5617 39.2738 49.7681 29.4322 43.1476 23.4834C34.5564 20.8645 24.9228 24.2699 20.2317 32.1965C15.5406 40.123 17.3343 49.9647 23.9547 55.9135C32.5673 58.4962 42.2009 55.0908 46.8706 47.2004Z" fill="#D83603"/>
<path d="M44.4957 23.7118C43.865 23.3566 43.2128 23.0375 42.5764 22.7756C50.5742 28.4867 53.0384 39.2851 47.9831 47.827C42.9278 56.3688 32.1097 59.6862 23.0408 55.7848C23.5916 56.1915 24.2009 56.583 24.8316 56.9382C34.2183 62.2251 46.2739 59.0738 51.6933 49.9166C57.1127 40.7595 53.8824 28.9987 44.4957 23.7118Z" fill="#BA1904"/>
<path d="M42.5768 22.7753C41.9032 22.4925 41.2082 22.2458 40.5503 22.02C47.1708 27.9688 48.9645 37.8105 44.2733 45.737C39.5822 53.6636 29.97 57.0328 21.3789 54.4139C21.8868 54.8931 22.4533 55.3569 23.0626 55.7483C32.1315 59.6497 42.9497 56.3324 48.0049 47.7905C53.0602 39.2486 50.5746 28.4864 42.5768 22.7753Z" fill="#F0440D"/>
<path d="M50.4492 18.6676C49.7423 19.862 46.5951 20.1645 46.5951 20.1645C46.5951 20.1645 45.2687 17.3905 45.997 16.1599C46.7253 14.9293 48.284 14.5525 49.5083 15.2421C50.7327 15.9317 51.1561 17.4731 50.4492 18.6676Z" fill="white"/>
<path d="M46.1668 20.8886C46.0184 20.805 45.8915 20.6853 45.8444 20.514C45.6077 19.9946 44.3554 17.2624 45.2551 15.7422C46.1976 14.1497 48.3044 13.599 49.9369 14.5184C51.5693 15.4379 52.1339 17.4932 51.1913 19.0857C50.2917 20.6059 47.2772 20.9349 46.6606 20.9737C46.4851 21.0196 46.3153 20.9722 46.1668 20.8886ZM49.08 15.9662C48.2638 15.5065 47.2104 15.7818 46.7392 16.5781C46.4821 17.0124 46.7372 18.1695 47.1308 19.2599C48.2741 19.0834 49.4502 18.6842 49.7073 18.2498C50.1785 17.4536 49.8963 16.4259 49.08 15.9662Z" fill="#333333"/>
<path d="M52.3046 19.7125C51.5978 20.9069 48.4506 21.2094 48.4506 21.2094C48.4506 21.2094 47.1242 18.4355 47.8525 17.2049C48.5808 15.9743 50.1394 15.5974 51.3638 16.287C52.5881 16.9766 53.0115 18.5181 52.3046 19.7125Z" fill="#FFC839"/>
<path d="M46.9971 26.4231C46.96 26.4022 46.9228 26.3813 46.8486 26.3395C45.0965 24.87 43.1301 23.7625 40.9495 23.0169C40.7055 22.9277 40.5257 22.7299 40.4416 22.5378C40.3417 22.2885 40.3746 22.0657 40.5032 21.8486L42.0454 19.2426C42.6881 18.1567 44.0926 17.7896 45.2056 18.4165L48.8416 20.4644C49.9546 21.0913 50.331 22.4615 49.6884 23.5473L48.1461 26.1533C48.0176 26.3705 47.7777 26.5249 47.5651 26.5499C47.3524 26.5749 47.1826 26.5275 46.9971 26.4231ZM44.9244 22.9875C45.7035 23.4263 46.4612 23.9014 47.1761 24.4488L48.2043 22.7114C48.3757 22.4219 48.2816 22.0793 47.9848 21.9122L44.3488 19.8643C44.052 19.6971 43.7009 19.7889 43.5295 20.0784L42.5013 21.8158C43.3447 22.146 44.1453 22.5487 44.9244 22.9875Z" fill="#333333"/>
<path d="M20.9993 26.8863C20.9251 26.8445 20.8509 26.8027 20.7982 26.7247C20.4543 26.3863 20.5258 25.8475 20.8513 25.5482C21.7051 24.7743 22.6116 24.0784 23.5866 23.5176C23.9863 23.2602 24.5172 23.3661 24.7811 23.7561C25.0451 24.146 24.9364 24.6639 24.5367 24.9214C23.6573 25.4878 22.7936 26.1113 22.0413 26.7975C21.7215 27.0035 21.2962 27.0535 20.9993 26.8863Z" fill="black"/>
<path d="M24.4245 57.6261C14.6297 52.1093 11.2583 39.8348 16.9134 30.2795C17.4489 29.3746 18.0586 28.5115 18.7211 27.7265C19.0309 27.3701 19.5519 27.3257 19.9386 27.5918C20.3039 27.894 20.3494 28.4023 20.0766 28.7795C19.4941 29.5131 18.9272 30.3038 18.4345 31.1362C13.2507 39.8952 16.3399 51.1422 25.3185 56.1992C34.297 61.2562 45.8259 58.2426 51.0097 49.4836C56.1935 40.7246 53.1043 29.4776 44.1258 24.4206C38.6875 21.4059 32.1579 21.1546 26.5451 23.7844C26.1297 23.9848 25.6046 23.7855 25.3992 23.3802C25.1938 22.975 25.3981 22.4627 25.8135 22.2623C31.9587 19.4016 39.0834 19.6503 44.9455 22.9519C54.7403 28.4687 58.1117 40.7433 52.4567 50.2986C46.8016 59.8539 34.2194 63.1429 24.4245 57.6261Z" fill="black"/>
<path d="M46.1668 20.8886C46.0184 20.805 45.8915 20.6853 45.8444 20.514C45.6077 19.9946 44.3554 17.2624 45.2551 15.7422C46.1976 14.1497 48.3044 13.599 49.9369 14.5184C51.5693 15.4379 52.1339 17.4932 51.1913 19.0857C50.2917 20.6059 47.2772 20.9349 46.6606 20.9737C46.4851 21.0196 46.3153 20.9722 46.1668 20.8886ZM49.08 15.9662C48.2638 15.5065 47.2104 15.7818 46.7392 16.5781C46.4821 17.0124 46.7372 18.1695 47.1308 19.2599C48.2741 19.0834 49.4502 18.6842 49.7073 18.2498C50.1785 17.4536 49.8963 16.4259 49.08 15.9662Z" fill="#333333"/>
<path d="M27.9491 16.5644C28.7688 17.0261 29.8168 16.7521 30.29 15.9525C30.7632 15.1529 30.4824 14.1305 29.6628 13.6689C28.8431 13.2072 27.7951 13.4812 27.3219 14.2808C26.8487 15.0804 27.1295 16.1028 27.9491 16.5644Z" fill="#D83603"/>
<path d="M62.4054 25.5477L64.0458 28.2089L60.8845 28.1175L58.1936 29.7387L58.2503 26.6338L56.6255 24.0296L59.7712 24.064L62.4777 22.4998L62.4054 25.5477Z" fill="#F0440D"/>
<path d="M59.7108 43.1396C60.5305 43.6013 61.5785 43.3273 62.0517 42.5277C62.5249 41.7281 62.2441 40.7057 61.4245 40.2441C60.6049 39.7824 59.5568 40.0564 59.0836 40.856C58.6104 41.6556 58.8912 42.678 59.7108 43.1396Z" fill="#FFC839"/>
<path d="M7.51553 46.0752C8.33516 46.5368 9.38321 46.2628 9.85642 45.4633C10.3296 44.6637 10.0488 43.6413 9.22918 43.1796C8.40955 42.718 7.3615 42.9919 6.88829 43.7915C6.41508 44.5911 6.69591 45.6135 7.51553 46.0752Z" fill="#D83603"/>
<path d="M37.1641 42.1195C37.1056 42.1348 37.0627 42.2071 36.9828 42.2586L35.3606 44.9161L33.1976 42.6362C33.1234 42.5944 33.0863 42.5735 33.0121 42.5317L29.9066 41.8443L31.4547 39.145C31.4975 39.0726 31.4818 39.0155 31.4876 38.9222L31.1988 35.8158L34.31 36.4099C34.4057 36.4155 34.4642 36.4003 34.5227 36.385L37.419 35.1689L37.7877 38.2239C37.8033 38.281 37.819 38.3381 37.8718 38.416L39.9548 40.7475L37.1641 42.1195Z" fill="white"/>
<path d="M35.4316 45.6314L32.9091 42.9559L29.2728 42.1625L31.0993 38.9927L30.765 35.3781L34.4071 36.0782L37.8359 34.6312L38.2657 38.2515L40.7083 40.9784L37.3323 42.5034L35.4316 45.6314ZM31.7381 36.4087L31.9656 38.9498C31.9755 39.1002 31.927 39.2659 31.8627 39.3745L30.5932 41.6032L33.1306 42.1637C33.3004 42.2111 33.4117 42.2738 33.5387 42.3936L35.305 44.2571L36.6488 42.0702C36.7345 41.9254 36.8359 41.8377 36.9743 41.7709L39.3439 40.6926L37.6575 38.7776C37.5305 38.6578 37.4621 38.5227 37.4521 38.3723L37.1661 35.8465L34.7437 36.8469C34.6053 36.9137 34.4511 36.9234 34.2813 36.876L31.7381 36.4087Z" fill="white"/>
<path d="M43.7429 49.0576C43.6844 49.0729 43.6416 49.1453 43.6202 49.1815L42.8919 50.4121L41.8817 49.3606C41.8446 49.3397 41.8075 49.3188 41.8075 49.3188L41.7333 49.277L40.2947 48.9493L41.023 47.7187C41.0659 47.6463 41.0502 47.5892 41.0716 47.553L40.9294 46.1217L42.3523 46.3922C42.4108 46.3769 42.485 46.4187 42.5649 46.3672L43.8853 45.8079L44.049 47.2031C44.0647 47.2602 44.0803 47.3173 44.1331 47.3953L45.0847 48.4621L43.7429 49.0576Z" fill="white"/>
<path d="M42.8887 51.0862L41.5191 49.6391L39.5496 49.2055L40.5193 47.4835L40.3686 45.5648L42.3224 45.9413L44.1752 45.1511L44.4001 47.1115L45.7112 48.5739L43.8955 49.3851L42.8887 51.0862ZM41.9846 48.9362C42.0588 48.9779 42.133 49.0197 42.1487 49.0768L42.7622 49.7119L43.212 48.9519C43.2977 48.8071 43.3991 48.7194 43.5375 48.6526L44.3469 48.2881L43.7548 47.6168C43.6649 47.5179 43.5964 47.3828 43.5494 47.2115L43.4683 46.3455L42.659 46.71C42.5205 46.7768 42.3664 46.7865 42.1965 46.7391L41.3046 46.5745L41.3856 47.4406C41.3956 47.591 41.3684 47.7204 41.2827 47.8652L40.8329 48.6253L41.7034 48.8261C41.8148 48.8888 41.9104 48.8944 41.9846 48.9362Z" fill="white"/>
<path d="M35.1582 29.794C35.0997 29.8093 35.0198 29.8608 34.9769 29.9332L34.2058 31.2362L33.1429 30.1067C33.1058 30.0858 33.0687 30.0649 33.0687 30.0649C33.0316 30.044 32.9945 30.0231 32.9945 30.0231L31.4603 29.6898L32.2314 28.3869C32.2743 28.3145 32.2586 28.2574 32.2643 28.1641L32.1278 26.6394L33.6834 26.9365C33.779 26.9421 33.8376 26.9268 33.8961 26.9115L35.3335 26.3216L35.5285 27.8309C35.5442 27.888 35.5599 27.9451 35.6127 28.0231L36.6542 29.1888L35.1582 29.794Z" fill="white"/>
<path d="M34.2768 31.9517L32.8173 30.4057L30.7522 29.9665L31.7861 28.1359L31.6041 26.103L33.6906 26.506L35.6019 25.7005L35.8582 27.7751L37.2435 29.2793L35.3479 30.142L34.2768 31.9517ZM33.2828 29.7027C33.357 29.7445 33.4312 29.7863 33.4469 29.8434L34.1132 30.5565L34.6058 29.724C34.6915 29.5793 34.7929 29.4916 34.9313 29.4248L35.8207 29.0087L35.1544 28.2957C35.0274 28.1759 34.9589 28.0408 34.949 27.8904L34.8151 26.9464L33.9101 27.3053C33.7717 27.3721 33.6175 27.3818 33.4477 27.3344L32.5771 27.1336L32.6525 28.093C32.6624 28.2434 32.6138 28.409 32.5496 28.5176L32.0569 29.3501L33.0231 29.5565C33.1344 29.6191 33.2086 29.6609 33.2828 29.7027Z" fill="white"/>
<path d="M25.9676 47.8303C25.909 47.8456 25.8662 47.918 25.8448 47.9541L25.1165 49.1848L24.1434 48.1541C24.1063 48.1332 24.0692 48.1123 24.0692 48.1123C24.0321 48.0914 23.995 48.0705 23.995 48.0705L22.5936 47.7638L23.3219 46.5332C23.3647 46.4608 23.349 46.4037 23.3705 46.3675L23.2282 44.9361L24.6511 45.2067C24.7096 45.1914 24.7838 45.2332 24.8637 45.1817L26.1841 44.6224L26.3478 46.0176C26.3635 46.0746 26.3792 46.1317 26.432 46.2097L27.3836 47.2766L25.9676 47.8303Z" fill="white"/>
<path d="M25.1719 49.8436L23.8393 48.4174L21.907 48.0047L22.8766 46.2826L22.6889 44.343L24.6426 44.7196L26.474 43.9655L26.7203 45.8898L28.0315 47.3522L26.2158 48.1634L25.1719 49.8436ZM24.2677 47.6935C24.3419 47.7353 24.4161 47.7771 24.4318 47.8342L25.0082 48.4484L25.4366 47.7245C25.5223 47.5797 25.6237 47.4921 25.7621 47.4253L26.5715 47.0607L26.0165 46.4103C25.9266 46.3114 25.8582 46.1764 25.8111 46.0051L25.7086 45.1752L24.9207 45.5036C24.7822 45.5704 24.6281 45.5801 24.4954 45.5536L23.6405 45.4099L23.7216 46.2759C23.7315 46.4263 23.7043 46.5558 23.6187 46.7006L23.1902 47.4245L24.0608 47.6252C24.0979 47.6461 24.1935 47.6517 24.2677 47.6935Z" fill="white"/>
</g>
<path d="M69.9932 38.7144V26.7144H72.6993V31.4629H77.6899V26.7144H80.3961V38.7144H77.6899V33.8972H72.6993V38.7144H69.9932Z" fill="#BA1904"/>
<path d="M93.9932 37.1201C92.7514 38.3201 91.1933 38.9201 89.3189 38.9201C87.4445 38.9201 85.8864 38.3201 84.6446 37.1201C83.4145 35.9201 82.7994 34.4515 82.7994 32.7144C82.7994 30.9886 83.4203 29.5258 84.6621 28.3258C85.9156 27.1144 87.4796 26.5086 89.354 26.5086C91.2284 26.5086 92.7807 27.1086 94.0107 28.3086C95.2525 29.5086 95.8734 30.9772 95.8734 32.7144C95.8734 34.4401 95.2467 35.9086 93.9932 37.1201ZM86.683 35.3886C87.3859 36.1201 88.2762 36.4858 89.354 36.4858C90.4318 36.4858 91.3163 36.1258 92.0075 35.4058C92.6987 34.6744 93.0442 33.7772 93.0442 32.7144C93.0442 31.6629 92.6928 30.7715 91.9899 30.0401C91.287 29.3086 90.3966 28.9429 89.3189 28.9429C88.2411 28.9429 87.3566 29.3086 86.6654 30.0401C85.9742 30.7601 85.6286 31.6515 85.6286 32.7144C85.6286 33.7658 85.9801 34.6572 86.683 35.3886Z" fill="#BA1904"/>
<path d="M98.274 38.7144V26.7144H103.985C105.403 26.7144 106.475 27.0686 107.201 27.7772C107.763 28.3258 108.044 29.0172 108.044 29.8515C108.044 30.9829 107.505 31.8458 106.428 32.4401C107.189 32.7258 107.763 33.1029 108.15 33.5715C108.536 34.0286 108.73 34.6458 108.73 35.4229C108.73 36.4972 108.32 37.3144 107.5 37.8744C106.68 38.4344 105.555 38.7144 104.126 38.7144H98.274ZM100.91 31.5658H103.405C104.706 31.5658 105.356 31.1315 105.356 30.2629C105.356 29.8629 105.203 29.5601 104.899 29.3544C104.594 29.1372 104.155 29.0286 103.581 29.0286H100.91V31.5658ZM100.91 36.4001H104.126C105.403 36.4001 106.041 35.9544 106.041 35.0629C106.041 34.1944 105.373 33.7601 104.038 33.7601H100.91V36.4001Z" fill="#BA1904"/>
<path d="M121.605 37.1201C120.363 38.3201 118.805 38.9201 116.93 38.9201C115.056 38.9201 113.498 38.3201 112.256 37.1201C111.026 35.9201 110.411 34.4515 110.411 32.7144C110.411 30.9886 111.032 29.5258 112.274 28.3258C113.527 27.1144 115.091 26.5086 116.966 26.5086C118.84 26.5086 120.392 27.1086 121.622 28.3086C122.864 29.5086 123.485 30.9772 123.485 32.7144C123.485 34.4401 122.858 35.9086 121.605 37.1201ZM114.295 35.3886C114.997 36.1201 115.888 36.4858 116.966 36.4858C118.043 36.4858 118.928 36.1258 119.619 35.4058C120.31 34.6744 120.656 33.7772 120.656 32.7144C120.656 31.6629 120.304 30.7715 119.601 30.0401C118.899 29.3086 118.008 28.9429 116.93 28.9429C115.853 28.9429 114.968 29.3086 114.277 30.0401C113.586 30.7601 113.24 31.6515 113.24 32.7144C113.24 33.7658 113.592 34.6572 114.295 35.3886Z" fill="#BA1904"/>
<path d="M128.592 29.0972V38.7144H125.886V26.7144H134.479V29.0972H128.592Z" fill="#BA1904"/>
<path d="M147.037 37.1201C145.795 38.3201 144.237 38.9201 142.363 38.9201C140.488 38.9201 138.93 38.3201 137.688 37.1201C136.458 35.9201 135.843 34.4515 135.843 32.7144C135.843 30.9886 136.464 29.5258 137.706 28.3258C138.959 27.1144 140.523 26.5086 142.398 26.5086C144.272 26.5086 145.824 27.1086 147.054 28.3086C148.296 29.5086 148.917 30.9772 148.917 32.7144C148.917 34.4401 148.29 35.9086 147.037 37.1201ZM139.727 35.3886C140.43 36.1201 141.32 36.4858 142.398 36.4858C143.476 36.4858 144.36 36.1258 145.051 35.4058C145.742 34.6744 146.088 33.7772 146.088 32.7144C146.088 31.6629 145.737 30.7715 145.034 30.0401C144.331 29.3086 143.44 28.9429 142.363 28.9429C141.285 28.9429 140.4 29.3086 139.709 30.0401C139.018 30.7601 138.672 31.6515 138.672 32.7144C138.672 33.7658 139.024 34.6572 139.727 35.3886Z" fill="#BA1904"/>
<path d="M150.017 41.2172V36.3315H151.177C151.657 35.2458 152.003 34.0972 152.214 32.8858C152.425 31.6744 152.53 30.0858 152.53 28.1201V26.7144H161.475V36.3315H162.951L162.599 41.2172H160.332V38.7144H152.636L152.46 41.2172H150.017ZM158.769 29.0972H155.131V30.3144C155.131 32.5772 154.762 34.5829 154.024 36.3315H158.769V29.0972Z" fill="#BA1904"/>
<path d="M164.84 38.7144V26.7144H167.547V31.4629H172.537V26.7144H175.243V38.7144H172.537V33.8972H167.547V38.7144H164.84Z" fill="#BA1904"/>
<path d="M188.788 26.7144V38.7144H186.117V30.8458L180.739 38.7144H178.191V26.7144H180.862V34.5829L186.275 26.7144H188.788Z" fill="#BA1904"/>
<path d="M202.345 26.7144V38.7144H199.674V30.8458L194.296 38.7144H191.748V26.7144H194.419V34.5829L199.832 26.7144H202.345ZM199.076 25.1201C198.561 25.5772 197.899 25.8058 197.09 25.8058C196.282 25.8058 195.614 25.5772 195.087 25.1201C194.572 24.6629 194.255 24.0229 194.138 23.2001L195.702 22.9258C195.948 23.6915 196.411 24.0744 197.09 24.0744C197.77 24.0744 198.233 23.6915 198.479 22.9258L200.043 23.2001C199.925 24.0229 199.603 24.6629 199.076 25.1201Z" fill="#BA1904"/>
<path d="M210.574 38.7144V26.7144H213.28V31.9601L218.27 26.7144H221.539L216.531 31.8058L221.767 38.7144H218.516L214.703 33.6058L213.28 35.0458V38.7144H210.574Z" fill="#BA1904"/>
<path d="M234.059 37.1201C232.817 38.3201 231.259 38.9201 229.385 38.9201C227.51 38.9201 225.952 38.3201 224.71 37.1201C223.48 35.9201 222.865 34.4515 222.865 32.7144C222.865 30.9886 223.486 29.5258 224.728 28.3258C225.981 27.1144 227.545 26.5086 229.42 26.5086C231.294 26.5086 232.846 27.1086 234.076 28.3086C235.318 29.5086 235.939 30.9772 235.939 32.7144C235.939 34.4401 235.312 35.9086 234.059 37.1201ZM226.749 35.3886C227.452 36.1201 228.342 36.4858 229.42 36.4858C230.497 36.4858 231.382 36.1258 232.073 35.4058C232.764 34.6744 233.11 33.7772 233.11 32.7144C233.11 31.6629 232.758 30.7715 232.056 30.0401C231.353 29.3086 230.462 28.9429 229.385 28.9429C228.307 28.9429 227.422 29.3086 226.731 30.0401C226.04 30.7601 225.694 31.6515 225.694 32.7144C225.694 33.7658 226.046 34.6572 226.749 35.3886Z" fill="#BA1904"/>
<path d="M238.34 38.7144V26.7144H243.365C244.818 26.7144 245.966 27.0972 246.81 27.8629C247.653 28.6286 248.075 29.6401 248.075 30.8972C248.075 32.2344 247.606 33.2744 246.669 34.0172C245.732 34.7486 244.543 35.1144 243.102 35.1144H241.046V38.7144H238.34ZM241.046 32.7658H243.19C243.857 32.7658 244.379 32.5944 244.754 32.2515C245.14 31.9086 245.334 31.4629 245.334 30.9144C245.334 30.3315 245.14 29.8858 244.754 29.5772C244.367 29.2572 243.828 29.0972 243.137 29.0972H241.046V32.7658Z" fill="#BA1904"/>
<path d="M250.078 38.7144V26.7144H260.34V38.7144H257.634V29.0972H252.784V38.7144H250.078Z" fill="#BA1904"/>
<path d="M273.94 37.1201C272.698 38.3201 271.14 38.9201 269.266 38.9201C267.392 38.9201 265.833 38.3201 264.592 37.1201C263.362 35.9201 262.747 34.4515 262.747 32.7144C262.747 30.9886 263.367 29.5258 264.609 28.3258C265.863 27.1144 267.427 26.5086 269.301 26.5086C271.176 26.5086 272.728 27.1086 273.958 28.3086C275.2 29.5086 275.821 30.9772 275.821 32.7144C275.821 34.4401 275.194 35.9086 273.94 37.1201ZM266.63 35.3886C267.333 36.1201 268.223 36.4858 269.301 36.4858C270.379 36.4858 271.263 36.1258 271.955 35.4058C272.646 34.6744 272.991 33.7772 272.991 32.7144C272.991 31.6629 272.64 30.7715 271.937 30.0401C271.234 29.3086 270.344 28.9429 269.266 28.9429C268.188 28.9429 267.304 29.3086 266.613 30.0401C265.921 30.7601 265.576 31.6515 265.576 32.7144C265.576 33.7658 265.927 34.6572 266.63 35.3886Z" fill="#BA1904"/>
<path d="M278.221 38.7144V26.7144H283.247C284.7 26.7144 285.848 27.0972 286.691 27.8629C287.535 28.6286 287.956 29.6401 287.956 30.8972C287.956 32.2344 287.488 33.2744 286.551 34.0172C285.613 34.7486 284.424 35.1144 282.983 35.1144H280.927V38.7144H278.221ZM280.927 32.7658H283.071C283.739 32.7658 284.26 32.5944 284.635 32.2515C285.022 31.9086 285.215 31.4629 285.215 30.9144C285.215 30.3315 285.022 29.8858 284.635 29.5772C284.249 29.2572 283.71 29.0972 283.018 29.0972H280.927V32.7658Z" fill="#BA1904"/>
<path d="M288.905 38.7144L294.176 26.6286H296.672L301.944 38.7144H299.114L297.99 36.0229H292.788L291.664 38.7144H288.905ZM293.755 33.6915H297.023L295.389 29.8001L293.755 33.6915Z" fill="#BA1904"/>
<path d="M306.706 38.7144V29.1486H302.963V26.7144H313.156V29.1486H309.413V38.7144H306.706Z" fill="#BA1904"/>
<path d="M325.833 26.7144V38.7144H323.162V30.8458L317.785 38.7144H315.237V26.7144H317.908V34.5829L323.32 26.7144H325.833Z" fill="#BA1904"/>
<path d="M328.794 38.7144V26.7144H334.505C335.922 26.7144 336.994 27.0686 337.721 27.7772C338.283 28.3258 338.564 29.0172 338.564 29.8515C338.564 30.9829 338.025 31.8458 336.947 32.4401C337.709 32.7258 338.283 33.1029 338.669 33.5715C339.056 34.0286 339.249 34.6458 339.249 35.4229C339.249 36.4972 338.839 37.3144 338.019 37.8744C337.199 38.4344 336.075 38.7144 334.645 38.7144H328.794ZM331.43 31.5658H333.925C335.225 31.5658 335.875 31.1315 335.875 30.2629C335.875 29.8629 335.723 29.5601 335.419 29.3544C335.114 29.1372 334.675 29.0286 334.101 29.0286H331.43V31.5658ZM331.43 36.4001H334.645C335.922 36.4001 336.561 35.9544 336.561 35.0629C336.561 34.1944 335.893 33.7601 334.558 33.7601H331.43V36.4001Z" fill="#BA1904"/>
<path d="M69.374 54.1428H70.5628V52.2288L71.6163 51.1728L73.9262 54.1428H75.3663L72.4281 50.3808L75.2406 47.5428H73.7812L70.5628 50.8617V47.5428H69.374V54.1428Z" fill="black"/>
<path d="M81.4417 54.256C83.5197 54.256 84.9887 52.7003 84.9887 50.8428C84.9887 48.9665 83.539 47.4297 81.461 47.4297C79.3831 47.4297 77.914 48.9854 77.914 50.8428C77.914 52.7191 79.3638 54.256 81.4417 54.256ZM81.461 53.1905C80.1176 53.1905 79.1608 52.1251 79.1608 50.8428C79.1608 49.5417 80.0983 48.4951 81.4417 48.4951C82.7851 48.4951 83.742 49.5605 83.742 50.8428C83.742 52.144 82.8045 53.1905 81.461 53.1905Z" fill="black"/>
<path d="M88.2614 54.1428H89.4502V52.0214H90.7936C92.282 52.0214 93.4997 51.2483 93.4997 49.768C93.4997 48.4197 92.5043 47.5428 90.9289 47.5428H88.2614V54.1428ZM89.4502 50.9748V48.5988H90.8322C91.7214 48.5988 92.2916 49.0043 92.2916 49.7774C92.2916 50.4845 91.7311 50.9748 90.8322 50.9748H89.4502Z" fill="black"/>
<path d="M96.5536 54.1428H97.7423V48.5894H100.883V54.1428H102.072V47.5428H96.5536V54.1428Z" fill="black"/>
<path d="M108.876 54.256C110.954 54.256 112.423 52.7003 112.423 50.8428C112.423 48.9665 110.973 47.4297 108.895 47.4297C106.817 47.4297 105.348 48.9854 105.348 50.8428C105.348 52.7191 106.798 54.256 108.876 54.256ZM108.895 53.1905C107.552 53.1905 106.595 52.1251 106.595 50.8428C106.595 49.5417 107.533 48.4951 108.876 48.4951C110.22 48.4951 111.176 49.5605 111.176 50.8428C111.176 52.144 110.239 53.1905 108.895 53.1905Z" fill="black"/>
<path d="M115.696 54.1428H116.885V52.0214H118.228C119.716 52.0214 120.934 51.2483 120.934 49.768C120.934 48.4197 119.939 47.5428 118.363 47.5428H115.696V54.1428ZM116.885 50.9748V48.5988H118.267C119.156 48.5988 119.726 49.0043 119.726 49.7774C119.726 50.4845 119.165 50.9748 118.267 50.9748H116.885Z" fill="black"/>
<path d="M123.408 54.1428H124.626L125.322 52.5494H128.521L129.207 54.1428H130.463L127.487 47.4957H126.385L123.408 54.1428ZM125.757 51.5217L126.916 48.8817L128.086 51.5217H125.757Z" fill="black"/>
<path d="M135.122 54.1428H136.321V48.6177H138.466V47.5428H132.977V48.6177H135.122V54.1428Z" fill="black"/>
<path d="M141.563 54.1428H142.684L146.096 49.3343V54.1428H147.266V47.5428H146.154L142.733 52.3608V47.5428H141.563V54.1428Z" fill="black"/>
<path d="M150.856 54.1428H153.987C155.495 54.1428 156.491 53.5111 156.491 52.3325C156.491 51.418 155.94 50.9748 155.147 50.7108C155.65 50.4563 156.114 50.032 156.114 49.24C156.114 48.778 155.959 48.4197 155.659 48.1274C155.273 47.7503 154.664 47.5428 153.891 47.5428H150.856V54.1428ZM152.025 50.3243V48.5705H153.736C154.5 48.5705 154.925 48.8911 154.925 49.4097C154.925 50.032 154.413 50.3243 153.649 50.3243H152.025ZM152.025 53.1151V51.3048H153.91C154.848 51.3048 155.302 51.6348 155.302 52.1911C155.302 52.804 154.809 53.1151 153.997 53.1151H152.025Z" fill="black"/>
<path d="M159.667 54.1428H162.393C163.959 54.1428 164.944 53.3131 164.944 51.9837C164.944 50.6543 163.92 49.9188 162.402 49.9188H160.846V47.5428H159.667V54.1428ZM160.846 53.1057V50.9277H162.354C163.253 50.9277 163.765 51.2954 163.765 51.9743C163.765 52.7191 163.253 53.1057 162.373 53.1057H160.846ZM165.747 54.1428H166.926V47.5428H165.747V54.1428Z" fill="black"/>
<path d="M176.895 54.1428H178.093V48.6177H180.239V47.5428H174.749V48.6177H176.895V54.1428Z" fill="black"/>
<path d="M183.336 54.1428H186.467C187.975 54.1428 188.97 53.5111 188.97 52.3325C188.97 51.418 188.419 50.9748 187.627 50.7108C188.13 50.4563 188.593 50.032 188.593 49.24C188.593 48.778 188.439 48.4197 188.139 48.1274C187.753 47.7503 187.144 47.5428 186.371 47.5428H183.336V54.1428ZM184.505 50.3243V48.5705H186.216C186.979 48.5705 187.405 48.8911 187.405 49.4097C187.405 50.032 186.892 50.3243 186.129 50.3243H184.505ZM184.505 53.1151V51.3048H186.39C187.327 51.3048 187.782 51.6348 187.782 52.1911C187.782 52.804 187.289 53.1151 186.477 53.1151H184.505Z" fill="black"/>
<path d="M195.375 54.256C197.453 54.256 198.922 52.7003 198.922 50.8428C198.922 48.9665 197.472 47.4297 195.394 47.4297C193.316 47.4297 191.847 48.9854 191.847 50.8428C191.847 52.7191 193.297 54.256 195.375 54.256ZM195.394 53.1905C194.051 53.1905 193.094 52.1251 193.094 50.8428C193.094 49.5417 194.032 48.4951 195.375 48.4951C196.719 48.4951 197.675 49.5605 197.675 50.8428C197.675 52.144 196.738 53.1905 195.394 53.1905Z" fill="black"/>
<path d="M202.195 54.1428H207.259V53.1057H203.384V51.3331H206.776V50.296H203.384V48.58H207.211V47.5428H202.195V54.1428Z" fill="black"/>
<path d="M210.506 54.1428H211.685V48.5894H215.058V47.5428H210.506V54.1428Z" fill="black"/>
<path d="M221.309 54.256C223.387 54.256 224.856 52.7003 224.856 50.8428C224.856 48.9665 223.406 47.4297 221.328 47.4297C219.25 47.4297 217.781 48.9854 217.781 50.8428C217.781 52.7191 219.231 54.256 221.309 54.256ZM221.328 53.1905C219.985 53.1905 219.028 52.1251 219.028 50.8428C219.028 49.5417 219.965 48.4951 221.309 48.4951C222.652 48.4951 223.609 49.5605 223.609 50.8428C223.609 52.144 222.672 53.1905 221.328 53.1905Z" fill="black"/>
<path d="M232.862 54.1428H234.041V48.5894H237.415V47.5428H232.862V54.1428Z" fill="black"/>
<path d="M243.665 54.256C245.743 54.256 247.212 52.7003 247.212 50.8428C247.212 48.9665 245.763 47.4297 243.685 47.4297C241.607 47.4297 240.138 48.9854 240.138 50.8428C240.138 52.7191 241.587 54.256 243.665 54.256ZM243.685 53.1905C242.341 53.1905 241.384 52.1251 241.384 50.8428C241.384 49.5417 242.322 48.4951 243.665 48.4951C245.009 48.4951 245.966 49.5605 245.966 50.8428C245.966 52.144 245.028 53.1905 243.685 53.1905Z" fill="black"/>
<path d="M250.485 54.1428H251.674V52.0214H253.017C254.506 52.0214 255.723 51.2483 255.723 49.768C255.723 48.4197 254.728 47.5428 253.152 47.5428H250.485V54.1428ZM251.674 50.9748V48.5988H253.056C253.945 48.5988 254.515 49.0043 254.515 49.7774C254.515 50.4845 253.955 50.9748 253.056 50.9748H251.674Z" fill="black"/>
<path d="M262.005 54.256C264.083 54.256 265.552 52.7003 265.552 50.8428C265.552 48.9665 264.103 47.4297 262.025 47.4297C259.947 47.4297 258.478 48.9854 258.478 50.8428C258.478 52.7191 259.927 54.256 262.005 54.256ZM262.025 53.1905C260.681 53.1905 259.724 52.1251 259.724 50.8428C259.724 49.5417 260.662 48.4951 262.005 48.4951C263.349 48.4951 264.305 49.5605 264.305 50.8428C264.305 52.144 263.368 53.1905 262.025 53.1905Z" fill="black"/>
<path d="M268.052 55.5571H269.095L269.211 54.1428H273.976V55.5571H274.962L275.126 53.1057H274.286V47.5428H269.569V48.4763C269.569 50.6825 269.269 52.0214 268.709 53.1057H268.052V55.5571ZM269.975 53.1057C270.439 52.1911 270.71 50.8711 270.71 49.3437V48.5894H273.097V53.1057H269.975Z" fill="black"/>
<path d="M277.443 54.1428H278.661L279.357 52.5494H282.556L283.242 54.1428H284.499L281.522 47.4957H280.42L277.443 54.1428ZM279.792 51.5217L280.952 48.8817L282.121 51.5217H279.792Z" fill="black"/>
<path d="M291.833 54.1428H296.723V53.1245H293.505L294.897 51.9931C296.085 51.0314 296.656 50.4751 296.656 49.438C296.656 48.2405 295.747 47.4485 294.423 47.4485C293.215 47.4485 292.577 47.9483 291.929 48.8345L292.77 49.4757C293.292 48.8157 293.717 48.4857 294.336 48.4857C294.955 48.4857 295.428 48.8628 295.428 49.5134C295.428 50.1074 295.09 50.5317 294.162 51.2954L291.833 53.2283V54.1428Z" fill="black"/>
<path d="M302.612 54.256C304.39 54.256 305.569 52.7285 305.569 50.8428C305.569 48.9383 304.4 47.4297 302.631 47.4297C300.853 47.4297 299.674 48.9571 299.674 50.8428C299.674 52.7474 300.834 54.256 302.612 54.256ZM302.631 53.2094C301.578 53.2094 300.901 52.144 300.901 50.8428C300.901 49.5134 301.568 48.4763 302.612 48.4763C303.656 48.4763 304.342 49.5417 304.342 50.8428C304.342 52.1628 303.685 53.2094 302.631 53.2094Z" fill="black"/>
<path d="M308.427 54.1428H313.317V53.1245H310.099L311.49 51.9931C312.679 51.0314 313.249 50.4751 313.249 49.438C313.249 48.2405 312.341 47.4485 311.017 47.4485C309.809 47.4485 309.171 47.9483 308.523 48.8345L309.364 49.4757C309.886 48.8157 310.311 48.4857 310.93 48.4857C311.548 48.4857 312.022 48.8628 312.022 49.5134C312.022 50.1074 311.684 50.5317 310.756 51.2954L308.427 53.2283V54.1428Z" fill="black"/>
<path d="M319.206 54.256C320.984 54.256 322.163 52.7285 322.163 50.8428C322.163 48.9383 320.994 47.4297 319.225 47.4297C317.447 47.4297 316.268 48.9571 316.268 50.8428C316.268 52.7474 317.427 54.256 319.206 54.256ZM319.225 53.2094C318.172 53.2094 317.495 52.144 317.495 50.8428C317.495 49.5134 318.162 48.4763 319.206 48.4763C320.249 48.4763 320.936 49.5417 320.936 50.8428C320.936 52.1628 320.278 53.2094 319.225 53.2094Z" fill="black"/>
<defs>
<clipPath id="clip0">
<path d="M28.2686 0.142578L75.7585 26.8905L48.3402 73.2192L0.850196 46.4713L28.2686 0.142578Z" fill="white"/>
</clipPath>
</defs>
</svg>
