<svg width="21" height="22" viewBox="0 0 21 22" fill="none" xmlns="http://www.w3.org/2000/svg">
<path d="M14.4019 1.24707H6.58291C5.60501 1.24707 4.80518 2.02096 4.80518 2.96586V19.0197C4.80518 19.9651 5.60501 20.7382 6.58291 20.7382H14.4019C15.3798 20.7382 16.1796 19.9651 16.1796 19.0197V2.96586C16.1796 2.02096 15.3797 1.24707 14.4019 1.24707Z" stroke="#C4C4C4" stroke-linecap="round" stroke-linejoin="round"/>
<path d="M10.4922 19.363C10.9046 19.363 11.2389 19.0397 11.2389 18.641C11.2389 18.2422 10.9046 17.9189 10.4922 17.9189C10.0799 17.9189 9.74561 18.2422 9.74561 18.641C9.74561 19.0397 10.0799 19.363 10.4922 19.363Z" stroke="#C4C4C4" stroke-width="0.5" stroke-linecap="round" stroke-linejoin="round"/>
<path d="M16.1875 3.80762H4.8125V16.4999H16.1875V3.80762Z" stroke="#C4C4C4" stroke-width="0.5" stroke-linecap="round" stroke-linejoin="round"/>
</svg>
