<svg width="12" height="15" viewBox="0 0 12 15" fill="none" xmlns="http://www.w3.org/2000/svg">
<path d="M6.25408 0C6.4945 0.0498477 6.73777 0.093831 6.97819 0.149543C9.07611 0.645088 10.842 2.58329 11.2055 4.75606C11.423 6.04624 11.2026 7.24845 10.613 8.39495C10.1809 9.23649 9.61704 9.99007 9.05035 10.7378C8.10586 11.9898 7.16136 13.2419 6.21401 14.491C6.10525 14.6347 5.98791 14.7696 5.85911 14.8927C5.69883 15.0511 5.46128 15.0306 5.33249 14.8546C4.00448 13.063 2.67074 11.2715 1.35131 9.47107C0.839 8.7732 0.409686 8.01962 0.192167 7.16635C-0.234285 5.49791 0.0547862 3.9409 1.00214 2.52464C1.92946 1.14063 3.22312 0.31668 4.84307 0.0410511C4.91176 0.0293222 4.98045 0.0146611 5.052 0C5.45269 0 5.85339 0 6.25408 0ZM5.63873 14.2301C5.68739 14.1714 5.73032 14.1216 5.77325 14.0659C6.60898 12.9575 7.44471 11.8462 8.28331 10.7378C8.85 9.99007 9.431 9.25115 9.90611 8.43306C10.4614 7.47423 10.7705 6.45382 10.6703 5.32198C10.5644 4.1315 10.1379 3.09056 9.33942 2.21676C7.79102 0.524867 5.29242 0.111424 3.25461 1.20221C1.14811 2.32818 0.0977175 4.96425 0.844724 7.24845C1.088 7.99323 1.49442 8.65005 1.95235 9.27168C3.15157 10.8961 4.35651 12.5176 5.55859 14.1392C5.58149 14.1656 5.60725 14.1949 5.63873 14.2301Z" fill="#D83603"/>
<path d="M2.8965 5.62161C2.90223 4.10272 4.18445 2.80961 5.6756 2.8184C7.14671 2.8272 8.41176 4.13497 8.40603 5.6392C8.40031 7.15809 7.11809 8.4512 5.6298 8.4424C4.15582 8.4336 2.89078 7.1229 2.8965 5.62161ZM3.50327 5.63333C3.50327 6.88539 4.42486 7.82663 5.64984 7.82663C6.87481 7.82663 7.80213 6.88539 7.80213 5.63627C7.80213 4.37834 6.87768 3.43417 5.64698 3.4371C4.41914 3.44003 3.50041 4.37835 3.50327 5.63333Z" fill="#D83603"/>
</svg>
