<svg width="14" height="14" viewBox="0 0 14 14" fill="none" xmlns="http://www.w3.org/2000/svg">
<path d="M7.77734 8.31152V13.6609H12.178C12.7499 13.6609 13.2138 13.1973 13.2138 12.625V8.31152H7.77734Z" fill="#ffc24a"/>
<path d="M6.22168 8.31152H0.787109V12.625C0.787109 13.1973 1.25111 13.6609 1.823 13.6609H6.22168V8.31152ZM2.19933 12.5739C1.98457 12.5739 1.81033 12.3997 1.81033 12.1849V10.0266C1.81033 9.81187 1.9846 9.63764 2.19933 9.63764C2.41405 9.63764 2.58832 9.81191 2.58832 10.0266V12.1849C2.58832 12.3997 2.41408 12.5739 2.19933 12.5739Z" fill="#ffc24a"/>
<path d="M12.5151 4.25522H10.5695C10.838 4.12634 11.0633 3.99318 11.1995 3.85711C12.0009 3.05586 12.0009 1.75613 11.1995 0.954747C10.7983 0.554106 10.2731 0.353819 9.74791 0.353819C9.22265 0.353819 8.69732 0.554106 8.29665 0.954747C7.9639 1.2876 7.64374 2.10916 7.38239 2.95575C7.26036 2.92225 7.13469 2.89879 7.00256 2.89879C6.87085 2.89879 6.74518 2.92228 6.62367 2.95552C6.3613 2.10128 6.03816 1.26857 5.70229 0.932927C5.30162 0.532286 4.77688 0.332031 4.2511 0.332031C3.72583 0.332031 3.20057 0.532319 2.7999 0.932927C1.99855 1.7346 1.99855 3.03407 2.7999 3.83529C2.94326 3.97927 3.18479 4.12007 3.47459 4.25522H1.48553C0.913606 4.25522 0.450195 4.7188 0.450195 5.29066V6.17174C0.450195 6.74366 0.913606 7.20704 1.48553 7.20704H6.22155V4.29634H7.77752V7.207H12.5151C13.0869 7.207 13.5504 6.74363 13.5504 6.1717V5.29062C13.5504 4.7188 13.0869 4.25522 12.5151 4.25522ZM9.0302 1.68824C9.22163 1.49668 9.47688 1.39105 9.74791 1.39105C10.0194 1.39105 10.2742 1.49668 10.4662 1.68824C10.6576 1.8799 10.763 2.13472 10.763 2.40595C10.763 2.67717 10.6576 2.93196 10.4672 3.12241C10.2529 3.32456 9.41365 3.63953 8.37619 3.93291C8.34688 3.8323 8.30728 3.73712 8.25717 3.64691C8.53982 2.67064 8.83668 1.89282 9.0302 1.68824ZM3.53336 1.66645C3.72485 1.47502 3.9801 1.3694 4.25113 1.3694C4.52259 1.3694 4.77741 1.47476 4.96831 1.66592C5.16338 1.87235 5.46372 2.66024 5.74836 3.64665C5.70124 3.73121 5.66384 3.82043 5.63441 3.91434C4.59202 3.6206 3.74762 3.30402 3.53332 3.10196C3.13774 2.70611 3.13774 2.0623 3.53336 1.66645Z" fill="#ffc24a"/>
</svg>
