<svg width="88" height="16" viewBox="0 0 88 16" fill="none" xmlns="http://www.w3.org/2000/svg">
<path d="M80 1.29426L81.5469 4.98764C81.6911 5.33187 82.015 5.56717 82.3869 5.59792L86.3775 5.92781L83.343 8.54034C83.0601 8.78383 82.9364 9.16456 83.0221 9.52779L83.9415 13.4251L80.5191 11.3463C80.2002 11.1526 79.7998 11.1526 79.4809 11.3463L76.0585 13.4251L76.9779 9.52779C77.0636 9.16456 76.9399 8.78383 76.657 8.54034L73.6225 5.92781L77.6131 5.59792C77.985 5.56717 78.3089 5.33187 78.4531 4.98764L80 1.29426Z" stroke="#FFC839"/>
<path d="M62 1.29426L63.5469 4.98764C63.6911 5.33187 64.015 5.56717 64.3869 5.59792L68.3775 5.92781L65.343 8.54034C65.0601 8.78383 64.9364 9.16456 65.0221 9.52779L65.9415 13.4251L62.5191 11.3463C62.2002 11.1526 61.7998 11.1526 61.4809 11.3463L58.0585 13.4251L58.9779 9.52779C59.0636 9.16456 58.9399 8.78383 58.657 8.54034L55.6225 5.92781L59.6131 5.59792C59.985 5.56717 60.3089 5.33187 60.4531 4.98764L62 1.29426Z" stroke="#FFC839"/>
<path d="M44 1.29426L45.5469 4.98764C45.6911 5.33187 46.015 5.56717 46.3869 5.59792L50.3775 5.92781L47.343 8.54034C47.0601 8.78383 46.9364 9.16456 47.0221 9.52779L47.9415 13.4251L44.5191 11.3463C44.2002 11.1526 43.7998 11.1526 43.4809 11.3463L40.0585 13.4251L40.9779 9.52779C41.0636 9.16456 40.9399 8.78383 40.657 8.54034L37.6225 5.92781L41.6131 5.59792C41.985 5.56717 42.3089 5.33187 42.4531 4.98764L44 1.29426Z" stroke="#FFC839"/>
<path d="M26 1.29426L27.5469 4.98764C27.6911 5.33187 28.015 5.56717 28.3869 5.59792L32.3775 5.92781L29.343 8.54034C29.0601 8.78383 28.9364 9.16456 29.0221 9.52779L29.9415 13.4251L26.5191 11.3463C26.2002 11.1526 25.7998 11.1526 25.4809 11.3463L22.0585 13.4251L22.9779 9.52779C23.0636 9.16456 22.9399 8.78383 22.657 8.54034L19.6225 5.92781L23.6131 5.59792C23.985 5.56717 24.3089 5.33187 24.4531 4.98764L26 1.29426Z" stroke="#FFC839"/>
<path d="M8 1.29426L9.54692 4.98764C9.6911 5.33187 10.015 5.56717 10.3869 5.59792L14.3775 5.92781L11.343 8.54034C11.0601 8.78383 10.9364 9.16456 11.0221 9.52779L11.9415 13.4251L8.51913 11.3463C8.20016 11.1526 7.79984 11.1526 7.48087 11.3463L4.05847 13.4251L4.97789 9.52779C5.06358 9.16456 4.93988 8.78383 4.65705 8.54034L1.62246 5.92781L5.6131 5.59792C5.98503 5.56717 6.3089 5.33187 6.45307 4.98764L8 1.29426Z" stroke="#FFC839"/>
</svg>
