<svg width="88" height="16" viewBox="0 0 88 16" fill="none" xmlns="http://www.w3.org/2000/svg">
<path d="M7.53882 1.1011C7.71017 0.691981 8.28983 0.691981 8.46118 1.1011L10.0081 4.79448C10.0802 4.96659 10.2421 5.08424 10.4281 5.09962L14.4187 5.42951C14.8608 5.46606 15.0399 6.01734 14.7038 6.30673L11.6692 8.91926C11.5278 9.04101 11.4659 9.23137 11.5088 9.41299L12.4282 13.3103C12.53 13.742 12.0611 14.0827 11.682 13.8524L8.25957 11.7737C8.10008 11.6768 7.89992 11.6768 7.74043 11.7737L4.31803 13.8524C3.93893 14.0827 3.46998 13.742 3.57182 13.3103L4.49125 9.41299C4.53409 9.23137 4.47224 9.04101 4.33083 8.91926L1.29624 6.30673C0.960099 6.01734 1.13922 5.46606 1.58127 5.42951L5.5719 5.09962C5.75787 5.08424 5.9198 4.96659 5.99189 4.79448L7.53882 1.1011Z" fill="#FFC839"/>
<path d="M25.5388 1.1011C25.7102 0.691981 26.2898 0.691981 26.4612 1.1011L28.0081 4.79448C28.0802 4.96659 28.2421 5.08424 28.4281 5.09962L32.4187 5.42951C32.8608 5.46606 33.0399 6.01734 32.7038 6.30673L29.6692 8.91926C29.5278 9.04101 29.4659 9.23137 29.5088 9.41299L30.4282 13.3103C30.53 13.742 30.0611 14.0827 29.682 13.8524L26.2596 11.7737C26.1001 11.6768 25.8999 11.6768 25.7404 11.7737L22.318 13.8524C21.9389 14.0827 21.47 13.742 21.5718 13.3103L22.4912 9.41299C22.5341 9.23137 22.4722 9.04101 22.3308 8.91926L19.2962 6.30673C18.9601 6.01734 19.1392 5.46606 19.5813 5.42951L23.5719 5.09962C23.7579 5.08424 23.9198 4.96659 23.9919 4.79448L25.5388 1.1011Z" fill="#FFC839"/>
<path d="M43.5388 1.1011C43.7102 0.691981 44.2898 0.691981 44.4612 1.1011L46.0081 4.79448C46.0802 4.96659 46.2421 5.08424 46.4281 5.09962L50.4187 5.42951C50.8608 5.46606 51.0399 6.01734 50.7038 6.30673L47.6692 8.91926C47.5278 9.04101 47.4659 9.23137 47.5088 9.41299L48.4282 13.3103C48.53 13.742 48.0611 14.0827 47.682 13.8524L44.2596 11.7737C44.1001 11.6768 43.8999 11.6768 43.7404 11.7737L40.318 13.8524C39.9389 14.0827 39.47 13.742 39.5718 13.3103L40.4912 9.41299C40.5341 9.23137 40.4722 9.04101 40.3308 8.91926L37.2962 6.30673C36.9601 6.01734 37.1392 5.46606 37.5813 5.42951L41.5719 5.09962C41.7579 5.08424 41.9198 4.96659 41.9919 4.79448L43.5388 1.1011Z" fill="#FFC839"/>
<path d="M61.5388 1.1011C61.7102 0.691981 62.2898 0.691981 62.4612 1.1011L64.0081 4.79448C64.0802 4.96659 64.2421 5.08424 64.4281 5.09962L68.4187 5.42951C68.8608 5.46606 69.0399 6.01734 68.7038 6.30673L65.6692 8.91926C65.5278 9.04101 65.4659 9.23137 65.5088 9.41299L66.4282 13.3103C66.53 13.742 66.0611 14.0827 65.682 13.8524L62.2596 11.7737C62.1001 11.6768 61.8999 11.6768 61.7404 11.7737L58.318 13.8524C57.9389 14.0827 57.47 13.742 57.5718 13.3103L58.4912 9.41299C58.5341 9.23137 58.4722 9.04101 58.3308 8.91926L55.2962 6.30673C54.9601 6.01734 55.1392 5.46606 55.5813 5.42951L59.5719 5.09962C59.7579 5.08424 59.9198 4.96659 59.9919 4.79448L61.5388 1.1011Z" fill="#FFC839"/>
<path d="M79.5388 1.1011C79.7102 0.691981 80.2898 0.691981 80.4612 1.1011L82.0081 4.79448C82.0802 4.96659 82.2421 5.08424 82.4281 5.09962L86.4187 5.42951C86.8608 5.46606 87.0399 6.01734 86.7038 6.30673L83.6692 8.91926C83.5278 9.04101 83.4659 9.23137 83.5088 9.41299L84.4282 13.3103C84.53 13.742 84.0611 14.0827 83.682 13.8524L80.2596 11.7737C80.1001 11.6768 79.8999 11.6768 79.7404 11.7737L76.318 13.8524C75.9389 14.0827 75.47 13.742 75.5718 13.3103L76.4912 9.41299C76.5341 9.23137 76.4722 9.04101 76.3308 8.91926L73.2962 6.30673C72.9601 6.01734 73.1392 5.46606 73.5813 5.42951L77.5719 5.09962C77.7579 5.08424 77.9198 4.96659 77.9919 4.79448L79.5388 1.1011Z" fill="#FFC839"/>
</svg>
