<svg width="122" height="135" viewBox="0 0 122 135" fill="none" xmlns="http://www.w3.org/2000/svg">
<path d="M67.7768 118.701L67.433 118.698C65.7766 118.701 64.1272 118.498 62.5231 118.095L58.9717 116.881L55.5784 115.402L52.3258 113.633C48.1325 111.044 44.3844 107.806 41.2226 104.042C35.2446 96.4832 30.4699 88.0567 27.0638 79.0545C23.4357 70.2775 20.4056 61.3536 16.9302 52.6955C13.7742 44.041 9.37252 35.8902 3.86174 28.4959L0.562844 24.386L5.78839 25.0237C11.1266 25.5896 16.4259 26.4631 21.6594 27.6396C26.964 28.7854 32.1294 30.4847 37.0697 32.7094C42.1125 34.929 46.7658 37.9291 50.8566 41.5982C54.9093 45.3505 58.2718 49.7757 60.7943 54.6766C63.2417 59.5125 65.1205 64.6137 66.3938 69.88C67.7037 75.0648 68.6332 80.3385 69.175 85.6598C69.7164 90.9678 69.9111 96.3065 69.7578 101.642C69.7046 104.305 69.5439 106.96 69.3504 109.61L69.0004 113.578C68.8225 115.331 68.4111 117.054 67.7768 118.701V118.701ZM65.2329 115.761L65.1612 115.549C64.7709 114.823 64.6047 113.998 64.6835 113.178L65.0088 109.307C65.1866 106.726 65.3325 104.143 65.373 101.563C65.5006 96.4113 65.292 91.2586 64.7486 86.1369C63.8322 75.9514 61.1337 66.01 56.7743 56.7588C54.5057 52.3049 51.4727 48.2796 47.8108 44.8627C44.0725 41.4942 39.8175 38.7374 35.2042 36.6947C30.5392 34.5769 25.6593 32.9563 20.6461 31.86C15.5881 30.7062 10.4657 29.8449 5.30477 29.2803L7.23108 25.8085C12.9856 33.5477 17.5739 42.0803 20.8522 51.1391C24.3515 59.9586 27.299 68.8914 30.8112 77.5278C34.0199 86.1742 38.5226 94.2869 44.168 101.594C47.0167 105.108 50.4134 108.148 54.2304 110.597L57.1746 112.263C58.2054 112.723 59.2204 113.223 60.2658 113.652L63.427 114.738C64.0978 114.943 64.7143 115.292 65.2329 115.761V115.761Z" fill="#5BA641"/>
<path d="M63.6966 116.353C58.7492 105.708 56.215 94.2849 52.6494 83.3772C50.9668 77.9116 48.7483 72.625 46.0256 67.5931C45.2802 66.3836 44.5748 65.146 43.7981 63.9569C44.563 64.6445 49.063 68.6445 54.6804 82.7157C60.2978 96.7869 60.6752 105.122 65.457 115.547L63.6966 116.353Z" fill="#5BA641"/>
<path d="M65.9757 115.929C65.9455 116.056 65.9662 116.189 66.0333 116.301C66.3039 116.753 66.6323 117.168 67.0103 117.535C67.3065 117.828 67.6219 118.101 67.9544 118.352C68.6041 118.857 69.3077 119.289 70.0526 119.641L70.0536 119.642C71.4945 120.319 73.0374 120.759 74.622 120.945L74.6237 120.945C77.6392 121.289 80.6944 121.1 83.6481 120.388L83.6481 120.388L83.655 120.386C89.532 118.879 94.7547 115.496 98.5177 110.759C102.145 106.193 104.968 101.053 106.867 95.5568C108.798 90.1915 110.297 84.6846 111.353 79.0878C111.353 79.0868 111.353 79.0858 111.353 79.0848L112.16 75.0903C112.204 74.8706 112.097 74.6483 111.897 74.5463C111.698 74.4442 111.455 74.4873 111.302 74.6518L108.519 77.6597C105.293 81.04 101.473 83.8079 97.2475 85.8262L97.2474 85.8261L97.2392 85.8303C95.2276 86.8371 93.1446 87.7377 91.028 88.6528C90.9085 88.7045 90.7889 88.7562 90.6692 88.808C88.436 89.774 86.1703 90.7627 83.9459 91.9064C79.3209 94.1213 75.2925 97.4015 72.1981 101.473C72.1941 101.478 72.1902 101.484 72.1864 101.489C69.203 105.757 67.1129 110.574 66.041 115.654L65.9757 115.929ZM107.014 83.5004C106.114 87.1939 105.013 90.8382 103.714 94.4168L103.714 94.4168L103.712 94.4231C101.926 99.555 99.2786 104.353 95.8816 108.615L95.8814 108.615C92.5791 112.762 88.0024 115.726 82.8524 117.052C80.3051 117.663 77.6716 117.826 75.0716 117.534C73.8497 117.388 72.659 117.055 71.5426 116.545C71.015 116.3 70.5167 115.999 70.0567 115.645L70.0567 115.645L70.0494 115.64C69.8222 115.472 69.6072 115.288 69.4059 115.091L69.4045 115.089L69.3996 115.085C69.3367 115.024 69.2806 114.969 69.2363 114.931C69.2353 114.93 69.2343 114.929 69.2331 114.928C69.2146 114.912 69.1741 114.877 69.1151 114.844C70.3286 110.726 72.1985 106.824 74.6548 103.286C77.4977 99.6333 81.1689 96.6969 85.3681 94.7174L85.3816 94.7108C87.4916 93.6377 89.692 92.6934 91.9328 91.7391C92.0318 91.697 92.1309 91.6548 92.23 91.6126C94.3692 90.7019 96.5422 89.7768 98.6798 88.7246C101.662 87.3158 104.459 85.5607 107.014 83.5004Z" fill="#5BA641" stroke="#5BA641" stroke-linejoin="round"/>
<path d="M67.9079 114.423C73.2473 114.296 78.453 112.702 82.9458 109.817C85.1754 108.356 87.2673 106.697 89.1956 104.86C91.1594 103.028 93.0013 101.051 94.9741 99.0755C93.8583 101.633 92.3498 104.004 90.5025 106.104C88.6338 108.223 86.4691 110.065 84.0747 111.575C79.2369 114.599 73.6724 116.276 67.9675 116.428L67.9079 114.423Z" fill="#5BA641"/>
</svg>
